<?xml version="1.0" encoding="us-ascii" standalone="no"?><svg xmlns="http://www.w3.org/2000/svg" xmlns:xlink="http://www.w3.org/1999/xlink" contentStyleType="text/css" height="648px" preserveAspectRatio="none" style="width:596px;height:648px;background:#F5F5F5;" version="1.1" viewBox="0 0 596 648" width="596px" zoomAndPan="magnify"><defs><linearGradient id="go380y9654de70" x1="50%" x2="50%" y1="0%" y2="100%"><stop offset="0%" stop-color="#E0E5F0"/><stop offset="100%" stop-color="#D1D9E6"/></linearGradient></defs><g><rect fill="#F5F5F5" height="648" style="stroke:none;stroke-width:1.0;" width="596" x="0" y="0"/><text fill="#000000" font-family="Arial" font-size="14" font-weight="bold" lengthAdjust="spacing" textLength="138" x="225" y="28.1318">Plan-History-Search</text><rect fill="#156082" fill-opacity="0.50196" height="249.8857" style="stroke:#181818;stroke-width:1.0;" width="10" x="39" y="208.1934"/><rect fill="#E97232" fill-opacity="0.74118" height="249.8857" style="stroke:#181818;stroke-width:1.0;" width="10" x="374" y="208.1934"/><rect fill="#0F9ED5" fill-opacity="0.14510" height="156.0908" rx="5" ry="5" style="stroke:#111827;stroke-width:2.0;" width="437" x="10" y="309.9883"/><path d="M10,371.9844 L447,371.9844 L447,414.0317 A5,5 0 0 1 442,419.0317 L15,419.0317 A5,5 0 0 1 10,414.0317 L10,371.9844 " fill="#34738D" fill-opacity="0.30588" style="stroke:none;stroke-width:1.0;"/><path d="M10,419.0317 L447,419.0317 L447,461.0791 A5,5 0 0 1 442,466.0791 L15,466.0791 A5,5 0 0 1 10,461.0791 L10,419.0317 " fill="#E97132" fill-opacity="0.20784" style="stroke:none;stroke-width:1.0;"/><line style="stroke:#181818;stroke-width:0.5;stroke-dasharray:5.0,5.0;" x1="44" x2="44" y1="118.1973" y2="567.4736"/><line style="stroke:#181818;stroke-width:0.5;stroke-dasharray:5.0,5.0;" x1="379" x2="379" y1="118.1973" y2="567.4736"/><text fill="#000000" font-family="Arial" font-size="14" lengthAdjust="spacing" textLength="42" x="20" y="115.2305">GDA 1</text><ellipse cx="44" cy="50.5986" fill="#156082" fill-opacity="0.50196" rx="8" ry="8" style="stroke:#181818;stroke-width:0.5;"/><path d="M44,58.5986 L44,85.5986 M31,66.5986 L57,66.5986 M44,85.5986 L31,100.5986 M44,85.5986 L57,100.5986 " fill="none" style="stroke:#181818;stroke-width:0.5;"/><text fill="#000000" font-family="Arial" font-size="14" lengthAdjust="spacing" textLength="42" x="20" y="579.6055">GDA 1</text><ellipse cx="44" cy="591.0723" fill="#156082" fill-opacity="0.50196" rx="8" ry="8" style="stroke:#181818;stroke-width:0.5;"/><path d="M44,599.0723 L44,626.0723 M31,607.0723 L57,607.0723 M44,626.0723 L31,641.0723 M44,626.0723 L57,641.0723 " fill="none" style="stroke:#181818;stroke-width:0.5;"/><rect fill="#E97232" fill-opacity="0.74118" height="30.0986" rx="5" ry="5" style="stroke:#555555;stroke-width:0.5;" width="76" x="341" y="87.0986"/><text fill="#000000" font-family="Arial" font-size="14" lengthAdjust="spacing" textLength="62" x="348" y="107.2305">e-Med FA</text><rect fill="#E97232" fill-opacity="0.74118" height="30.0986" rx="5" ry="5" style="stroke:#555555;stroke-width:0.5;" width="76" x="341" y="566.4736"/><text fill="#000000" font-family="Arial" font-size="14" lengthAdjust="spacing" textLength="62" x="348" y="586.6055">e-Med FA</text><rect fill="#156082" fill-opacity="0.50196" height="249.8857" style="stroke:#181818;stroke-width:1.0;" width="10" x="39" y="208.1934"/><rect fill="#E97232" fill-opacity="0.74118" height="249.8857" style="stroke:#181818;stroke-width:1.0;" width="10" x="374" y="208.1934"/><rect fill="#EEEEEE" height="3" rx="5" ry="5" style="stroke:#EEEEEE;stroke-width:1.0;" width="589" x="0" y="149.2466"/><line style="stroke:#000000;stroke-width:1.0;" x1="0" x2="589" y1="149.2466" y2="149.2466"/><line style="stroke:#000000;stroke-width:1.0;" x1="0" x2="589" y1="152.2466" y2="152.2466"/><rect fill="#EEEEEE" height="24.0986" rx="5" ry="5" style="stroke:#000000;stroke-width:2.0;" width="270" x="159.5" y="138.1973"/><text fill="#000000" font-family="Arial" font-size="14" font-weight="bold" lengthAdjust="spacing" textLength="252" x="165.5" y="155.3291">Historische Medikationspl&#228;ne lesen</text><polygon fill="#111827" points="362,204.1934,372,208.1934,362,212.1934,366,208.1934" style="stroke:#111827;stroke-width:1.0;"/><line style="stroke:#111827;stroke-width:1.0;" x1="49" x2="368" y1="208.1934" y2="208.1934"/><text fill="#000000" font-family="Arial" font-size="13" font-weight="bold" lengthAdjust="spacing" textLength="7" x="56" y="195.9641">1</text><text fill="#000000" font-family="Arial" font-size="13" lengthAdjust="spacing" textLength="172" x="67" y="188.4897">GET /Patient/{id}/List/_history</text><text fill="#000000" font-family="Arial" font-size="13" lengthAdjust="spacing" textLength="125" x="67" y="203.4385">(mit Suchparametern)</text><line style="stroke:#111827;stroke-width:1.0;" x1="384" x2="426" y1="281.9883" y2="281.9883"/><line style="stroke:#111827;stroke-width:1.0;" x1="426" x2="426" y1="281.9883" y2="294.9883"/><line style="stroke:#111827;stroke-width:1.0;" x1="385" x2="426" y1="294.9883" y2="294.9883"/><polygon fill="#111827" points="395,290.9883,385,294.9883,395,298.9883,391,294.9883" style="stroke:#111827;stroke-width:1.0;"/><text fill="#000000" font-family="Arial" font-size="13" font-weight="bold" lengthAdjust="spacing" textLength="7" x="391" y="254.8103">2</text><text fill="#000000" font-family="Arial" font-size="13" lengthAdjust="spacing" textLength="148" x="402" y="232.3872">Ermittlung der passenden</text><text fill="#000000" font-family="Arial" font-size="13" lengthAdjust="spacing" textLength="157" x="402" y="247.3359">historischen List-Versionen</text><text fill="#000000" font-family="Arial" font-size="13" lengthAdjust="spacing" textLength="134" x="402" y="262.2847">und Rekonstruktion der</text><text fill="#000000" font-family="Arial" font-size="13" lengthAdjust="spacing" textLength="175" x="402" y="277.2334">historischen Medikationspl&#228;ne</text><path d="M15,309.9883 L357,309.9883 L357,318.0869 L347,328.0869 L10,328.0869 L10,314.9883 A5,5 0 0 1 15,309.9883 " fill="#EEF2FF" style="stroke:#111827;stroke-width:1.5;"/><rect fill="none" height="156.0908" rx="5" ry="5" style="stroke:#111827;stroke-width:2.0;" width="437" x="10" y="309.9883"/><text fill="#000000" font-family="Arial" font-size="14" font-weight="bold" lengthAdjust="spacing" textLength="302" x="25" y="324.1201">alt: Historische List-Version(en) gefunden?</text><polygon fill="#111827" points="60,359.9844,50,363.9844,60,367.9844,56,363.9844" style="stroke:#111827;stroke-width:1.0;"/><line style="stroke:#111827;stroke-width:1.0;" x1="54" x2="373" y1="363.9844" y2="363.9844"/><text fill="#000000" font-family="Arial" font-size="13" font-weight="bold" lengthAdjust="spacing" textLength="7" x="66" y="351.7551">3</text><text fill="#000000" font-family="Arial" font-size="13" lengthAdjust="spacing" textLength="290" x="77" y="344.2808">Bundle (type=searchset) mit einem oder mehreren</text><text fill="#000000" font-family="Arial" font-size="13" lengthAdjust="spacing" textLength="206" x="77" y="359.2295">Medikationsplan-Collection-Bundles</text><line style="stroke:#111827;stroke-width:1.0;stroke-dasharray:2.0,2.0;" x1="10" x2="447" y1="372.9844" y2="372.9844"/><text fill="#000000" font-family="Arial" font-size="14" font-weight="bold" lengthAdjust="spacing" textLength="41" x="15" y="386.1162">[nein]</text><polygon fill="#111827" points="60,407.0317,50,411.0317,60,415.0317,56,411.0317" style="stroke:#111827;stroke-width:1.0;"/><line style="stroke:#111827;stroke-width:1.0;" x1="54" x2="373" y1="411.0317" y2="411.0317"/><text fill="#000000" font-family="Arial" font-size="13" font-weight="bold" lengthAdjust="spacing" textLength="7" x="66" y="406.2769">4</text><text fill="#000000" font-family="Arial" font-size="13" lengthAdjust="spacing" textLength="226" x="77" y="406.2769">Bundle (type=searchset) ohne Eintr&#228;ge</text><line style="stroke:#111827;stroke-width:1.0;stroke-dasharray:2.0,2.0;" x1="10" x2="447" y1="420.0317" y2="420.0317"/><text fill="#000000" font-family="Arial" font-size="14" font-weight="bold" lengthAdjust="spacing" textLength="56" x="15" y="433.1636">[Fehler]</text><polygon fill="#111827" points="55,454.0791,45,458.0791,55,462.0791,51,458.0791" style="stroke:#111827;stroke-width:1.0;"/><line style="stroke:#111827;stroke-width:1.0;" x1="49" x2="378" y1="458.0791" y2="458.0791"/><text fill="#000000" font-family="Arial" font-size="13" font-weight="bold" lengthAdjust="spacing" textLength="7" x="61" y="453.3242">5</text><text fill="#000000" font-family="Arial" font-size="13" lengthAdjust="spacing" textLength="109" x="72" y="453.3242">OperationOutcome</text><path d="M222,483.0791 L222,547.0791 A5,5 0 0 0 227,552.0791 L530,552.0791 A5,5 0 0 0 535,547.0791 L535,488.0791 L525,478.0791 L227,478.0791 A5,5 0 0 0 222,483.0791 " fill="url(#go380y9654de70)" style="stroke:#8B95A5;stroke-width:1.0;"/><path d="M525,478.0791 L525,485.5791 A2.5,2.5 0 0 0 527.5,488.0791 L535,488.0791 L525,478.0791 " fill="url(#go380y9654de70)" style="stroke:#8B95A5;stroke-width:1.0;"/><text fill="#111827" font-family="Arial" font-size="14" lengthAdjust="spacing" textLength="220" x="228" y="496.2109">Die Fachanwendung liefert die den</text><text fill="#111827" font-family="Arial" font-size="14" lengthAdjust="spacing" textLength="292" x="228" y="512.3096">Suchparametern entsprechenden historischen</text><text fill="#111827" font-family="Arial" font-size="14" lengthAdjust="spacing" textLength="268" x="228" y="528.4082">Medikationspl&#228;ne als Collection Bundles in</text><text fill="#111827" font-family="Arial" font-size="14" lengthAdjust="spacing" textLength="259" x="228" y="544.5068">einem Bundle vom Typ searchset zur&#252;ck.</text><!--SRC=[bLNDak8s4BxxAJfmoCo1Z6s67qyLIS5YPbFPNIWWEQIsYjBOpLY5aHr9didirhxDFaPkys9fsJ38c1mYBhZxKtT_NxSapNMAi4YPwBpdIcVofRD29gF4SNvKEovo9jaUM4IUbNuXA7j6bUtHSKxUXqp6ADzbQIQXxPRBzh9ezoYpGiG7nBPdVXP29IpEdhbuX2rB5LgUmpOfK89d1urnoufKppAXFx4zGciiEKjRbn4h_WN1kxti_A-otx_aA5CkTXOW32y1VXTn-GSRvK-olnSiZWqptwtR9xPclNBPaefC8tnr02Rdwg6BlQtRQSTU763V8En8muUWntflrdN2evr0fS0Zsz9IqwNlOsqcYYM5vtb3Vq2srLbVljaLAlohG15LLIwOr3pYEHFw4h4we34FvQg3cfrfk8zThJaikG76KcRFvwHAOrsNqdGfuvkZojKbqprLdjSulaMkN8r-uTOlsLaxJ-bz8-eFD8vcVDxDFyoNc_lfUEC1hRRNwxj3V-XU0FWb8EZttS6q0LYCrx-6dzOcGj2V-BSDm7WnXtArtLaGJdl1EI3y64utip41C1ZuNVyXFWTibk6VuM8DxIZk3he-2yvfp7-3MWw_rm1KBA3TlHrqX_4jdkTOBkVB4X060w_hT-c4EELD19L6J46B_e7NigLpyjCu07x4s10nKEpG1yp6hJf94xJGcIZs3oWTPpI2wYBaAaeGQ0lVCSqpeVBqzJiLbw920QEHurHLT7u-Phc3-t0DDmk2ez0tNtdyxUO3nRhP9DNL-bbSxRc6LH4bvI52ZL9S6qxyYT61hmBQN4w-8vDwxKUhNKGeAObE2pe6D6kGCqK5noW-Y-H4J82fhFC7IaNSZ9D65fQu8w9Q5Zl3s6m_szIGmt7CjEUdfhDKtzKKjFDSeRY6HzmMffvVw51OzPU4xs12FdfchZHThoDLFaKAzJKOuP26Om-PORN7HA8qTTTAecUCpbsAaVdkLB6KWtHxsLCdAD3_IfubrFYG2orVlp-Y7QyQqXacAGtFfP1pUYNAwkQ5Zip32IHhlUDrqo64GpsZqImVWko961_jKuumOr72n3D1J9TJZbkK6cBoaAvEVRw0Pb7b4at_o0jsFvtcUDDD3oS93uee8C4gzGyIFMLxMB_ay2OIV2dawp_HxYTJUFb-EVy2]--></g></svg>