<?xml version="1.0" encoding="us-ascii" standalone="no"?><svg xmlns="http://www.w3.org/2000/svg" xmlns:xlink="http://www.w3.org/1999/xlink" contentStyleType="text/css" height="599px" preserveAspectRatio="none" style="width:705px;height:599px;background:#F5F5F5;" version="1.1" viewBox="0 0 705 599" width="705px" zoomAndPan="magnify"><defs><linearGradient id="gfs4mipldthdx0" x1="50%" x2="50%" y1="0%" y2="100%"><stop offset="0%" stop-color="#E0E5F0"/><stop offset="100%" stop-color="#D1D9E6"/></linearGradient></defs><g><rect fill="#F5F5F5" height="599" style="stroke:none;stroke-width:1.0;" width="705" x="0" y="0"/><text fill="#000000" font-family="Arial" font-size="14" font-weight="bold" lengthAdjust="spacing" textLength="461" x="120.5" y="33.1318">Pr&#252;fung des Planzustands und Erzeugung des Collection Bundles</text><ellipse cx="316.625" cy="57.0986" fill="#111827" rx="10" ry="10" style="stroke:#222222;stroke-width:1.0;"/><polygon fill="#EEF2FF" points="265.625,87.0986,367.625,87.0986,379.625,103.1973,367.625,119.2959,265.625,119.2959,253.625,103.1973,265.625,87.0986" style="stroke:#111827;stroke-width:1.0;"/><text fill="#000000" font-family="Arial" font-size="14" lengthAdjust="spacing" textLength="102" x="265.625" y="100.2305">Medikationsplan</text><text fill="#000000" font-family="Arial" font-size="14" lengthAdjust="spacing" textLength="76" x="265.625" y="116.3291">vorhanden?</text><text fill="#000000" font-family="Arial" font-size="14" lengthAdjust="spacing" textLength="28" x="225.625" y="100.2305">Nein</text><text fill="#000000" font-family="Arial" font-size="14" lengthAdjust="spacing" textLength="14" x="379.625" y="100.2305">Ja</text><path d="M176,129.2959 L176,154.4438 L156,158.4438 L176,162.4438 L176,187.5918 A0,0 0 0 0 176,187.5918 L351,187.5918 A0,0 0 0 0 351,187.5918 L351,139.2959 L341,129.2959 L176,129.2959 A0,0 0 0 0 176,129.2959 " fill="url(#gfs4mipldthdx0)" style="stroke:#8B95A5;stroke-width:1.0;"/><path d="M341,129.2959 L341,139.2959 L351,139.2959 L341,129.2959 " fill="url(#gfs4mipldthdx0)" style="stroke:#8B95A5;stroke-width:1.0;"/><text fill="#111827" font-family="Arial" font-size="14" lengthAdjust="spacing" textLength="154" x="182" y="147.4277">Initialen Medikationsplan</text><text fill="#111827" font-family="Arial" font-size="14" lengthAdjust="spacing" textLength="54" x="182" y="163.5264">erstellen</text><text fill="#111827" font-family="Arial" font-size="14" lengthAdjust="spacing" textLength="153" x="182" y="179.625">(Sub_UC_eMed_01_03)</text><rect fill="#FFFFFF" height="52.1973" rx="5" ry="5" style="stroke:#555555;stroke-width:1.0;" width="145" x="11" y="132.3452"/><text fill="#000000" font-family="Arial" font-size="14" lengthAdjust="spacing" textLength="125" x="21" y="155.4771">List.emptyReason =</text><text fill="#000000" font-family="Arial" font-size="14" lengthAdjust="spacing" textLength="64" x="21" y="171.5757">notstarted</text><polygon fill="#EEF2FF" points="509.75,129.2959,589.75,129.2959,601.75,145.3945,589.75,161.4932,509.75,161.4932,497.75,145.3945,509.75,129.2959" style="stroke:#111827;stroke-width:1.0;"/><text fill="#000000" font-family="Arial" font-size="14" lengthAdjust="spacing" textLength="80" x="509.75" y="142.4277">Planeintr&#228;ge</text><text fill="#000000" font-family="Arial" font-size="14" lengthAdjust="spacing" textLength="76" x="509.75" y="158.5264">vorhanden?</text><text fill="#000000" font-family="Arial" font-size="14" lengthAdjust="spacing" textLength="14" x="483.75" y="142.4277">Ja</text><text fill="#000000" font-family="Arial" font-size="14" lengthAdjust="spacing" textLength="28" x="601.75" y="142.4277">Nein</text><rect fill="#FFFFFF" height="52.1973" rx="5" ry="5" style="stroke:#555555;stroke-width:1.0;" width="132" x="397.5" y="171.4932"/><text fill="#000000" font-family="Arial" font-size="14" lengthAdjust="spacing" textLength="112" x="407.5" y="194.625">Transformationen</text><text fill="#000000" font-family="Arial" font-size="14" lengthAdjust="spacing" textLength="77" x="407.5" y="210.7236">durchf&#252;hren</text><rect fill="#FFFFFF" height="52.1973" rx="5" ry="5" style="stroke:#555555;stroke-width:1.0;" width="145" x="391" y="301.937"/><text fill="#000000" font-family="Arial" font-size="14" lengthAdjust="spacing" textLength="125" x="401" y="325.0688">List.emptyReason =</text><text fill="#000000" font-family="Arial" font-size="14" lengthAdjust="spacing" textLength="54" x="401" y="341.1675">nilknown</text><polygon fill="#EEF2FF" points="406,243.6904,521,243.6904,533,259.7891,521,275.8877,406,275.8877,394,259.7891,406,243.6904" style="stroke:#111827;stroke-width:1.0;"/><text fill="#000000" font-family="Arial" font-size="14" lengthAdjust="spacing" textLength="28" x="467.5" y="289.0195">Nein</text><text fill="#000000" font-family="Arial" font-size="14" lengthAdjust="spacing" textLength="115" x="406" y="256.8223">noch Planeintr&#228;ge</text><text fill="#000000" font-family="Arial" font-size="14" lengthAdjust="spacing" textLength="76" x="406" y="272.9209">vorhanden?</text><text fill="#000000" font-family="Arial" font-size="14" lengthAdjust="spacing" textLength="14" x="533" y="256.8223">Ja</text><polygon fill="#EEF2FF" points="463.5,374.1343,475.5,386.1343,463.5,398.1343,451.5,386.1343,463.5,374.1343" style="stroke:#111827;stroke-width:1.0;"/><rect fill="#FFFFFF" height="52.1973" rx="5" ry="5" style="stroke:#555555;stroke-width:1.0;" width="116" x="578" y="171.4932"/><text fill="#000000" font-family="Arial" font-size="14" lengthAdjust="spacing" textLength="34" x="588" y="194.625">keine</text><text fill="#000000" font-family="Arial" font-size="14" lengthAdjust="spacing" textLength="96" x="588" y="210.7236">Transformation</text><polygon fill="#EEF2FF" points="549.75,404.1343,561.75,416.1343,549.75,428.1343,537.75,416.1343,549.75,404.1343" style="stroke:#111827;stroke-width:1.0;"/><polygon fill="#EEF2FF" points="316.625,434.1343,328.625,446.1343,316.625,458.1343,304.625,446.1343,316.625,434.1343" style="stroke:#111827;stroke-width:1.0;"/><rect fill="#FFFFFF" height="68.2959" rx="5" ry="5" style="stroke:#555555;stroke-width:1.0;" width="130" x="251.625" y="478.1343"/><text fill="#000000" font-family="Arial" font-size="14" lengthAdjust="spacing" textLength="110" x="261.625" y="501.2661">Collection Bundle</text><text fill="#000000" font-family="Arial" font-size="14" lengthAdjust="spacing" textLength="102" x="261.625" y="517.3647">zur Auslieferung</text><text fill="#000000" font-family="Arial" font-size="14" lengthAdjust="spacing" textLength="59" x="261.625" y="533.4634">erzeugen</text><ellipse cx="316.625" cy="577.4302" fill="none" rx="11" ry="11" style="stroke:#222222;stroke-width:1.0;"/><ellipse cx="316.625" cy="577.4302" fill="#222222" rx="6" ry="6" style="stroke:#222222;stroke-width:1.0;"/><line style="stroke:#111827;stroke-width:1.0;" x1="463.5" x2="463.5" y1="275.8877" y2="301.937"/><polygon fill="#111827" points="459.5,291.937,463.5,301.937,467.5,291.937,463.5,295.937" style="stroke:#111827;stroke-width:1.0;"/><line style="stroke:#111827;stroke-width:1.0;" x1="533" x2="546" y1="259.7891" y2="259.7891"/><polygon fill="#111827" points="542,315.9863,546,325.9863,550,315.9863,546,319.9863" style="stroke:#111827;stroke-width:1.0;"/><line style="stroke:#111827;stroke-width:1.0;" x1="546" x2="546" y1="259.7891" y2="386.1343"/><line style="stroke:#111827;stroke-width:1.0;" x1="546" x2="475.5" y1="386.1343" y2="386.1343"/><polygon fill="#111827" points="485.5,382.1343,475.5,386.1343,485.5,390.1343,481.5,386.1343" style="stroke:#111827;stroke-width:1.0;"/><line style="stroke:#111827;stroke-width:1.0;" x1="463.5" x2="463.5" y1="354.1343" y2="374.1343"/><polygon fill="#111827" points="459.5,364.1343,463.5,374.1343,467.5,364.1343,463.5,368.1343" style="stroke:#111827;stroke-width:1.0;"/><line style="stroke:#111827;stroke-width:1.0;" x1="463.5" x2="463.5" y1="223.6904" y2="243.6904"/><polygon fill="#111827" points="459.5,233.6904,463.5,243.6904,467.5,233.6904,463.5,237.6904" style="stroke:#111827;stroke-width:1.0;"/><line style="stroke:#111827;stroke-width:1.0;" x1="497.75" x2="463.5" y1="145.3945" y2="145.3945"/><line style="stroke:#111827;stroke-width:1.0;" x1="463.5" x2="463.5" y1="145.3945" y2="171.4932"/><polygon fill="#111827" points="459.5,161.4932,463.5,171.4932,467.5,161.4932,463.5,165.4932" style="stroke:#111827;stroke-width:1.0;"/><line style="stroke:#111827;stroke-width:1.0;" x1="601.75" x2="636" y1="145.3945" y2="145.3945"/><line style="stroke:#111827;stroke-width:1.0;" x1="636" x2="636" y1="145.3945" y2="171.4932"/><polygon fill="#111827" points="632,161.4932,636,171.4932,640,161.4932,636,165.4932" style="stroke:#111827;stroke-width:1.0;"/><line style="stroke:#111827;stroke-width:1.0;" x1="463.5" x2="463.5" y1="398.1343" y2="416.1343"/><line style="stroke:#111827;stroke-width:1.0;" x1="463.5" x2="537.75" y1="416.1343" y2="416.1343"/><polygon fill="#111827" points="527.75,412.1343,537.75,416.1343,527.75,420.1343,531.75,416.1343" style="stroke:#111827;stroke-width:1.0;"/><line style="stroke:#111827;stroke-width:1.0;" x1="636" x2="636" y1="223.6904" y2="416.1343"/><line style="stroke:#111827;stroke-width:1.0;" x1="636" x2="561.75" y1="416.1343" y2="416.1343"/><polygon fill="#111827" points="571.75,412.1343,561.75,416.1343,571.75,420.1343,567.75,416.1343" style="stroke:#111827;stroke-width:1.0;"/><line style="stroke:#111827;stroke-width:1.0;" x1="253.625" x2="83.5" y1="103.1973" y2="103.1973"/><line style="stroke:#111827;stroke-width:1.0;" x1="83.5" x2="83.5" y1="103.1973" y2="132.3452"/><polygon fill="#111827" points="79.5,122.3452,83.5,132.3452,87.5,122.3452,83.5,126.3452" style="stroke:#111827;stroke-width:1.0;"/><line style="stroke:#111827;stroke-width:1.0;" x1="379.625" x2="549.75" y1="103.1973" y2="103.1973"/><line style="stroke:#111827;stroke-width:1.0;" x1="549.75" x2="549.75" y1="103.1973" y2="129.2959"/><polygon fill="#111827" points="545.75,119.2959,549.75,129.2959,553.75,119.2959,549.75,123.2959" style="stroke:#111827;stroke-width:1.0;"/><line style="stroke:#111827;stroke-width:1.0;" x1="83.5" x2="83.5" y1="184.5425" y2="446.1343"/><line style="stroke:#111827;stroke-width:1.0;" x1="83.5" x2="304.625" y1="446.1343" y2="446.1343"/><polygon fill="#111827" points="294.625,442.1343,304.625,446.1343,294.625,450.1343,298.625,446.1343" style="stroke:#111827;stroke-width:1.0;"/><line style="stroke:#111827;stroke-width:1.0;" x1="549.75" x2="549.75" y1="428.1343" y2="446.1343"/><line style="stroke:#111827;stroke-width:1.0;" x1="549.75" x2="328.625" y1="446.1343" y2="446.1343"/><polygon fill="#111827" points="338.625,442.1343,328.625,446.1343,338.625,450.1343,334.625,446.1343" style="stroke:#111827;stroke-width:1.0;"/><line style="stroke:#111827;stroke-width:1.0;" x1="316.625" x2="316.625" y1="67.0986" y2="87.0986"/><polygon fill="#111827" points="312.625,77.0986,316.625,87.0986,320.625,77.0986,316.625,81.0986" style="stroke:#111827;stroke-width:1.0;"/><line style="stroke:#111827;stroke-width:1.0;" x1="316.625" x2="316.625" y1="458.1343" y2="478.1343"/><polygon fill="#111827" points="312.625,468.1343,316.625,478.1343,320.625,468.1343,316.625,472.1343" style="stroke:#111827;stroke-width:1.0;"/><line style="stroke:#111827;stroke-width:1.0;" x1="316.625" x2="316.625" y1="546.4302" y2="566.4302"/><polygon fill="#111827" points="312.625,556.4302,316.625,566.4302,320.625,556.4302,316.625,560.4302" style="stroke:#111827;stroke-width:1.0;"/><!--SRC=[ZLJ1RXen4BtlLuoI2nnQxTBI9aHL1IbLMxKH2iaD2HayPgrTR6HxGw7gt_GpSkF7EZOBSc0hrNjOU-RvpPknnqww4c5aTi-YKWlWQ65KChMjh6EAMwWKXw7POhKuk6zrMUBSIQrWGDuIRPBOGgeLCsm9Csqu6i9e0vTf6B6NpOk5qRIjHeYk_oA4pHdNQqcn12ijHfvwcr5e88j9EGfMbUwpLkwEBH4k-aQoyg8PCPPRXEnji_DVihziLcXAgOe8C1ms0HuL3nCyap_GFqUCSvzP9trf7yGrwuOHbrHfX_0h0HYSLWzJx8hqrINF-3M-yuYOwMfstMNTe_KXb_D2eRMGaUq-gcPAwuCspnAL8ikogyvxierFpkLth93HTNYIRjEiKeHnggxEirdT-M7iROVJ0_WasL8hVbuI59qGx028OnwpgPrDOSQEcRFiXqV-ewblZ5ut6kDKV9ayOP980QqVo6N1VElO5JNPH3rfarEReVhO1fUZWjOTIjLEYAhtNLht6fShjxb7PgdRFamKNOL0X_p6OyBDC7AHEre0V5NIqSqdcfD0mOl6EgJMtQzQusesVRoT8a6dQJPDtxJ9ZjJjdZH9a0uPMjzOqEAr-rU1j3cp-xF09kKrbfG_6AQiq6OP523boIippyNkEJUeRlOepwdqF8V_9zvhEbOen6giaYmBfTU7I9IK57vwjhzNq9nYlXGSjjMRwb_lxD6Rq1Dfe5_PKg90Gu_ZX5h9lvCXG-lqAlaB]--></g></svg>