<svg xmlns="http://www.w3.org/2000/svg" viewBox="0 0 811 907" zoomAndPan="magnify" contentStyleType="text/css" data-diagram-type="SEQUENCE" width="811px" preserveAspectRatio="none" xmlns:xlink="http://www.w3.org/1999/xlink" style="width:811px;height:907px;background:#F5F5F5;" version="1.1" height="907px">  <!-- ?plantuml 1.2026.7beta3? --><defs><linearGradient y1="0%" x1="50%" y2="100%" x2="50%" id="g103r18nc4ufdy0"><stop offset="0%" stop-color="#E0E5F0"></stop><stop offset="100%" stop-color="#D1D9E6"></stop></linearGradient></defs><g><a name="l8">​</a><rect x="0" width="811" y="0" style="stroke:none;stroke-width:1;" fill="#F5F5F5" height="907"></rect><g class="title" data-source-line="1"><text font-weight="700" lengthAdjust="spacing" x="270.9531" y="27.9951" font-size="14" textLength="262.2607" font-family="'Arial'" fill="#000000">Durchgeführte Abgabe schreiben</text><text font-weight="700" lengthAdjust="spacing" x="270.625" y="44.292" font-size="14" textLength="262.917" font-family="'Arial'" fill="#000000">Variante A: Zugriff mittels e-card</text></g><g><title>Apotheke</title><rect x="171.3628" width="10" y="144.8906" style="stroke:#181818;stroke-width:1;" fill="#0F9ED5" fill-opacity="0.56471" height="670.8672"></rect></g><g><title>e-Med FA</title><rect x="512.3574" width="10" y="637.0078" style="stroke:#181818;stroke-width:1;" fill="#E97232" fill-opacity="0.74118" height="155.75"></rect></g><rect rx="5" ry="5" x="21" width="642.3633" y="356.9688" style="stroke:#111827;stroke-width:2;" fill="none" height="450.7891"></rect><rect rx="5" ry="5" x="31" width="622.3633" y="412.6953" style="stroke:#111827;stroke-width:2;" fill="#0F9ED5" fill-opacity="0.14510" height="177.8828"></rect><path d="M31,461.4219 L653.3633,461.4219 L653.3633,585.5781 A5,5 0 0 1 648.3633,590.5781 L36,590.5781 A5,5 0 0 1 31,585.5781 L31,461.4219" style="stroke:none;stroke-width:1;" fill="#E97132" fill-opacity="0.20784"></path><rect rx="5" ry="5" x="130" width="491.7656" y="652.0078" style="stroke:#111827;stroke-width:2;" fill="#0F9ED5" fill-opacity="0.14510" height="148.75"></rect><path d="M130,753.3281 L621.7656,753.3281 L621.7656,795.7578 A5,5 0 0 1 616.7656,800.7578 L135,800.7578 A5,5 0 0 1 130,795.7578 L130,753.3281" style="stroke:none;stroke-width:1;" fill="#E97132" fill-opacity="0.20784"></path><g data-qualified-name="GDA_Apo" data-entity-uid="part1" id="part1-lifeline" class="participant-lifeline" data-source-line="51"><g><title>Apotheke</title><rect x="172.3628" width="8" y="134.8906" fill="#000000" fill-opacity="0.00000" height="689.8672"></rect><line y1="134.8906" x1="176" y2="824.7578" x2="176" style="stroke:#181818;stroke-width:0.5;stroke-dasharray:5,5;"></line></g></g><g data-qualified-name="eMed_FA" data-entity-uid="part2" id="part2-lifeline" class="participant-lifeline" data-source-line="52"><g><title>e-Med FA</title><rect x="513.3574" width="8" y="134.8906" fill="#000000" fill-opacity="0.00000" height="689.8672"></rect><line y1="134.8906" x1="516.6953" y2="824.7578" x2="516.6953" style="stroke:#181818;stroke-width:0.5;stroke-dasharray:5,5;"></line></g></g><g data-qualified-name="e_Rezept" data-entity-uid="part3" id="part3-lifeline" class="participant-lifeline" data-source-line="53"><g><title>e-Rezept</title><rect x="601.1914" width="8" y="134.8906" fill="#000000" fill-opacity="0.00000" height="689.8672"></rect><line y1="134.8906" x1="605.0195" y2="824.7578" x2="605.0195" style="stroke:#181818;stroke-width:0.5;stroke-dasharray:5,5;"></line></g></g><g data-qualified-name="GDA_Apo" data-entity-uid="part1" id="part1-head" class="participant participant-head" data-source-line="51"><text lengthAdjust="spacing" x="140" y="131.5889" font-size="14" textLength="66.7256" font-family="'Arial'" fill="#000000">Apotheke</text><ellipse cx="176.3628" cy="67.0938" rx="8" ry="8" style="stroke:#181818;stroke-width:0.5;" fill="#0F9ED5" fill-opacity="0.56471"></ellipse><path d="M176.3628,75.0938 L176.3628,102.0938 M163.3628,83.0938 L189.3628,83.0938 M176.3628,102.0938 L163.3628,117.0938 M176.3628,102.0938 L189.3628,117.0938" style="stroke:#181818;stroke-width:0.5;" fill="none"></path></g><g data-qualified-name="GDA_Apo" data-entity-uid="part1" id="part1-tail" class="participant participant-tail" data-source-line="51"><text lengthAdjust="spacing" x="140" y="836.7529" font-size="14" textLength="66.7256" font-family="'Arial'" fill="#000000">Apotheke</text><ellipse cx="176.3628" cy="848.5547" rx="8" ry="8" style="stroke:#181818;stroke-width:0.5;" fill="#0F9ED5" fill-opacity="0.56471"></ellipse><path d="M176.3628,856.5547 L176.3628,883.5547 M163.3628,864.5547 L189.3628,864.5547 M176.3628,883.5547 L163.3628,898.5547 M176.3628,883.5547 L189.3628,898.5547" style="stroke:#181818;stroke-width:0.5;" fill="none"></path></g><g data-qualified-name="eMed_FA" data-entity-uid="part2" id="part2-head" class="participant participant-head" data-source-line="52"><rect rx="5" ry="5" x="477.6953" width="79.3242" y="103.5938" style="stroke:#555555;stroke-width:0.5;" fill="#E97232" fill-opacity="0.74118" height="30.2969"></rect><text lengthAdjust="spacing" x="484.6953" y="123.5889" font-size="14" textLength="65.3242" font-family="'Arial'" fill="#000000">e-Med FA</text></g><g data-qualified-name="eMed_FA" data-entity-uid="part2" id="part2-tail" class="participant participant-tail" data-source-line="52"><rect rx="5" ry="5" x="477.6953" width="79.3242" y="823.7578" style="stroke:#555555;stroke-width:0.5;" fill="#E97232" fill-opacity="0.74118" height="30.2969"></rect><text lengthAdjust="spacing" x="484.6953" y="843.7529" font-size="14" textLength="65.3242" font-family="'Arial'" fill="#000000">e-Med FA</text></g><g data-qualified-name="e_Rezept" data-entity-uid="part3" id="part3-head" class="participant participant-head" data-source-line="53"><rect rx="5" ry="5" x="567.0195" width="76.3438" y="103.5938" style="stroke:#555555;stroke-width:0.5;" fill="#CD3732" fill-opacity="0.66275" height="30.2969"></rect><text lengthAdjust="spacing" x="574.0195" y="123.5889" font-size="14" textLength="62.3438" font-family="'Arial'" fill="#000000">e-Rezept</text></g><g data-qualified-name="e_Rezept" data-entity-uid="part3" id="part3-tail" class="participant participant-tail" data-source-line="53"><rect rx="5" ry="5" x="567.0195" width="76.3438" y="823.7578" style="stroke:#555555;stroke-width:0.5;" fill="#CD3732" fill-opacity="0.66275" height="30.2969"></rect><text lengthAdjust="spacing" x="574.0195" y="843.7529" font-size="14" textLength="62.3438" font-family="'Arial'" fill="#000000">e-Rezept</text></g><g><title>Apotheke</title><rect x="171.3628" width="10" y="144.8906" style="stroke:#181818;stroke-width:1;" fill="#0F9ED5" fill-opacity="0.56471" height="670.8672"></rect></g><g><title>e-Med FA</title><rect x="512.3574" width="10" y="637.0078" style="stroke:#181818;stroke-width:1;" fill="#E97232" fill-opacity="0.74118" height="155.75"></rect></g><rect rx="5" ry="5" x="0" width="805.167" y="166.0391" style="stroke:#EEEEEE;stroke-width:1;" fill="#EEEEEE" height="3"></rect><line y1="166.0391" x1="0" y2="166.0391" x2="805.167" style="stroke:#000000;stroke-width:1;"></line><line y1="169.0391" x1="0" y2="169.0391" x2="805.167" style="stroke:#000000;stroke-width:1;"></line><rect rx="5" ry="5" x="175.5723" width="454.0225" y="154.8906" style="stroke:#000000;stroke-width:2;" fill="#EEEEEE" height="24.2969"></rect><text font-weight="700" lengthAdjust="spacing" x="181.5723" y="171.8857" font-size="14" textLength="435.1484" font-family="'Arial'" fill="#000000">e-Rezept, Geplante Abgabe + Medikationsplan abrufen</text><rect rx="5" ry="5" x="137" width="423.0195" y="189.1875" style="stroke:#000000;stroke-width:1.5;" fill="none" height="42.5938"></rect><path d="M142,189.1875 L204,189.1875 L204,197.1875 L194,207.1875 L137,207.1875 L137,194.1875 A5,5 0 0 1 142,189.1875" style="stroke:#000000;stroke-width:2;" fill="#EEEEEE"></path><text font-weight="700" lengthAdjust="spacing" x="150" y="204.1826" font-size="14" textLength="22.4902" font-family="'Arial'" fill="#000000">ref</text><a xlink:type="simple" xlink:show="new" xlink:title="Sub_UC_eMed_07_01.html#sub_uc_emed_07_01_a-zugriff-mittels-e-card" href="Sub_UC_eMed_07_01.html#sub_uc_emed_07_01_a-zugriff-mittels-e-card" xlink:actuate="onRequest" title="Sub_UC_eMed_07_01.html#sub_uc_emed_07_01_a-zugriff-mittels-e-card" xlink:href="Sub_UC_eMed_07_01.html#sub_uc_emed_07_01_a-zugriff-mittels-e-card" target="_top"><text lengthAdjust="spacing" x="181.0737" y="224.1826" font-size="14" textLength="334.8721" font-family="'Arial'" fill="#0000EE">Geplante Abgaben lesen - Zugriff mittels e-card</text></a><rect rx="5" ry="5" x="0" width="805.167" y="257.9297" style="stroke:#EEEEEE;stroke-width:1;" fill="#EEEEEE" height="3"></rect><line y1="257.9297" x1="0" y2="257.9297" x2="805.167" style="stroke:#000000;stroke-width:1;"></line><line y1="260.9297" x1="0" y2="260.9297" x2="805.167" style="stroke:#000000;stroke-width:1;"></line><rect rx="5" ry="5" x="79.5" width="646.167" y="246.7813" style="stroke:#000000;stroke-width:2;" fill="#EEEEEE" height="24.2969"></rect><text font-weight="700" lengthAdjust="spacing" x="85.5" y="263.7764" font-size="14" textLength="622.4189" font-family="'Arial'" fill="#000000">e-Rezept aktualisieren und Durchgeführte Abgaben vorbereiten und schreiben</text><path d="M5,291.0781 L5,339.0781 A5,5 0 0 0 10,344.0781 L342,344.0781 A5,5 0 0 0 347,339.0781 L347,296.0781 L337,286.0781 L10,286.0781 A5,5 0 0 0 5,291.0781" style="stroke:#8B95A5;stroke-width:1;" fill="url(#g103r18nc4ufdy0)"></path><path d="M337,286.0781 L337,293.5781 A2.5,2.5 0 0 0 339.5,296.0781 L347,296.0781 L337,286.0781" style="stroke:#8B95A5;stroke-width:1;" fill="url(#g103r18nc4ufdy0)"></path><text lengthAdjust="spacing" x="11" y="304.0732" font-size="14" textLength="168.7656" font-family="'Arial'" font-style="italic" fill="#111827">Durchgeführte Abgaben</text><text lengthAdjust="spacing" x="184.2158" y="304.0732" font-size="14" textLength="61.0313" font-family="'Arial'" fill="#111827">erstellen</text><text lengthAdjust="spacing" x="11" y="320.3701" font-size="14" textLength="182.4648" font-family="'Arial'" fill="#111827">(referenzieren zugehörige</text><text lengthAdjust="spacing" x="197.915" y="320.3701" font-size="14" textLength="130.5459" font-family="'Arial'" font-style="italic" fill="#111827">Geplante Abgaben</text><text lengthAdjust="spacing" x="328.4609" y="320.3701" font-size="14" textLength="4.4502" font-family="'Arial'" fill="#111827">&nbsp;</text><text lengthAdjust="spacing" x="11" y="336.667" font-size="14" textLength="26.6328" font-family="'Arial'" fill="#111827">und</text><text lengthAdjust="spacing" x="42.083" y="336.667" font-size="14" textLength="173.1953" font-family="'Arial'" font-style="italic" fill="#111827">Medikationsplaneinträge</text><text lengthAdjust="spacing" x="215.2783" y="336.667" font-size="14" textLength="5.4619" font-family="'Arial'" fill="#111827">)</text><path d="M26,356.9688 L92.373,356.9688 L92.373,365.2656 L82.373,375.2656 L21,375.2656 L21,361.9688 A5,5 0 0 1 26,356.9688" style="stroke:#111827;stroke-width:1.5;" fill="#EEF2FF"></path><rect rx="5" ry="5" x="21" width="642.3633" y="356.9688" style="stroke:#111827;stroke-width:2;" fill="none" height="450.7891"></rect><text font-weight="700" lengthAdjust="spacing" x="36" y="370.9639" font-size="14" textLength="26.373" font-family="'Arial'" fill="#000000">par</text><text font-weight="700" lengthAdjust="spacing" x="107.373" y="371.9639" font-size="14" textLength="202.9453" font-family="'Arial'" fill="#000000">[Aktualisierung e-Rezept]</text><g data-entity-2="part3" data-entity-1="part1" id="msg1" class="message" data-source-line="73"><polygon style="stroke:#111827;stroke-width:1;stroke-linejoin:miter;stroke-miterlimit:10;" fill="#111827" points="593.1914,393.6953,603.1914,397.6953,593.1914,401.6953,597.1914,397.6953"></polygon><line y1="397.6953" x1="181.3628" y2="397.6953" x2="599.1914" style="stroke:#111827;stroke-width:1;"></line><text font-weight="700" lengthAdjust="spacing" x="188.3628" y="392.6294" font-size="13" textLength="9.0454" font-family="'Arial'" fill="#000000">1</text><text lengthAdjust="spacing" x="201.4082" y="392.6294" font-size="13" textLength="196.8853" font-family="'Arial'" fill="#000000">Trigger e-Rezept aktualisieren</text></g><path d="M36,412.6953 L96.9385,412.6953 L96.9385,420.9922 L86.9385,430.9922 L31,430.9922 L31,417.6953 A5,5 0 0 1 36,412.6953" style="stroke:#111827;stroke-width:1.5;" fill="#EEF2FF"></path><rect rx="5" ry="5" x="31" width="622.3633" y="412.6953" style="stroke:#111827;stroke-width:2;" fill="none" height="177.8828"></rect><text font-weight="700" lengthAdjust="spacing" x="46" y="426.6904" font-size="14" textLength="20.9385" font-family="'Arial'" fill="#000000">alt</text><text font-weight="700" lengthAdjust="spacing" x="111.9385" y="427.6904" font-size="14" textLength="178.2949" font-family="'Arial'" fill="#000000">[e-Rezept aktualisiert]</text><g data-entity-2="part1" data-entity-1="part3" id="msg2" class="message" data-source-line="76"><polygon style="stroke:#111827;stroke-width:1;stroke-linejoin:miter;stroke-miterlimit:10;" fill="#111827" points="192.3628,449.4219,182.3628,453.4219,192.3628,457.4219,188.3628,453.4219"></polygon><line y1="453.4219" x1="186.3628" y2="453.4219" x2="604.1914" style="stroke:#111827;stroke-width:1;stroke-dasharray:2,2;"></line><text font-weight="700" lengthAdjust="spacing" x="198.3628" y="448.356" font-size="13" textLength="9.0454" font-family="'Arial'" fill="#000000">2</text><text lengthAdjust="spacing" x="211.4082" y="448.356" font-size="13" textLength="18.7573" font-family="'Arial'" fill="#000000">OK</text></g><line y1="462.4219" x1="31" y2="462.4219" x2="653.3633" style="stroke:#111827;stroke-width:1;stroke-dasharray:2,2;"></line><text font-weight="700" lengthAdjust="spacing" x="36" y="475.417" font-size="14" textLength="137.833" font-family="'Arial'" fill="#000000">[e-Rezept Fehler]</text><g data-entity-2="part1" data-entity-1="part3" id="msg3" class="message" data-source-line="79"><polygon style="stroke:#111827;stroke-width:1;stroke-linejoin:miter;stroke-miterlimit:10;" fill="#111827" points="192.3628,496.8516,182.3628,500.8516,192.3628,504.8516,188.3628,500.8516"></polygon><line y1="500.8516" x1="186.3628" y2="500.8516" x2="604.1914" style="stroke:#111827;stroke-width:1;stroke-dasharray:2,2;"></line><text font-weight="700" lengthAdjust="spacing" x="198.3628" y="495.7856" font-size="13" textLength="9.0454" font-family="'Arial'" fill="#000000">3</text><text lengthAdjust="spacing" x="211.4082" y="495.7856" font-size="13" textLength="40.6694" font-family="'Arial'" fill="#000000">Fehler</text></g><g data-entity-2="part2" data-entity-1="part1" id="msg4" class="message" data-source-line="82"><polygon style="stroke:#111827;stroke-width:1;stroke-linejoin:miter;stroke-miterlimit:10;" fill="#111827" points="505.3574,525.9844,515.3574,529.9844,505.3574,533.9844,509.3574,529.9844"></polygon><line y1="529.9844" x1="181.3628" y2="529.9844" x2="511.3574" style="stroke:#111827;stroke-width:1;"></line><text font-weight="700" lengthAdjust="spacing" x="188.3628" y="524.9185" font-size="13" textLength="9.0454" font-family="'Arial'" fill="#000000">4</text><text lengthAdjust="spacing" x="201.4082" y="524.9185" font-size="13" textLength="156.603" font-family="'Arial'" fill="#000000">POST $dispense-discard​</text></g><path d="M41,547.9844 L41,579.9844 A5,5 0 0 0 46,584.9844 L305,584.9844 A5,5 0 0 0 310,579.9844 L310,552.9844 L300,542.9844 L46,542.9844 A5,5 0 0 0 41,547.9844" style="stroke:#8B95A5;stroke-width:1;" fill="url(#g103r18nc4ufdy0)"></path><path d="M300,542.9844 L300,550.4844 A2.5,2.5 0 0 0 302.5,552.9844 L310,552.9844 L300,542.9844" style="stroke:#8B95A5;stroke-width:1;" fill="url(#g103r18nc4ufdy0)"></path><text lengthAdjust="spacing" x="47" y="560.9795" font-size="14" textLength="108.1924" font-family="'Arial'" fill="#111827">Siehe Use Case</text><text lengthAdjust="spacing" x="47" y="577.2764" font-size="14" textLength="6.4395" font-family="'Arial'" fill="#111827">"</text><text lengthAdjust="spacing" x="53.4395" y="577.2764" font-size="14" textLength="159.8926" font-family="'Arial'" font-style="italic" fill="#111827">Durchgeführte Abgabe</text><text lengthAdjust="spacing" x="217.7822" y="577.2764" font-size="14" textLength="77.3281" font-family="'Arial'" fill="#111827">verwerfen"</text><line y1="598.5781" x1="21" y2="598.5781" x2="663.3633" style="stroke:#111827;stroke-width:1;stroke-dasharray:2,2;"></line><text font-weight="700" lengthAdjust="spacing" x="26" y="611.5732" font-size="14" textLength="192.6436" font-family="'Arial'" fill="#000000">[gleichzeitige Erstellung</text><text font-weight="700" lengthAdjust="spacing" x="223.5176" y="611.5732" font-size="14" textLength="190.0732" font-family="'Arial'" font-style="italic" fill="#000000">Durchgeführte Abgaben</text><text font-weight="700" lengthAdjust="spacing" x="413.5908" y="611.5732" font-size="14" textLength="6.3984" font-family="'Arial'" fill="#000000">]</text><g data-entity-2="part2" data-entity-1="part1" id="msg5" class="message" data-source-line="94"><polygon style="stroke:#111827;stroke-width:1;stroke-linejoin:miter;stroke-miterlimit:10;" fill="#111827" points="500.3574,633.0078,510.3574,637.0078,500.3574,641.0078,504.3574,637.0078"></polygon><line y1="637.0078" x1="181.3628" y2="637.0078" x2="506.3574" style="stroke:#111827;stroke-width:1;"></line><text font-weight="700" lengthAdjust="spacing" x="188.3628" y="631.9419" font-size="13" textLength="9.0454" font-family="'Arial'" fill="#000000">5</text><text lengthAdjust="spacing" x="201.4082" y="631.9419" font-size="13" textLength="298.9492" font-family="'Arial'" fill="#000000">POST Transaction Bundle MedicationDispense</text></g><path d="M135,652.0078 L195.9385,652.0078 L195.9385,660.3047 L185.9385,670.3047 L130,670.3047 L130,657.0078 A5,5 0 0 1 135,652.0078" style="stroke:#111827;stroke-width:1.5;" fill="#EEF2FF"></path><rect rx="5" ry="5" x="130" width="491.7656" y="652.0078" style="stroke:#111827;stroke-width:2;" fill="none" height="148.75"></rect><text font-weight="700" lengthAdjust="spacing" x="145" y="666.0029" font-size="14" textLength="20.9385" font-family="'Arial'" fill="#000000">alt</text><text font-weight="700" lengthAdjust="spacing" x="210.9385" y="667.0029" font-size="14" textLength="264.9541" font-family="'Arial'" fill="#000000">[Durchgeführte Abgaben erstellt]</text><path d="M422,681.6016 L422,713.6016 A5,5 0 0 0 427,718.6016 L606,718.6016 A5,5 0 0 0 611,713.6016 L611,686.6016 L601,676.6016 L427,676.6016 A5,5 0 0 0 422,681.6016" style="stroke:#8B95A5;stroke-width:1;" fill="url(#g103r18nc4ufdy0)"></path><path d="M601,676.6016 L601,684.1016 A2.5,2.5 0 0 0 603.5,686.6016 L611,686.6016 L601,676.6016" style="stroke:#8B95A5;stroke-width:1;" fill="url(#g103r18nc4ufdy0)"></path><text lengthAdjust="spacing" x="428" y="694.5967" font-size="14" textLength="168.7656" font-family="'Arial'" font-style="italic" fill="#111827">Durchgeführte Abgaben</text><text lengthAdjust="spacing" x="428" y="710.8936" font-size="14" textLength="82.6123" font-family="'Arial'" fill="#111827">gespeichert</text><g data-entity-2="part1" data-entity-1="part2" id="msg6" class="message" data-source-line="104"><polygon style="stroke:#111827;stroke-width:1;stroke-linejoin:miter;stroke-miterlimit:10;" fill="#111827" points="192.3628,741.3281,182.3628,745.3281,192.3628,749.3281,188.3628,745.3281"></polygon><line y1="745.3281" x1="186.3628" y2="745.3281" x2="511.3574" style="stroke:#111827;stroke-width:1;stroke-dasharray:2,2;"></line><text font-weight="700" lengthAdjust="spacing" x="198.3628" y="740.2622" font-size="13" textLength="9.0454" font-family="'Arial'" fill="#000000">6</text><text lengthAdjust="spacing" x="211.4082" y="740.2622" font-size="13" textLength="18.7573" font-family="'Arial'" fill="#000000">OK</text></g><line y1="754.3281" x1="130" y2="754.3281" x2="621.7656" style="stroke:#111827;stroke-width:1;stroke-dasharray:2,2;"></line><text font-weight="700" lengthAdjust="spacing" x="135" y="767.3232" font-size="14" textLength="372.5723" font-family="'Arial'" fill="#000000">[Fehler bei Erstellung Durchgeführte Abgaben]</text><g data-entity-2="part1" data-entity-1="part2" id="msg7" class="message" data-source-line="107"><polygon style="stroke:#111827;stroke-width:1;stroke-linejoin:miter;stroke-miterlimit:10;" fill="#111827" points="192.3628,788.7578,182.3628,792.7578,192.3628,796.7578,188.3628,792.7578"></polygon><line y1="792.7578" x1="186.3628" y2="792.7578" x2="516.3574" style="stroke:#111827;stroke-width:1;stroke-dasharray:2,2;"></line><text font-weight="700" lengthAdjust="spacing" x="198.3628" y="787.6919" font-size="13" textLength="9.0454" font-family="'Arial'" fill="#000000">7</text><text lengthAdjust="spacing" x="211.4082" y="787.6919" font-size="13" textLength="40.6694" font-family="'Arial'" fill="#000000">Fehler</text></g>  <!-- ?plantuml-src VLPHR-9647xthvX2fRRgqThc226wH2A1fDNr3WIa3tSzeSKUunLcJTVhv2wdIdtlt-Xlw5FVya_wIpgxDiOsvWonx9blP-UR-NQ8uYf26ANI2zSOFFyRIeKmNAtP2Y7nGebyXU8tyIkJd0djke1twLho880jLmgZ1B3ZCUbRrZV9XeiTasmBp5EndAjF59ezOX9lqR8EtbKiVPGtSHHBQDlcAdkPjrdBE1L-ZWXw-bD2927puqSkrX2mAC6I9ryc1Kfmoa5z35WQgTjOgBTiYz0Q4f-erOoOyoS4vsMpyrJQFttQeOous9G0up4q8Uw5RnxmAF_h-EEK-RwcvjfL-tMvQ3rpbMigOchEPmlWkbu-jB4Ns9ssx_W3FDE8SgJprQ37UeLr4N9l8p19m27Rh5HEczxtkUaefLeuZdFkziashpNcZtA62VwUel2oBATCAkxn7McgYLW5S5pr8_U-OnL7gP80GodZntg-nbYbR4nDEnQERAykcUwepBjA-aNap7NK2WpS8AYkF6plwdfzHLBJohYP_3APBUz6mwK3TBMTtfbzxfxR3G3N00PdPtP_T0IO3XS_ZzykT8J1sRNxyWWmd4x0N6txTZ0UzGPrmFZDUBIy7H801tstwwxyEc0v6xyRJnVGzlnkl-koGPt6v3LKzd1xzH2psMHc0ED1t-cwNTAscI6W2GvtCR24pkmkLY5ki7L8tTeT-Wtu1dsTgSPYXrxWTjYgigZYbpDymftA5sGlhHehIYHLiKYtAvGcAVx0wAZjypeKqRgyX7sG5t27koWRcDai_Hue7xvXYiSYqIvWAva6AE3oqY95I0mWVi22y8k2pGMyVpzFLylxcwKnsVsbxVmGgctKJiYSUalSxirBrddAfdCddywTR3hNyn4GOKBtpebf_k63LUO3RADI5l64ewHLfEZcdmm13x6aGY5NEQpu3G53r8ofCa_h5Rzg3lNgHtu5A1FAAjBBhM-fHdhxfom98ehXyp-Ihn4eI9sWMMxf5CXPgproeUJptslKeEyi991EpBAqF61uu9hI-DZNG7Tft_NELI6U2rXG2cjYr5miMaLV5gd3MMW2AalBlr1aXtR8Dxk0oMkzDpMdUboACBSOHYJEqm4o01Y4ZuM6zs0hyvJ9PTgxWEbale2lVPxiK2JOeGUjZl_-_CkiCBVZbchhd6E8SAzJPdGpjjQfNfjUKOH7b7GYMXcJVLFCesLb6veYh2FaNlX48jEz7sSIqQtwefRg_QjGN4Wc4bsOMC0rYOR-ST6QyOncHZbztSUYTldfh4wNUgTF799SrSgg5J0FQgnVvg8HQwIqg125U0ePcxSymPgIe55AkK1MoClbRDx_TFHJCijPvPsal_y1? --></g></svg>