<?xml version="1.0" encoding="us-ascii" standalone="no"?><svg xmlns="http://www.w3.org/2000/svg" xmlns:xlink="http://www.w3.org/1999/xlink" contentStyleType="text/css" height="1559px" preserveAspectRatio="none" style="width:1133px;height:1559px;background:#F5F5F5;" version="1.1" viewBox="0 0 1133 1559" width="1133px" zoomAndPan="magnify"><defs><linearGradient id="g1qwv9m6w3joez0" x1="50%" x2="50%" y1="0%" y2="100%"><stop offset="0%" stop-color="#E0E5F0"/><stop offset="100%" stop-color="#D1D9E6"/></linearGradient></defs><g><rect fill="#F5F5F5" height="1559" style="stroke:none;stroke-width:1.0;" width="1133" x="0" y="0"/><text fill="#000000" font-family="Arial" font-size="14" font-weight="bold" lengthAdjust="spacing" textLength="215" x="460.5" y="28.1318">Patient Journey - e-Medikation</text><rect fill="#96607D" fill-opacity="0.18824" height="323.1343" rx="5" ry="5" style="stroke:#111827;stroke-width:2.0;" width="1118" x="9" y="135.1973"/><rect fill="#0F9ED5" fill-opacity="0.18824" height="323.1343" rx="5" ry="5" style="stroke:#111827;stroke-width:2.0;" width="1113" x="14" y="472.3315"/><rect fill="#0F9ED5" fill-opacity="0.18824" height="278.0869" rx="5" ry="5" style="stroke:#111827;stroke-width:2.0;" width="1107" x="20" y="809.4658"/><rect fill="#196B24" fill-opacity="0.18824" height="144.1934" rx="5" ry="5" style="stroke:#111827;stroke-width:2.0;" width="1107" x="20" y="1101.5527"/><rect fill="#96607D" fill-opacity="0.18824" height="202.0908" rx="5" ry="5" style="stroke:#111827;stroke-width:2.0;" width="1111" x="16" y="1259.7461"/><line style="stroke:#181818;stroke-width:0.5;stroke-dasharray:5.0,5.0;" x1="128" x2="128" y1="118.1973" y2="1478.8369"/><line style="stroke:#181818;stroke-width:0.5;stroke-dasharray:5.0,5.0;" x1="338" x2="338" y1="118.1973" y2="1478.8369"/><line style="stroke:#181818;stroke-width:0.5;stroke-dasharray:5.0,5.0;" x1="452" x2="452" y1="118.1973" y2="1478.8369"/><line style="stroke:#181818;stroke-width:0.5;stroke-dasharray:5.0,5.0;" x1="590" x2="590" y1="118.1973" y2="1478.8369"/><line style="stroke:#181818;stroke-width:0.5;stroke-dasharray:5.0,5.0;" x1="735" x2="735" y1="118.1973" y2="1478.8369"/><line style="stroke:#181818;stroke-width:0.5;stroke-dasharray:5.0,5.0;" x1="1049" x2="1049" y1="118.1973" y2="1478.8369"/><text fill="#000000" font-family="Arial" font-size="14" lengthAdjust="spacing" textLength="107" x="72" y="115.2305">Max Mustermann</text><ellipse cx="128.5" cy="50.5986" fill="#196B24" fill-opacity="0.50196" rx="8" ry="8" style="stroke:#181818;stroke-width:0.5;"/><path d="M128.5,58.5986 L128.5,85.5986 M115.5,66.5986 L141.5,66.5986 M128.5,85.5986 L115.5,100.5986 M128.5,85.5986 L141.5,100.5986 " fill="none" style="stroke:#181818;stroke-width:0.5;"/><text fill="#000000" font-family="Arial" font-size="14" lengthAdjust="spacing" textLength="107" x="72" y="1490.9688">Max Mustermann</text><ellipse cx="128.5" cy="1502.4355" fill="#196B24" fill-opacity="0.50196" rx="8" ry="8" style="stroke:#181818;stroke-width:0.5;"/><path d="M128.5,1510.4355 L128.5,1537.4355 M115.5,1518.4355 L141.5,1518.4355 M128.5,1537.4355 L115.5,1552.4355 M128.5,1537.4355 L141.5,1552.4355 " fill="none" style="stroke:#181818;stroke-width:0.5;"/><text fill="#000000" font-family="Arial" font-size="14" lengthAdjust="spacing" textLength="89" x="291" y="115.2305">Dr. Haus&#228;rztin</text><ellipse cx="338.5" cy="50.5986" fill="#156082" fill-opacity="0.50196" rx="8" ry="8" style="stroke:#181818;stroke-width:0.5;"/><path d="M338.5,58.5986 L338.5,85.5986 M325.5,66.5986 L351.5,66.5986 M338.5,85.5986 L325.5,100.5986 M338.5,85.5986 L351.5,100.5986 " fill="none" style="stroke:#181818;stroke-width:0.5;"/><text fill="#000000" font-family="Arial" font-size="14" lengthAdjust="spacing" textLength="89" x="291" y="1490.9688">Dr. Haus&#228;rztin</text><ellipse cx="338.5" cy="1502.4355" fill="#156082" fill-opacity="0.50196" rx="8" ry="8" style="stroke:#181818;stroke-width:0.5;"/><path d="M338.5,1510.4355 L338.5,1537.4355 M325.5,1518.4355 L351.5,1518.4355 M338.5,1537.4355 L325.5,1552.4355 M338.5,1537.4355 L351.5,1552.4355 " fill="none" style="stroke:#181818;stroke-width:0.5;"/><text fill="#000000" font-family="Arial" font-size="14" lengthAdjust="spacing" textLength="107" x="396" y="115.2305">Dr. Krankenhaus</text><ellipse cx="452.5" cy="50.5986" fill="#96607D" fill-opacity="0.50196" rx="8" ry="8" style="stroke:#181818;stroke-width:0.5;"/><path d="M452.5,58.5986 L452.5,85.5986 M439.5,66.5986 L465.5,66.5986 M452.5,85.5986 L439.5,100.5986 M452.5,85.5986 L465.5,100.5986 " fill="none" style="stroke:#181818;stroke-width:0.5;"/><text fill="#000000" font-family="Arial" font-size="14" lengthAdjust="spacing" textLength="107" x="396" y="1490.9688">Dr. Krankenhaus</text><ellipse cx="452.5" cy="1502.4355" fill="#96607D" fill-opacity="0.50196" rx="8" ry="8" style="stroke:#181818;stroke-width:0.5;"/><path d="M452.5,1510.4355 L452.5,1537.4355 M439.5,1518.4355 L465.5,1518.4355 M452.5,1537.4355 L439.5,1552.4355 M452.5,1537.4355 L465.5,1552.4355 " fill="none" style="stroke:#181818;stroke-width:0.5;"/><text fill="#000000" font-family="Arial" font-size="14" lengthAdjust="spacing" textLength="136" x="519" y="115.2305">Dr. Urlaubsvertretung</text><ellipse cx="590" cy="50.5986" fill="#BEAF3C" fill-opacity="0.50196" rx="8" ry="8" style="stroke:#181818;stroke-width:0.5;"/><path d="M590,58.5986 L590,85.5986 M577,66.5986 L603,66.5986 M590,85.5986 L577,100.5986 M590,85.5986 L603,100.5986 " fill="none" style="stroke:#181818;stroke-width:0.5;"/><text fill="#000000" font-family="Arial" font-size="14" lengthAdjust="spacing" textLength="136" x="519" y="1490.9688">Dr. Urlaubsvertretung</text><ellipse cx="590" cy="1502.4355" fill="#BEAF3C" fill-opacity="0.50196" rx="8" ry="8" style="stroke:#181818;stroke-width:0.5;"/><path d="M590,1510.4355 L590,1537.4355 M577,1518.4355 L603,1518.4355 M590,1537.4355 L577,1552.4355 M590,1537.4355 L603,1552.4355 " fill="none" style="stroke:#181818;stroke-width:0.5;"/><text fill="#000000" font-family="Arial" font-size="14" lengthAdjust="spacing" textLength="123" x="671" y="115.2305">Amadeus Apotheke</text><ellipse cx="735.5" cy="50.5986" fill="#0F9ED5" fill-opacity="0.56471" rx="8" ry="8" style="stroke:#181818;stroke-width:0.5;"/><path d="M735.5,58.5986 L735.5,85.5986 M722.5,66.5986 L748.5,66.5986 M735.5,85.5986 L722.5,100.5986 M735.5,85.5986 L748.5,100.5986 " fill="none" style="stroke:#181818;stroke-width:0.5;"/><text fill="#000000" font-family="Arial" font-size="14" lengthAdjust="spacing" textLength="123" x="671" y="1490.9688">Amadeus Apotheke</text><ellipse cx="735.5" cy="1502.4355" fill="#0F9ED5" fill-opacity="0.56471" rx="8" ry="8" style="stroke:#181818;stroke-width:0.5;"/><path d="M735.5,1510.4355 L735.5,1537.4355 M722.5,1518.4355 L748.5,1518.4355 M735.5,1537.4355 L722.5,1552.4355 M735.5,1537.4355 L748.5,1552.4355 " fill="none" style="stroke:#181818;stroke-width:0.5;"/><rect fill="#E97232" fill-opacity="0.74118" height="30.0986" rx="5" ry="5" style="stroke:#555555;stroke-width:0.5;" width="95" x="1002" y="87.0986"/><text fill="#000000" font-family="Arial" font-size="14" lengthAdjust="spacing" textLength="81" x="1009" y="107.2305">e-Medikation</text><rect fill="#E97232" fill-opacity="0.74118" height="30.0986" rx="5" ry="5" style="stroke:#555555;stroke-width:0.5;" width="95" x="1002" y="1477.8369"/><text fill="#000000" font-family="Arial" font-size="14" lengthAdjust="spacing" textLength="81" x="1009" y="1497.9688">e-Medikation</text><path d="M14,135.1973 L210,135.1973 L210,143.2959 L200,153.2959 L9,153.2959 L9,140.1973 A5,5 0 0 1 14,135.1973 " fill="#EEF2FF" style="stroke:#111827;stroke-width:1.5;"/><rect fill="none" height="323.1343" rx="5" ry="5" style="stroke:#111827;stroke-width:2.0;" width="1118" x="9" y="135.1973"/><text fill="#000000" font-family="Arial" font-size="14" font-weight="bold" lengthAdjust="spacing" textLength="156" x="24" y="149.3291">27.2.2026 &#183; Arztbesuch</text><polygon fill="#111827" points="326.5,171.2959,336.5,175.2959,326.5,179.2959,330.5,175.2959" style="stroke:#111827;stroke-width:1.0;"/><line style="stroke:#111827;stroke-width:1.0;" x1="128.5" x2="332.5" y1="175.2959" y2="175.2959"/><text fill="#000000" font-family="Arial" font-size="13" font-weight="bold" lengthAdjust="spacing" textLength="7" x="135.5" y="170.0154">1</text><text fill="#000000" font-family="Arial" font-size="13" lengthAdjust="spacing" textLength="66" x="146.5" y="170.541">Arztbesuch</text><path d="M228.5,172.2959 A7,7 0 1 1 228.5,158.2959 A7,7 0 0 1 228.5,172.2959 M228.5,173.2959 A8,8 0 1 0 228.5,157.2959 A8,8 0 0 0 228.5,173.2959 " fill="#111827" style="stroke:;stroke-width:0.0;stroke-dasharray:;"/><path d="M224.5,167.7959 A0.5,0.5 0 0 1 225,167.2959 L232,167.2959 A0.5,0.5 0 0 1 232,168.2959 L225,168.2959 A0.5,0.5 0 0 1 224.5,167.7959 M224.5,163.7959 A0.5,0.5 0 0 1 225,163.2959 L227,163.2959 A0.5,0.5 0 0 1 227,164.2959 L225,164.2959 A0.5,0.5 0 0 1 224.5,163.7959 M229.5,163.7959 A0.5,0.5 0 0 1 230,163.2959 L232,163.2959 A0.5,0.5 0 0 1 232,164.2959 L230,164.2959 A0.5,0.5 0 0 1 229.5,163.7959 " fill="#111827" style="stroke:;stroke-width:0.0;stroke-dasharray:;"/><path d="M19,193.2959 L19,257.2959 A5,5 0 0 0 24,262.2959 L232,262.2959 A5,5 0 0 0 237,257.2959 L237,198.2959 L227,188.2959 L24,188.2959 A5,5 0 0 0 19,193.2959 " fill="url(#g1qwv9m6w3joez0)" style="stroke:#8B95A5;stroke-width:1.0;"/><path d="M227,188.2959 L227,195.7959 A2.5,2.5 0 0 0 229.5,198.2959 L237,198.2959 L227,188.2959 " fill="url(#g1qwv9m6w3joez0)" style="stroke:#8B95A5;stroke-width:1.0;"/><text fill="#111827" font-family="Arial" font-size="14" lengthAdjust="spacing" textLength="154" x="25" y="206.4277">Herr Mustermann kommt</text><text fill="#111827" font-family="Arial" font-size="14" lengthAdjust="spacing" textLength="158" x="25" y="222.5264">mit Symptomen zur &#196;rztin</text><text fill="#111827" font-family="Arial" font-size="14" lengthAdjust="spacing" textLength="131" x="25" y="238.625">und erh&#228;lt Ramipril +</text><text fill="#111827" font-family="Arial" font-size="14" lengthAdjust="spacing" textLength="197" x="25" y="254.7236">Dexpanthenol-Salbe verordnet.</text><polygon fill="#111827" points="1037.5,284.6392,1047.5,288.6392,1037.5,292.6392,1041.5,288.6392" style="stroke:#111827;stroke-width:1.0;"/><line style="stroke:#111827;stroke-width:1.0;" x1="338.5" x2="1043.5" y1="288.6392" y2="288.6392"/><text fill="#000000" font-family="Arial" font-size="13" font-weight="bold" lengthAdjust="spacing" textLength="7" x="345.5" y="283.8843">2</text><text fill="#000000" font-family="Arial" font-size="13" lengthAdjust="spacing" textLength="120" x="356.5" y="283.8843">e-Medikation abrufen</text><polygon fill="#111827" points="349.5,314.6392,339.5,318.6392,349.5,322.6392,345.5,318.6392" style="stroke:#111827;stroke-width:1.0;"/><line style="stroke:#111827;stroke-width:1.0;" x1="343.5" x2="1048.5" y1="318.6392" y2="318.6392"/><text fill="#000000" font-family="Arial" font-size="13" font-weight="bold" lengthAdjust="spacing" textLength="7" x="355.5" y="313.3586">3</text><path d="M374,306.1392 A0.5,0.5 0 0 0 373,306.1392 L373,306.7732 L372.451,306.4562 A0.5,0.5 0 1 0 371.951,307.3222 L372.5,307.6392 L371.951,307.9562 A0.5,0.5 0 1 0 372.451,308.8222 L373,308.5052 L373,309.1392 A0.5,0.5 0 1 0 374,309.1392 L374,308.5052 L374.549,308.8222 A0.5,0.5 0 1 0 375.049,307.9562 L374.5,307.6392 L375.049,307.3222 A0.5,0.5 0 1 0 374.549,306.4562 L374,306.7732 M372,310.6392 A0.5,0.5 0 0 0 372,311.6392 L377,311.6392 A0.5,0.5 0 0 0 377,310.6392 M372,312.6392 A0.5,0.5 0 0 0 372,313.6392 L377,313.6392 A0.5,0.5 0 0 0 377,312.6392 " fill="#111827" style="stroke:;stroke-width:0.0;stroke-dasharray:;"/><path d="M380.5,314.6392 L380.5,305.1392 L376,300.6392 L370.5,300.6392 A2,2 0 0 0 368.5,302.6392 L368.5,314.6392 A2,2 0 0 0 370.5,316.6392 L378.5,316.6392 A2,2 0 0 0 380.5,314.6392 M376,303.6392 A1.5,1.5 0 0 0 377.5,305.1392 L379.5,305.1392 L379.5,314.6392 A1,1 0 0 1 378.5,315.6392 L370.5,315.6392 A1,1 0 0 1 369.5,314.6392 L369.5,302.6392 A1,1 0 0 1 370.5,301.6392 L376,301.6392 " fill="#111827" style="stroke:;stroke-width:0.0;stroke-dasharray:;"/><text fill="#000000" font-family="Arial" font-size="13" lengthAdjust="spacing" textLength="130" x="386.5" y="313.8843">leerer Medikationsplan</text><polygon fill="#111827" points="1037.5,373.4854,1047.5,377.4854,1037.5,381.4854,1041.5,377.4854" style="stroke:#111827;stroke-width:1.0;"/><line style="stroke:#111827;stroke-width:1.0;" x1="338.5" x2="1043.5" y1="377.4854" y2="377.4854"/><text fill="#000000" font-family="Arial" font-size="13" font-weight="bold" lengthAdjust="spacing" textLength="7" x="345.5" y="357.7817">4</text><text fill="#000000" font-family="Arial" font-size="13" lengthAdjust="spacing" textLength="157" x="356.5" y="342.833">Neuen Medikationsplan mit</text><text fill="#000000" font-family="Arial" font-size="13" lengthAdjust="spacing" textLength="179" x="356.5" y="357.7817">Ramipril + Dexpanthenol-Salbe</text><text fill="#000000" font-family="Arial" font-size="13" lengthAdjust="spacing" textLength="56" x="356.5" y="372.7305">speichern</text><polygon fill="#111827" points="1037.5,417.3828,1047.5,421.3828,1037.5,425.3828,1041.5,421.3828" style="stroke:#111827;stroke-width:1.0;"/><line style="stroke:#111827;stroke-width:1.0;" x1="338.5" x2="1043.5" y1="421.3828" y2="421.3828"/><text fill="#000000" font-family="Arial" font-size="13" font-weight="bold" lengthAdjust="spacing" textLength="7" x="345.5" y="409.1536">5</text><text fill="#000000" font-family="Arial" font-size="13" lengthAdjust="spacing" textLength="160" x="356.5" y="401.6792">Geplante Abgaben erstellen</text><text fill="#000000" font-family="Arial" font-size="13" lengthAdjust="spacing" textLength="187" x="356.5" y="416.6279">(Ramipril + Dexpanthenol-Salbe)</text><polygon fill="#111827" points="139.5,446.3315,129.5,450.3315,139.5,454.3315,135.5,450.3315" style="stroke:#111827;stroke-width:1.0;"/><line style="stroke:#111827;stroke-width:1.0;" x1="133.5" x2="337.5" y1="450.3315" y2="450.3315"/><text fill="#000000" font-family="Arial" font-size="13" font-weight="bold" lengthAdjust="spacing" textLength="7" x="145.5" y="445.5767">6</text><text fill="#000000" font-family="Arial" font-size="13" lengthAdjust="spacing" textLength="175" x="156.5" y="445.5767">Rezept aush&#228;ndigen (optional)</text><path d="M19,472.3315 L441,472.3315 L441,480.4302 L431,490.4302 L14,490.4302 L14,477.3315 A5,5 0 0 1 19,472.3315 " fill="#EEF2FF" style="stroke:#111827;stroke-width:1.5;"/><rect fill="none" height="323.1343" rx="5" ry="5" style="stroke:#111827;stroke-width:2.0;" width="1113" x="14" y="472.3315"/><text fill="#000000" font-family="Arial" font-size="14" font-weight="bold" lengthAdjust="spacing" textLength="382" x="29" y="486.4634">28.2.2026 &#183; Abgabe in der Apotheke (Besorgerprozess)</text><polygon fill="#111827" points="723.5,507.3789,733.5,511.3789,723.5,515.3789,727.5,511.3789" style="stroke:#111827;stroke-width:1.0;"/><line style="stroke:#111827;stroke-width:1.0;" x1="128.5" x2="729.5" y1="511.3789" y2="511.3789"/><text fill="#000000" font-family="Arial" font-size="13" font-weight="bold" lengthAdjust="spacing" textLength="7" x="135.5" y="506.624">7</text><text fill="#000000" font-family="Arial" font-size="13" lengthAdjust="spacing" textLength="127" x="146.5" y="506.624">Medikamente abholen</text><path d="M24,529.3789 L24,593.3789 A5,5 0 0 0 29,598.3789 L228,598.3789 A5,5 0 0 0 233,593.3789 L233,534.3789 L223,524.3789 L29,524.3789 A5,5 0 0 0 24,529.3789 " fill="url(#g1qwv9m6w3joez0)" style="stroke:#8B95A5;stroke-width:1.0;"/><path d="M223,524.3789 L223,531.8789 A2.5,2.5 0 0 0 225.5,534.3789 L233,534.3789 L223,524.3789 " fill="url(#g1qwv9m6w3joez0)" style="stroke:#8B95A5;stroke-width:1.0;"/><text fill="#111827" font-family="Arial" font-size="14" lengthAdjust="spacing" textLength="149" x="30" y="542.5107">Herr Mustermann erh&#228;lt</text><text fill="#111827" font-family="Arial" font-size="14" lengthAdjust="spacing" textLength="159" x="30" y="558.6094">in der Apotheke Ramipril,</text><text fill="#111827" font-family="Arial" font-size="14" lengthAdjust="spacing" textLength="151" x="30" y="574.708">die Dexpanthenol-Salbe</text><text fill="#111827" font-family="Arial" font-size="14" lengthAdjust="spacing" textLength="188" x="30" y="590.8066">muss noch zubereitet werden.</text><polygon fill="#111827" points="1037.5,620.7222,1047.5,624.7222,1037.5,628.7222,1041.5,624.7222" style="stroke:#111827;stroke-width:1.0;"/><line style="stroke:#111827;stroke-width:1.0;" x1="735.5" x2="1043.5" y1="624.7222" y2="624.7222"/><text fill="#000000" font-family="Arial" font-size="13" font-weight="bold" lengthAdjust="spacing" textLength="7" x="742.5" y="619.9673">8</text><text fill="#000000" font-family="Arial" font-size="13" lengthAdjust="spacing" textLength="120" x="753.5" y="619.9673">e-Medikation abrufen</text><polygon fill="#111827" points="746.5,665.6709,736.5,669.6709,746.5,673.6709,742.5,669.6709" style="stroke:#111827;stroke-width:1.0;"/><line style="stroke:#111827;stroke-width:1.0;" x1="740.5" x2="1048.5" y1="669.6709" y2="669.6709"/><text fill="#000000" font-family="Arial" font-size="13" font-weight="bold" lengthAdjust="spacing" textLength="7" x="752.5" y="656.916">9</text><path d="M771,642.2222 A0.5,0.5 0 0 0 770,642.2222 L770,642.8562 L769.451,642.5392 A0.5,0.5 0 1 0 768.951,643.4052 L769.5,643.7222 L768.951,644.0392 A0.5,0.5 0 1 0 769.451,644.9052 L770,644.5882 L770,645.2222 A0.5,0.5 0 1 0 771,645.2222 L771,644.5882 L771.549,644.9052 A0.5,0.5 0 1 0 772.049,644.0392 L771.5,643.7222 L772.049,643.4052 A0.5,0.5 0 1 0 771.549,642.5392 L771,642.8562 M769,646.7222 A0.5,0.5 0 0 0 769,647.7222 L774,647.7222 A0.5,0.5 0 0 0 774,646.7222 M769,648.7222 A0.5,0.5 0 0 0 769,649.7222 L774,649.7222 A0.5,0.5 0 0 0 774,648.7222 " fill="#111827" style="stroke:;stroke-width:0.0;stroke-dasharray:;"/><path d="M777.5,650.7222 L777.5,641.2222 L773,636.7222 L767.5,636.7222 A2,2 0 0 0 765.5,638.7222 L765.5,650.7222 A2,2 0 0 0 767.5,652.7222 L775.5,652.7222 A2,2 0 0 0 777.5,650.7222 M773,639.7222 A1.5,1.5 0 0 0 774.5,641.2222 L776.5,641.2222 L776.5,650.7222 A1,1 0 0 1 775.5,651.7222 L767.5,651.7222 A1,1 0 0 1 766.5,650.7222 L766.5,638.7222 A1,1 0 0 1 767.5,637.7222 L773,637.7222 " fill="#111827" style="stroke:;stroke-width:0.0;stroke-dasharray:;"/><text fill="#000000" font-family="Arial" font-size="13" lengthAdjust="spacing" textLength="227" x="783.5" y="649.9673">Medikationsplan, Geplante Abgaben f&#252;r</text><text fill="#000000" font-family="Arial" font-size="13" lengthAdjust="spacing" textLength="179" x="763.5" y="664.916">Ramipril + Dexpanthenol-Salbe</text><polygon fill="#111827" points="139.5,695.6709,129.5,699.6709,139.5,703.6709,135.5,699.6709" style="stroke:#111827;stroke-width:1.0;"/><line style="stroke:#111827;stroke-width:1.0;" x1="133.5" x2="734.5" y1="699.6709" y2="699.6709"/><text fill="#000000" font-family="Arial" font-size="13" font-weight="bold" lengthAdjust="spacing" textLength="14" x="145.5" y="694.3904">10</text><text fill="#000000" font-family="Arial" font-size="13" lengthAdjust="spacing" textLength="124" x="163.5" y="694.916">Ramipril aush&#228;ndigen</text><path d="M293.328,690.5709 L300.4,683.4979 A4,4 0 1 1 306.057,689.1549 L298.987,696.2259 A4,4 0 1 1 293.327,690.5709 M302.456,691.3419 L305.349,688.4489 A3,3 0 1 0 301.106,684.2069 L298.213,687.0999 " fill="#111827" style="stroke:;stroke-width:0.0;stroke-dasharray:;"/><polygon fill="#111827" points="139.5,724.6196,129.5,728.6196,139.5,732.6196,135.5,728.6196" style="stroke:#111827;stroke-width:1.0;"/><line style="stroke:#111827;stroke-width:1.0;" x1="133.5" x2="734.5" y1="728.6196" y2="728.6196"/><text fill="#000000" font-family="Arial" font-size="13" font-weight="bold" lengthAdjust="spacing" textLength="14" x="145.5" y="723.8647">11</text><text fill="#000000" font-family="Arial" font-size="13" lengthAdjust="spacing" textLength="280" x="163.5" y="723.8647">Abholzettel f&#252;r Dexpanthenol-Salbe aush&#228;ndigen</text><polygon fill="#111827" points="1037.5,783.4658,1047.5,787.4658,1037.5,791.4658,1041.5,787.4658" style="stroke:#111827;stroke-width:1.0;"/><line style="stroke:#111827;stroke-width:1.0;" x1="735.5" x2="1043.5" y1="787.4658" y2="787.4658"/><text fill="#000000" font-family="Arial" font-size="13" font-weight="bold" lengthAdjust="spacing" textLength="14" x="742.5" y="767.7622">12</text><text fill="#000000" font-family="Arial" font-size="13" lengthAdjust="spacing" textLength="188" x="760.5" y="752.8135">Durchgef&#252;hrte Abgaben erstellen</text><text fill="#000000" font-family="Arial" font-size="13" lengthAdjust="spacing" textLength="174" x="760.5" y="767.7622">Ramipril: Vollst&#228;ndige Abgabe</text><text fill="#000000" font-family="Arial" font-size="13" lengthAdjust="spacing" textLength="226" x="760.5" y="782.7109">Dexpanthenol-Salbe (Besorgerprozess)</text><path d="M25,809.4658 L528,809.4658 L528,817.5645 L518,827.5645 L20,827.5645 L20,814.4658 A5,5 0 0 1 25,809.4658 " fill="#EEF2FF" style="stroke:#111827;stroke-width:1.5;"/><rect fill="none" height="278.0869" rx="5" ry="5" style="stroke:#111827;stroke-width:2.0;" width="1107" x="20" y="809.4658"/><text fill="#000000" font-family="Arial" font-size="14" font-weight="bold" lengthAdjust="spacing" textLength="463" x="35" y="823.5977">1.3.2026 &#183; Abgabe in der Apotheke (Besorgerprozess abschlie&#223;en)</text><polygon fill="#111827" points="723.5,844.5132,733.5,848.5132,723.5,852.5132,727.5,848.5132" style="stroke:#111827;stroke-width:1.0;"/><line style="stroke:#111827;stroke-width:1.0;" x1="128.5" x2="729.5" y1="848.5132" y2="848.5132"/><text fill="#000000" font-family="Arial" font-size="13" font-weight="bold" lengthAdjust="spacing" textLength="14" x="135.5" y="843.7583">13</text><text fill="#000000" font-family="Arial" font-size="13" lengthAdjust="spacing" textLength="165" x="153.5" y="843.7583">Dexpanthenol-Salbe abholen</text><path d="M30,866.5132 L30,914.5132 A5,5 0 0 0 35,919.5132 L222,919.5132 A5,5 0 0 0 227,914.5132 L227,871.5132 L217,861.5132 L35,861.5132 A5,5 0 0 0 30,866.5132 " fill="url(#g1qwv9m6w3joez0)" style="stroke:#8B95A5;stroke-width:1.0;"/><path d="M217,861.5132 L217,869.0132 A2.5,2.5 0 0 0 219.5,871.5132 L227,871.5132 L217,861.5132 " fill="url(#g1qwv9m6w3joez0)" style="stroke:#8B95A5;stroke-width:1.0;"/><text fill="#111827" font-family="Arial" font-size="14" lengthAdjust="spacing" textLength="172" x="36" y="879.645">Herr Mustermann erh&#228;lt die</text><text fill="#111827" font-family="Arial" font-size="14" lengthAdjust="spacing" textLength="168" x="36" y="895.7437">Dexpanthenol-Salbe in der</text><text fill="#111827" font-family="Arial" font-size="14" lengthAdjust="spacing" textLength="64" x="36" y="911.8423">Apotheke.</text><polygon fill="#111827" points="1037.5,941.7578,1047.5,945.7578,1037.5,949.7578,1041.5,945.7578" style="stroke:#111827;stroke-width:1.0;"/><line style="stroke:#111827;stroke-width:1.0;" x1="735.5" x2="1043.5" y1="945.7578" y2="945.7578"/><text fill="#000000" font-family="Arial" font-size="13" font-weight="bold" lengthAdjust="spacing" textLength="14" x="742.5" y="941.0029">14</text><text fill="#000000" font-family="Arial" font-size="13" lengthAdjust="spacing" textLength="120" x="760.5" y="941.0029">e-Medikation abrufen</text><polygon fill="#111827" points="746.5,986.7065,736.5,990.7065,746.5,994.7065,742.5,990.7065" style="stroke:#111827;stroke-width:1.0;"/><line style="stroke:#111827;stroke-width:1.0;" x1="740.5" x2="1048.5" y1="990.7065" y2="990.7065"/><text fill="#000000" font-family="Arial" font-size="13" font-weight="bold" lengthAdjust="spacing" textLength="14" x="752.5" y="977.9517">15</text><path d="M778,963.2578 A0.5,0.5 0 0 0 777,963.2578 L777,963.8918 L776.451,963.5748 A0.5,0.5 0 1 0 775.951,964.4408 L776.5,964.7578 L775.951,965.0748 A0.5,0.5 0 1 0 776.451,965.9408 L777,965.6238 L777,966.2578 A0.5,0.5 0 1 0 778,966.2578 L778,965.6238 L778.549,965.9408 A0.5,0.5 0 1 0 779.049,965.0748 L778.5,964.7578 L779.049,964.4408 A0.5,0.5 0 1 0 778.549,963.5748 L778,963.8918 M776,967.7578 A0.5,0.5 0 0 0 776,968.7578 L781,968.7578 A0.5,0.5 0 0 0 781,967.7578 M776,969.7578 A0.5,0.5 0 0 0 776,970.7578 L781,970.7578 A0.5,0.5 0 0 0 781,969.7578 " fill="#111827" style="stroke:;stroke-width:0.0;stroke-dasharray:;"/><path d="M784.5,971.7578 L784.5,962.2578 L780,957.7578 L774.5,957.7578 A2,2 0 0 0 772.5,959.7578 L772.5,971.7578 A2,2 0 0 0 774.5,973.7578 L782.5,973.7578 A2,2 0 0 0 784.5,971.7578 M780,960.7578 A1.5,1.5 0 0 0 781.5,962.2578 L783.5,962.2578 L783.5,971.7578 A1,1 0 0 1 782.5,972.7578 L774.5,972.7578 A1,1 0 0 1 773.5,971.7578 L773.5,959.7578 A1,1 0 0 1 774.5,958.7578 L780,958.7578 " fill="#111827" style="stroke:;stroke-width:0.0;stroke-dasharray:;"/><text fill="#000000" font-family="Arial" font-size="13" lengthAdjust="spacing" textLength="252" x="790.5" y="971.0029">Medikationsplan + offene Geplante Abgabe:</text><text fill="#000000" font-family="Arial" font-size="13" lengthAdjust="spacing" textLength="116" x="770.5" y="985.9517">Dexpanthenol-Salbe</text><polygon fill="#111827" points="139.5,1016.7065,129.5,1020.7065,139.5,1024.7065,135.5,1020.7065" style="stroke:#111827;stroke-width:1.0;"/><line style="stroke:#111827;stroke-width:1.0;" x1="133.5" x2="734.5" y1="1020.7065" y2="1020.7065"/><text fill="#000000" font-family="Arial" font-size="13" font-weight="bold" lengthAdjust="spacing" textLength="14" x="145.5" y="1015.426">16</text><text fill="#000000" font-family="Arial" font-size="13" lengthAdjust="spacing" textLength="193" x="163.5" y="1015.9517">Dexpanthenol-Salbe aush&#228;ndigen</text><path d="M362.328,1011.6065 L369.4,1004.5335 A4,4 0 1 1 375.057,1010.1905 L367.987,1017.2615 A4,4 0 1 1 362.327,1011.6065 M371.456,1012.3775 L374.349,1009.4845 A3,3 0 1 0 370.106,1005.2425 L367.213,1008.1355 " fill="#111827" style="stroke:;stroke-width:0.0;stroke-dasharray:;"/><polygon fill="#111827" points="1037.5,1075.5527,1047.5,1079.5527,1037.5,1083.5527,1041.5,1079.5527" style="stroke:#111827;stroke-width:1.0;"/><line style="stroke:#111827;stroke-width:1.0;" x1="735.5" x2="1043.5" y1="1079.5527" y2="1079.5527"/><text fill="#000000" font-family="Arial" font-size="13" font-weight="bold" lengthAdjust="spacing" textLength="14" x="742.5" y="1059.8491">17</text><text fill="#000000" font-family="Arial" font-size="13" lengthAdjust="spacing" textLength="128" x="760.5" y="1044.9004">Durchgef&#252;hrte Abgabe</text><text fill="#000000" font-family="Arial" font-size="13" lengthAdjust="spacing" textLength="187" x="760.5" y="1059.8491">f&#252;r Dexpanthenol-Salbe erstellen</text><text fill="#000000" font-family="Arial" font-size="13" lengthAdjust="spacing" textLength="181" x="760.5" y="1074.7979">(Besorgerprozess abschlie&#223;en)</text><path d="M25,1101.5527 L353,1101.5527 L353,1109.6514 L343,1119.6514 L20,1119.6514 L20,1106.5527 A5,5 0 0 1 25,1101.5527 " fill="#EEF2FF" style="stroke:#111827;stroke-width:1.5;"/><rect fill="none" height="144.1934" rx="5" ry="5" style="stroke:#111827;stroke-width:2.0;" width="1107" x="20" y="1101.5527"/><text fill="#000000" font-family="Arial" font-size="14" font-weight="bold" lengthAdjust="spacing" textLength="288" x="35" y="1115.6846">7.3.2026 &#183; Patient ruft Medikationsplan ab</text><polygon fill="#111827" points="1037.5,1136.6001,1047.5,1140.6001,1037.5,1144.6001,1041.5,1140.6001" style="stroke:#111827;stroke-width:1.0;"/><line style="stroke:#111827;stroke-width:1.0;" x1="128.5" x2="1043.5" y1="1140.6001" y2="1140.6001"/><text fill="#000000" font-family="Arial" font-size="13" font-weight="bold" lengthAdjust="spacing" textLength="14" x="135.5" y="1135.8452">18</text><text fill="#000000" font-family="Arial" font-size="13" lengthAdjust="spacing" textLength="120" x="153.5" y="1135.8452">e-Medikation abrufen</text><polygon fill="#111827" points="139.5,1181.5488,129.5,1185.5488,139.5,1189.5488,135.5,1185.5488" style="stroke:#111827;stroke-width:1.0;"/><line style="stroke:#111827;stroke-width:1.0;" x1="133.5" x2="1048.5" y1="1185.5488" y2="1185.5488"/><text fill="#000000" font-family="Arial" font-size="13" font-weight="bold" lengthAdjust="spacing" textLength="14" x="145.5" y="1172.7939">19</text><path d="M171,1158.1001 A0.5,0.5 0 0 0 170,1158.1001 L170,1158.7341 L169.451,1158.4171 A0.5,0.5 0 1 0 168.951,1159.2831 L169.5,1159.6001 L168.951,1159.9171 A0.5,0.5 0 1 0 169.451,1160.7831 L170,1160.4661 L170,1161.1001 A0.5,0.5 0 1 0 171,1161.1001 L171,1160.4661 L171.549,1160.7831 A0.5,0.5 0 1 0 172.049,1159.9171 L171.5,1159.6001 L172.049,1159.2831 A0.5,0.5 0 1 0 171.549,1158.4171 L171,1158.7341 M169,1162.6001 A0.5,0.5 0 0 0 169,1163.6001 L174,1163.6001 A0.5,0.5 0 0 0 174,1162.6001 M169,1164.6001 A0.5,0.5 0 0 0 169,1165.6001 L174,1165.6001 A0.5,0.5 0 0 0 174,1164.6001 " fill="#111827" style="stroke:;stroke-width:0.0;stroke-dasharray:;"/><path d="M177.5,1166.6001 L177.5,1157.1001 L173,1152.6001 L167.5,1152.6001 A2,2 0 0 0 165.5,1154.6001 L165.5,1166.6001 A2,2 0 0 0 167.5,1168.6001 L175.5,1168.6001 A2,2 0 0 0 177.5,1166.6001 M173,1155.6001 A1.5,1.5 0 0 0 174.5,1157.1001 L176.5,1157.1001 L176.5,1166.6001 A1,1 0 0 1 175.5,1167.6001 L167.5,1167.6001 A1,1 0 0 1 166.5,1166.6001 L166.5,1154.6001 A1,1 0 0 1 167.5,1153.6001 L173,1153.6001 " fill="#111827" style="stroke:;stroke-width:0.0;stroke-dasharray:;"/><text fill="#000000" font-family="Arial" font-size="13" lengthAdjust="spacing" textLength="327" x="183.5" y="1165.8452">Medikationsplan + abgeschlossene Geplante Abgaben +</text><text fill="#000000" font-family="Arial" font-size="13" lengthAdjust="spacing" textLength="349" x="163.5" y="1180.7939">Durchgef&#252;hrte Abgaben f&#252;r Ramipril und Dexpanthenol-Salbe</text><path d="M30,1203.5488 L30,1235.5488 A5,5 0 0 0 35,1240.5488 L222,1240.5488 A5,5 0 0 0 227,1235.5488 L227,1208.5488 L217,1198.5488 L35,1198.5488 A5,5 0 0 0 30,1203.5488 " fill="url(#g1qwv9m6w3joez0)" style="stroke:#8B95A5;stroke-width:1.0;"/><path d="M217,1198.5488 L217,1206.0488 A2.5,2.5 0 0 0 219.5,1208.5488 L227,1208.5488 L217,1198.5488 " fill="url(#g1qwv9m6w3joez0)" style="stroke:#8B95A5;stroke-width:1.0;"/><text fill="#111827" font-family="Arial" font-size="14" lengthAdjust="spacing" textLength="172" x="36" y="1216.6807">Herr Mustermann ruft seine</text><text fill="#111827" font-family="Arial" font-size="14" lengthAdjust="spacing" textLength="105" x="36" y="1232.7793">e-Medikation ab.</text><path d="M21,1259.7461 L337,1259.7461 L337,1267.8447 L327,1277.8447 L16,1277.8447 L16,1264.7461 A5,5 0 0 1 21,1259.7461 " fill="#EEF2FF" style="stroke:#111827;stroke-width:1.5;"/><rect fill="none" height="202.0908" rx="5" ry="5" style="stroke:#111827;stroke-width:2.0;" width="1111" x="16" y="1259.7461"/><text fill="#000000" font-family="Arial" font-size="14" font-weight="bold" lengthAdjust="spacing" textLength="276" x="31" y="1273.8779">3.3.2026 &#183; Pr&#228;operativer Hausarzttermin</text><polygon fill="#111827" points="326.5,1294.7935,336.5,1298.7935,326.5,1302.7935,330.5,1298.7935" style="stroke:#111827;stroke-width:1.0;"/><line style="stroke:#111827;stroke-width:1.0;" x1="128.5" x2="332.5" y1="1298.7935" y2="1298.7935"/><text fill="#000000" font-family="Arial" font-size="13" font-weight="bold" lengthAdjust="spacing" textLength="14" x="135.5" y="1294.0386">20</text><text fill="#000000" font-family="Arial" font-size="13" lengthAdjust="spacing" textLength="159" x="153.5" y="1294.0386">Pr&#228;operativer Kontrolltermin</text><polygon fill="#111827" points="1037.5,1323.7422,1047.5,1327.7422,1037.5,1331.7422,1041.5,1327.7422" style="stroke:#111827;stroke-width:1.0;"/><line style="stroke:#111827;stroke-width:1.0;" x1="338.5" x2="1043.5" y1="1327.7422" y2="1327.7422"/><text fill="#000000" font-family="Arial" font-size="13" font-weight="bold" lengthAdjust="spacing" textLength="14" x="345.5" y="1322.9873">21</text><text fill="#000000" font-family="Arial" font-size="13" lengthAdjust="spacing" textLength="120" x="363.5" y="1322.9873">e-Medikation abrufen</text><polygon fill="#111827" points="349.5,1353.7422,339.5,1357.7422,349.5,1361.7422,345.5,1357.7422" style="stroke:#111827;stroke-width:1.0;"/><line style="stroke:#111827;stroke-width:1.0;" x1="343.5" x2="1048.5" y1="1357.7422" y2="1357.7422"/><text fill="#000000" font-family="Arial" font-size="13" font-weight="bold" lengthAdjust="spacing" textLength="14" x="355.5" y="1352.4617">22</text><path d="M381,1345.2422 A0.5,0.5 0 0 0 380,1345.2422 L380,1345.8762 L379.451,1345.5592 A0.5,0.5 0 1 0 378.951,1346.4252 L379.5,1346.7422 L378.951,1347.0592 A0.5,0.5 0 1 0 379.451,1347.9252 L380,1347.6082 L380,1348.2422 A0.5,0.5 0 1 0 381,1348.2422 L381,1347.6082 L381.549,1347.9252 A0.5,0.5 0 1 0 382.049,1347.0592 L381.5,1346.7422 L382.049,1346.4252 A0.5,0.5 0 1 0 381.549,1345.5592 L381,1345.8762 M379,1349.7422 A0.5,0.5 0 0 0 379,1350.7422 L384,1350.7422 A0.5,0.5 0 0 0 384,1349.7422 M379,1351.7422 A0.5,0.5 0 0 0 379,1352.7422 L384,1352.7422 A0.5,0.5 0 0 0 384,1351.7422 " fill="#111827" style="stroke:;stroke-width:0.0;stroke-dasharray:;"/><path d="M387.5,1353.7422 L387.5,1344.2422 L383,1339.7422 L377.5,1339.7422 A2,2 0 0 0 375.5,1341.7422 L375.5,1353.7422 A2,2 0 0 0 377.5,1355.7422 L385.5,1355.7422 A2,2 0 0 0 387.5,1353.7422 M383,1342.7422 A1.5,1.5 0 0 0 384.5,1344.2422 L386.5,1344.2422 L386.5,1353.7422 A1,1 0 0 1 385.5,1354.7422 L377.5,1354.7422 A1,1 0 0 1 376.5,1353.7422 L376.5,1341.7422 A1,1 0 0 1 377.5,1340.7422 L383,1340.7422 " fill="#111827" style="stroke:;stroke-width:0.0;stroke-dasharray:;"/><text fill="#000000" font-family="Arial" font-size="13" lengthAdjust="spacing" textLength="94" x="393.5" y="1352.9873">Medikationsplan</text><polygon fill="#111827" points="1037.5,1397.6396,1047.5,1401.6396,1037.5,1405.6396,1041.5,1401.6396" style="stroke:#111827;stroke-width:1.0;"/><line style="stroke:#111827;stroke-width:1.0;" x1="338.5" x2="1043.5" y1="1401.6396" y2="1401.6396"/><text fill="#000000" font-family="Arial" font-size="13" font-weight="bold" lengthAdjust="spacing" textLength="14" x="345.5" y="1389.4104">23</text><text fill="#000000" font-family="Arial" font-size="13" lengthAdjust="spacing" textLength="175" x="363.5" y="1381.936">Medikationsplan aktualisieren:</text><text fill="#000000" font-family="Arial" font-size="13" lengthAdjust="spacing" textLength="194" x="363.5" y="1396.8848">Ramipril vor&#252;bergehend pausieren</text><path d="M26,1419.6396 L26,1451.6396 A5,5 0 0 0 31,1456.6396 L225,1456.6396 A5,5 0 0 0 230,1451.6396 L230,1424.6396 L220,1414.6396 L31,1414.6396 A5,5 0 0 0 26,1419.6396 " fill="url(#g1qwv9m6w3joez0)" style="stroke:#8B95A5;stroke-width:1.0;"/><path d="M220,1414.6396 L220,1422.1396 A2.5,2.5 0 0 0 222.5,1424.6396 L230,1424.6396 L220,1414.6396 " fill="url(#g1qwv9m6w3joez0)" style="stroke:#8B95A5;stroke-width:1.0;"/><text fill="#111827" font-family="Arial" font-size="14" lengthAdjust="spacing" textLength="179" x="32" y="1432.7715">F&#252;r eine geplante Operation</text><text fill="#111827" font-family="Arial" font-size="14" lengthAdjust="spacing" textLength="139" x="32" y="1448.8701">wird Ramipril pausiert.</text><!--SRC=[nLZTKkCu5hxFKsZINKLJCpQMdHz20LLXW6QteQ5ecjgQIXKb9qhiZIDxP9jqPshkzZtsfjzXR-PgUR4zal_adq1WcjbquyJIfoETyttIENOOS3UYQEAFumLb4TeFxsVeoy9ZuK7RYQ9WRsTdkLpgIqlt-Mp7D0nZ1n1jj7GdaNFGnhqsSgWxSwBazzJrl8FsEEOSZFtiUpvlex57Gh1ckyXsDG1GZHA-87okBUZ47HElZUvTkZpolnoq3MGWt8F_xSCMGli1YHmqEMXVzFKkwkfTeiC52P2XOMJSwpshusbwjpFGT0ltisxeWaPzjzSxxw5-0gZqewJVoyVUxXRcSV9thqdxpQCrQNuNpA-PNWAAkLSBpKITaWi2wfGRDBnQ6CXy4jJUASS7Tn3kt8Bvyu70dNM8YSmK3R_kiLaqmBVfxAhtcdaXXbb335USJuInMB1Ztk8EmT9jQ8EuuxFIlOPlpU9Uj3YmMBd4VI6MmrOhJ5Gs9MFwwWgZ2_-VSFqIS1g6hiyy-Df0ORi8TuTzr4zyG71BahjK3XtW1GzteIDfW6-ItAN1wbKv0KeCbMyiLTDr-cgJO5TJMwHokWj3wzH7chMHPdqatBriP0DXOnA4iVVwdANpR40JrdTD2Bi-a7_Yhaywg9EorjLxtNvozRI-RW23SC730Y57YB6_B0OwDdVrVXyZKzyTM9gy4WjPwHRkw6R7abVplAVtiGM6E-QW9Ep8ZI0yLoHonU7vTp_cZ7v56gBQ1PnjSsZtMMlh1pyGFv13s6G9WOqeGn6FASHvxhA0SB90jiydbClWe3U6_AYzP3oVSJzcanGnxOf_2Y9qoCHVkcm6kymBgTAJ3eELSL2aqZ6XKn9xqQdFeezaGL5xo5quZPiHdzmLXLtGt5bUje8v-nfGxhbihY1EJfe0dzb4_g3f-XKC2EAAJ2R2DzCejn-fKUlAZpgI-I3Ytq10HzNuKODsfuRsPe8d0zeJ2DNIhZteacxUUkEuupc3SmHXQBjMucd0VROsOKK91iOOf0PjdohC_AwkCAI_nfIDarLU4HwvOpSWB6foh0oeAK9-og0wDxNkZDTIXn9kX8QS-ykgKxAn71VPr3HZtf7CPK7JUrXvKF8njvnqrVYYKrDwfumifZT5K7y0GGhz_7nvVdbzz_vuU8SHVDxWRi-0GyDe09WICEZrZFvn8y2I09kIgJMk0Qw6Dtyx-NWZfXZqZinE3J2ykaJoyyOu7PmSTmTLmCd5oV7TwH00TD0tBTEUL02N7r39WjcjMhY-lhoMW9C1756c1VhVGWsXk3kw_4Sv74qmCuVbGQd2KgyJOE5v5GQ-PxPK_wkmD0AfjJmABJAEWFRiO2KXQb-GB-WY3YCAjIDZxV9gKloGho9WNS2FkOxEI1m-V8CsDyVBMAXeCqT_u8JDANDWa8esLRILepzpZyHsU4zvn6aKivawnih617xaq3cLeuOBCg5nc3UsYqYrWcBl8GgfGuX2Z57pIBiSiaBmxwylFr_T3Qz_kK7v9-NFCggeJ98gBpNKXpCLbCY_1eBGgwX42O02ykB8P_72fhmbDd6Whj3iwwPk6cOF_VS_CgOs3UEnquAjlOKWQkuzYOgCMYOPvUtQOShrdc83weIteiGK5OCy-NrW9ni2RMUKSqL2QEul5X62ZeKReKzV5q7ampCGMiKSFVnBgaPqmXc4A7SUldaHkYOB5oeZ3_q87STGOm9V3cM-ftqYdaqHp0Sd4wEH3lqK1efbo1DGwX9MdPAxLweG4B5vFALokenznSFzjzdZsI7oAENWL34s33p2cgVuI26rLA72sH4h76bmOmH8weuTojSOVa-59GZmq9uH6-QW78BgUPIDsBj7JM-ZaiMKcprqJLSqW7qUXn1eDd5dOFHTKZKHRxlLWbY2hafY0Y53-QPeIQu50McG6egTz-w8Xb2aKXvmVmMvOhjLaL4At4i39S8C-zLsV71dGo5bye2kwlHPD7w2lebBcqGZ11X34cC-I7WLmwwXK7j7Q4aXoR6gaZB3Jscf8gNSIrLC5MdyL2Ts-l07Vq8jbKKLb6Q3IgJklqrh_SDruuOYz2iAHR8dfsyAMSdakgWSntpip2ZOS7YpLhCbxg5Rt_F2A3MPGaUiOUQwdAGqgyh4klLSOG9nuTZnNFhmRygsrucqAHWlqgeGO_CXbYvK2UjVg46Gc3-5eRIgnRqcEjPfw2d9h5NXu-8PiNM2L0_0ntcjwqNaqRwYbunt265K2m-nA-VNCmZ8m_Du_8azesB5VXWsy008OA9vQydevFjU9Cv6oZQHgNG-fABQ44wKVIlfiI4rY3h3KYFA7xxvy9m9uyMieYmaa8F4N2vhDPSLbJ4VuF65mo6HZjaufJ-TqJTAvJKPpAEOU6xeGh9WUye9VU_pXpyWXSoe8o8KWAiIioRifu8n6ULPHlDbuhGl3zQbooS5ewcrI4Sg0Ga3MqYb00h8ha90hg5pwWB5368pTlni8Z5OL7zFbNyILgNALCgHowh5t61QwgjLlOIaxMgeHMZbLgwbnn7BPvBQBcs24SjsGSPyTGsP3ifLl01L5G8-3TDLr4kznEg4LkskTOX16GYSmrWWEk9a1YOZe7G5MtB4RhWVJDMqA7qh2i37h5RFXcSPhlcHJ99feTIL2NOBDMXDv5lr_BoXhaSQS-wBXQRKY9c3cNjPzgqfBiignKDU4igcRFD_rbob1Cvd7x4VgnG_9RzdvD8ybeXueSBQYEMIUOO_MyqUfSA4Z9OABqhHc_cGfymQyP3eCJhr7hv1gWIxRBjKORGQv9s9y4K27smay5AjyGfg7x5do7sj7Xhpv9zKxjhpKfGhZsoXh7RvZhhEZpZqJXLrfGnyZj9UJrcYKiAcegsFPEpCqrg78fkwKb-rbrrGPp1KUSM6_bGUj_RASpUdSAlqagt8JTPh2InTsbfvRNX0RvArBNL2DLrdzTU8sPHmMxmTO818YZ51Xas1MyesiPMhgspisCzi4HOGKVYZjT5jVAsalZDwwQ6TBhUwWPzpTjSB2kk5ky8qb5rHhlxbjlYkueT7Wie3HgFwSUabTi4FVatruxz6_RZqyBLEiOdEdnvKUkuSiUGXlRvD7d_8-ZwAnjzRqRZUNfRp_m00]--></g></svg>