<svg xmlns="http://www.w3.org/2000/svg" contentStyleType="text/css" viewBox="0 0 1218 1660" zoomAndPan="magnify" data-diagram-type="SEQUENCE" preserveAspectRatio="none" width="1218px" xmlns:xlink="http://www.w3.org/1999/xlink" style="width:1218px;height:1660px;background:#F5F5F5;" version="1.1" height="1660px">  <!-- ?plantuml 1.2026.4beta2? --><defs><linearGradient y1="0%" x1="50%" y2="100%" x2="50%" id="g1xtqplbw0xuvf0"><stop offset="0%" stop-color="#E0E5F0"></stop><stop offset="100%" stop-color="#D1D9E6"></stop></linearGradient><filter width="300%" x="-1" y="-1" id="f1xtqplbw0xuvf" height="300%"><feGaussianBlur result="blurOut" stdDeviation="2"></feGaussianBlur><feColorMatrix result="blurOut2" in="blurOut" values="0 0 0 0 0 0 0 0 0 0 0 0 0 0 0 0 0 0 .4 0" type="matrix"></feColorMatrix><feOffset result="blurOut3" dx="4" dy="4" in="blurOut2"></feOffset><feBlend mode="normal" in="SourceGraphic" in2="blurOut3"></feBlend></filter></defs><g><a name="l13">​</a><rect width="1218" x="0" y="0" style="stroke:none;stroke-width:1;" fill="#F5F5F5" height="1660"></rect><g class="title" data-source-line="1"><text font-weight="700" lengthAdjust="spacing" x="323.8091" font-size="14" textLength="563.7324" y="27.9951" font-family="'Arial'" fill="#000000">Geplante Abgabe aus bestehenden Medikationsplaneinträgen erstellen</text></g><rect rx="5" ry="5" width="74.0586" x="170" y="43.2969" style="stroke:#181818;stroke-width:0.5;" fill="#9FBAC4" height="1610.6406"></rect><text font-weight="700" lengthAdjust="spacing" x="173" font-size="14" textLength="4.874" y="56.292" font-family="'Arial'" fill="#000000">&nbsp;</text><text font-weight="700" lengthAdjust="spacing" x="182.748" font-size="14" textLength="48.5625" y="72.5889" font-family="'Arial'" fill="#000000">GDA 1</text><rect rx="5" ry="5" width="256.9268" x="557.3916" y="43.2969" style="stroke:#181818;stroke-width:0.5;" fill="#C48778" height="1610.6406"></rect><text font-weight="700" lengthAdjust="spacing" x="560.3916" font-size="14" textLength="4.874" y="56.292" font-family="'Arial'" fill="#000000">&nbsp;</text><text font-weight="700" lengthAdjust="spacing" x="594.5098" font-size="14" textLength="182.6904" y="72.5889" font-family="'Arial'" fill="#000000">e-Med Fachanwendung</text><rect rx="5" ry="5" width="105.1826" x="974.5542" y="43.2969" style="stroke:#181818;stroke-width:0.5;" fill="#CBB272" height="1610.6406"></rect><text font-weight="700" lengthAdjust="spacing" x="977.5542" font-size="14" textLength="4.874" y="56.292" font-family="'Arial'" fill="#000000">&nbsp;</text><text font-weight="700" lengthAdjust="spacing" x="997.0503" font-size="14" textLength="69.9385" y="72.5889" font-family="'Arial'" fill="#000000">e-Rezept</text><g><title>GDA 1</title><rect width="10" x="202.0293" y="166.1875" style="stroke:#181818;stroke-width:1;" fill="#FFFFFF" height="1399.4531"></rect></g><g><title>e-Med FA</title><rect width="10" x="680.855" y="508.2578" style="stroke:#181818;stroke-width:1;" fill="#FFFFFF" height="332.2031"></rect></g><g><title>e-Med FA</title><rect width="10" x="680.855" y="964.125" style="stroke:#181818;stroke-width:1;" fill="#FFFFFF" height="332.2031"></rect></g><g><title>e-Rezept</title><rect width="10" x="1022.1455" y="1332.4609" style="stroke:#181818;stroke-width:1;" fill="#FFFFFF" height="217.1797"></rect></g><rect rx="5" ry="5" width="875.999" x="171.7476" y="595.1484" style="stroke:#111827;stroke-width:2;" fill="none" height="253.3125"></rect><rect rx="5" ry="5" width="401.5537" x="636.1929" y="621.7422" style="stroke:#111827;stroke-width:2;" fill="none" height="61.7266"></rect><rect rx="5" ry="5" width="831.4014" x="171.7476" y="1034.7188" style="stroke:#111827;stroke-width:2;" fill="none" height="269.6094"></rect><rect rx="5" ry="5" width="356.9561" x="636.1929" y="1061.3125" style="stroke:#111827;stroke-width:2;" fill="none" height="61.7266"></rect><rect rx="5" ry="5" width="1030.1836" x="171.7476" y="1419.3516" style="stroke:#111827;stroke-width:2;" fill="none" height="138.2891"></rect><g data-qualified-name="GDA_1" data-entity-uid="part1" id="part1-lifeline" class="participant-lifeline" data-source-line="43"><g><title>GDA 1</title><rect width="8" x="203.0293" y="156.1875" fill="#000000" fill-opacity="0.00000" height="1418.4531"></rect><line y1="156.1875" x1="206.7476" y2="1574.6406" style="stroke:#181818;stroke-width:0.5;stroke-dasharray:5,5;" x2="206.7476"></line></g></g><g data-qualified-name="eMed_FA" data-entity-uid="part2" id="part2-lifeline" class="participant-lifeline" data-source-line="47"><g><title>e-Med FA</title><rect width="8" x="681.855" y="156.1875" fill="#000000" fill-opacity="0.00000" height="1418.4531"></rect><line y1="156.1875" x1="685.1929" y2="1574.6406" style="stroke:#181818;stroke-width:0.5;stroke-dasharray:5,5;" x2="685.1929"></line></g></g><g data-qualified-name="e_Rezept" data-entity-uid="part3" id="part3-lifeline" class="participant-lifeline" data-source-line="51"><g><title>e-Rezept</title><rect width="8" x="1023.1455" y="156.1875" fill="#000000" fill-opacity="0.00000" height="1418.4531"></rect><line y1="156.1875" x1="1026.9736" y2="1574.6406" style="stroke:#181818;stroke-width:0.5;stroke-dasharray:5,5;" x2="1026.9736"></line></g></g><g data-qualified-name="GDA_1" data-entity-uid="part1" id="part1-head" class="participant participant-head" data-source-line="43"><text lengthAdjust="spacing" x="181.7476" font-size="14" textLength="44.5635" y="152.8857" font-family="'Arial'" fill="#000000">GDA 1</text><ellipse cx="207.0293" cy="88.3906" rx="8" ry="8" style="stroke:#181818;stroke-width:0.5;" fill="#E2E2F0"></ellipse><path d="M207.0293,96.3906 L207.0293,123.3906 M194.0293,104.3906 L220.0293,104.3906 M207.0293,123.3906 L194.0293,138.3906 M207.0293,123.3906 L220.0293,138.3906" style="stroke:#181818;stroke-width:0.5;" fill="none"></path></g><g data-qualified-name="GDA_1" data-entity-uid="part1" id="part1-tail" class="participant participant-tail" data-source-line="43"><text lengthAdjust="spacing" x="181.7476" font-size="14" textLength="44.5635" y="1586.6357" font-family="'Arial'" fill="#000000">GDA 1</text><ellipse cx="207.0293" cy="1598.4375" rx="8" ry="8" style="stroke:#181818;stroke-width:0.5;" fill="#E2E2F0"></ellipse><path d="M207.0293,1606.4375 L207.0293,1633.4375 M194.0293,1614.4375 L220.0293,1614.4375 M207.0293,1633.4375 L194.0293,1648.4375 M207.0293,1633.4375 L220.0293,1648.4375" style="stroke:#181818;stroke-width:0.5;" fill="none"></path></g><g data-qualified-name="eMed_FA" data-entity-uid="part2" id="part2-head" class="participant participant-head" data-source-line="47"><rect rx="5" ry="5" width="79.3242" x="646.1929" y="124.8906" style="stroke:#555555;stroke-width:0.5;" fill="#FFFFFF" height="30.2969"></rect><text lengthAdjust="spacing" x="653.1929" font-size="14" textLength="65.3242" y="144.8857" font-family="'Arial'" fill="#000000">e-Med FA</text></g><g data-qualified-name="eMed_FA" data-entity-uid="part2" id="part2-tail" class="participant participant-tail" data-source-line="47"><rect rx="5" ry="5" width="79.3242" x="646.1929" y="1573.6406" style="stroke:#555555;stroke-width:0.5;" fill="#FFFFFF" height="30.2969"></rect><text lengthAdjust="spacing" x="653.1929" font-size="14" textLength="65.3242" y="1593.6357" font-family="'Arial'" fill="#000000">e-Med FA</text></g><g data-qualified-name="e_Rezept" data-entity-uid="part3" id="part3-head" class="participant participant-head" data-source-line="51"><rect rx="5" ry="5" width="76.3438" x="988.9736" y="124.8906" style="stroke:#555555;stroke-width:0.5;" fill="#FFFFFF" height="30.2969"></rect><text lengthAdjust="spacing" x="995.9736" font-size="14" textLength="62.3438" y="144.8857" font-family="'Arial'" fill="#000000">e-Rezept</text></g><g data-qualified-name="e_Rezept" data-entity-uid="part3" id="part3-tail" class="participant participant-tail" data-source-line="51"><rect rx="5" ry="5" width="76.3438" x="988.9736" y="1573.6406" style="stroke:#555555;stroke-width:0.5;" fill="#FFFFFF" height="30.2969"></rect><text lengthAdjust="spacing" x="995.9736" font-size="14" textLength="62.3438" y="1593.6357" font-family="'Arial'" fill="#000000">e-Rezept</text></g><g><title>GDA 1</title><rect width="10" x="202.0293" y="166.1875" style="stroke:#181818;stroke-width:1;" fill="#FFFFFF" height="1399.4531"></rect></g><g><title>e-Med FA</title><rect width="10" x="680.855" y="508.2578" style="stroke:#181818;stroke-width:1;" fill="#FFFFFF" height="332.2031"></rect></g><g><title>e-Med FA</title><rect width="10" x="680.855" y="964.125" style="stroke:#181818;stroke-width:1;" fill="#FFFFFF" height="332.2031"></rect></g><g><title>e-Rezept</title><rect width="10" x="1022.1455" y="1332.4609" style="stroke:#181818;stroke-width:1;" fill="#FFFFFF" height="217.1797"></rect></g><rect rx="5" ry="5" width="1212.3506" x="0" y="187.3359" style="stroke:#EEEEEE;stroke-width:1;" fill="#EEEEEE" height="3"></rect><line y1="187.3359" x1="0" y2="187.3359" style="stroke:#000000;stroke-width:1;" x2="1212.3506"></line><line y1="190.3359" x1="0" y2="190.3359" style="stroke:#000000;stroke-width:1;" x2="1212.3506"></line><rect rx="5" ry="5" width="216.2891" x="498.0308" y="176.1875" style="stroke:#000000;stroke-width:2;" fill="#EEEEEE" height="24.2969"></rect><text font-weight="700" lengthAdjust="spacing" x="504.0308" font-size="14" textLength="197.415" y="193.1826" font-family="'Arial'" fill="#000000">Medikationsplan abrufen</text><rect rx="5" ry="5" width="549.7695" x="178.7476" y="210.4844" style="stroke:#000000;stroke-width:1.5;" fill="none" height="42.5938"></rect><path d="M183.7476,210.4844 L245.7476,210.4844 L245.7476,218.4844 L235.7476,228.4844 L178.7476,228.4844 L178.7476,215.4844 A5,5 0 0 1 183.7476,210.4844" style="stroke:#000000;stroke-width:2;" fill="#EEEEEE"></path><text font-weight="700" lengthAdjust="spacing" x="191.7476" font-size="14" textLength="22.4902" y="225.4795" font-family="'Arial'" fill="#000000">ref</text><a xlink:type="simple" xlink:show="new" xlink:title="interactions.html#sequenzdiagramm-read-to-write-zugriff" href="interactions.html#sequenzdiagramm-read-to-write-zugriff" xlink:actuate="onRequest" title="interactions.html#sequenzdiagramm-read-to-write-zugriff" xlink:href="interactions.html#sequenzdiagramm-read-to-write-zugriff" target="_top"><text lengthAdjust="spacing" x="378.9019" font-size="14" textLength="149.4609" y="245.4795" font-family="'Arial'" fill="#0000EE">Read-to-Write-Zugriff</text></a><path filter="url(#f1xtqplbw0xuvf)" d="M83,268.0781 L83,316.0781 A5,5 0 0 0 88,321.0781 L322,321.0781 A5,5 0 0 0 327,316.0781 L327,273.0781 L317,263.0781 L88,263.0781 A5,5 0 0 0 83,268.0781" style="stroke:#8B95A5;stroke-width:1;" fill="url(#g1xtqplbw0xuvf0)"></path><path d="M317,263.0781 L317,270.5781 A2.5,2.5 0 0 0 319.5,273.0781 L327,273.0781 L317,263.0781" style="stroke:#8B95A5;stroke-width:1;" fill="url(#g1xtqplbw0xuvf0)"></path><text lengthAdjust="spacing" x="89" font-size="14" textLength="177.0576" y="281.0732" font-family="'Arial'" fill="#111827">GDA erhält den aktuellen</text><text lengthAdjust="spacing" x="89" font-size="14" textLength="136.4727" y="297.3701" font-family="'Arial'" fill="#111827">Medikationsplan im</text><text lengthAdjust="spacing" x="89" font-size="14" textLength="223.4531" y="313.667" font-family="'Arial'" fill="#111827">Auslieferungs-Collection-Bundle</text><rect rx="5" ry="5" width="1212.3506" x="0" y="351.1172" style="stroke:#EEEEEE;stroke-width:1;" fill="#EEEEEE" height="3"></rect><line y1="351.1172" x1="0" y2="351.1172" style="stroke:#000000;stroke-width:1;" x2="1212.3506"></line><line y1="354.1172" x1="0" y2="354.1172" style="stroke:#000000;stroke-width:1;" x2="1212.3506"></line><rect rx="5" ry="5" width="379.3398" x="416.5054" y="339.9688" style="stroke:#000000;stroke-width:2;" fill="#EEEEEE" height="24.2969"></rect><text font-weight="700" lengthAdjust="spacing" x="422.5054" font-size="14" textLength="360.4658" y="356.9639" font-family="'Arial'" fill="#000000">Geplante Abgaben vorbereiten und schreiben</text><g data-entity-2="part1" data-entity-1="part1" id="msg1" class="message" data-source-line="70"><line y1="395.3984" x1="212.0293" y2="395.3984" style="stroke:#111827;stroke-width:1;" x2="254.0293"></line><line y1="395.3984" x1="254.0293" y2="408.3984" style="stroke:#111827;stroke-width:1;" x2="254.0293"></line><line y1="408.3984" x1="213.0293" y2="408.3984" style="stroke:#111827;stroke-width:1;" x2="254.0293"></line><polygon style="stroke:#111827;stroke-width:1;" fill="#111827" points="223.0293,404.3984,213.0293,408.3984,223.0293,412.3984,219.0293,408.3984"></polygon><text font-weight="700" lengthAdjust="spacing" x="219.0293" font-size="13" textLength="9.0454" y="390.3325" font-family="'Arial'" fill="#000000">1</text><text lengthAdjust="spacing" x="232.0747" font-size="13" textLength="186.1895" y="390.3325" font-family="'Arial'" fill="#000000">Geplante Abgabe 1 erstellen</text></g><path filter="url(#f1xtqplbw0xuvf)" d="M81,426.3984 L81,458.3984 A5,5 0 0 0 86,463.3984 L323,463.3984 A5,5 0 0 0 328,458.3984 L328,431.3984 L318,421.3984 L86,421.3984 A5,5 0 0 0 81,426.3984" style="stroke:#8B95A5;stroke-width:1;" fill="url(#g1xtqplbw0xuvf0)"></path><path d="M318,421.3984 L318,428.8984 A2.5,2.5 0 0 0 320.5,431.3984 L328,431.3984 L318,421.3984" style="stroke:#8B95A5;stroke-width:1;" fill="url(#g1xtqplbw0xuvf0)"></path><text lengthAdjust="spacing" x="87" font-size="14" textLength="226.1191" y="439.3936" font-family="'Arial'" fill="#111827">Geplanten Abgaben referenziert</text><text lengthAdjust="spacing" x="87" font-size="14" textLength="204.1006" y="455.6904" font-family="'Arial'" fill="#111827">bestehenden Planeintrag (id)</text><g data-entity-2="part2" data-entity-1="part1" id="msg2" class="message" data-source-line="76"><polygon style="stroke:#111827;stroke-width:1;" fill="#111827" points="668.855,504.2578,678.855,508.2578,668.855,512.2578,672.855,508.2578"></polygon><line y1="508.2578" x1="212.0293" y2="508.2578" style="stroke:#111827;stroke-width:1;" x2="674.855"></line><text font-weight="700" lengthAdjust="spacing" x="219.0293" font-size="13" textLength="9.0454" y="495.6255" font-family="'Arial'" fill="#000000">2</text><text lengthAdjust="spacing" x="232.0747" font-size="13" textLength="162.8809" y="488.0591" font-family="'Arial'" fill="#000000">POST MedicationRequest</text><text lengthAdjust="spacing" x="232.0747" font-size="13" textLength="131.3965" y="503.1919" font-family="'Arial'" fill="#000000">(GeplanteAbgabe 1)</text></g><path filter="url(#f1xtqplbw0xuvf)" d="M81,526.2578 L81,574.2578 A5,5 0 0 0 86,579.2578 L324,579.2578 A5,5 0 0 0 329,574.2578 L329,531.2578 L319,521.2578 L86,521.2578 A5,5 0 0 0 81,526.2578" style="stroke:#8B95A5;stroke-width:1;" fill="url(#g1xtqplbw0xuvf0)"></path><path d="M319,521.2578 L319,528.7578 A2.5,2.5 0 0 0 321.5,531.2578 L329,531.2578 L319,521.2578" style="stroke:#8B95A5;stroke-width:1;" fill="url(#g1xtqplbw0xuvf0)"></path><text lengthAdjust="spacing" x="87" font-size="14" textLength="135.0303" y="539.2529" font-family="'Arial'" fill="#111827">Geplante Abgabe 1</text><text lengthAdjust="spacing" x="87" font-size="14" textLength="227.9238" y="555.5498" font-family="'Arial'" fill="#111827">an Fachanwendung übermitteln,</text><text lengthAdjust="spacing" x="87" font-size="14" textLength="200.2861" y="571.8467" font-family="'Arial'" fill="#111827">e-Med groupIdentfier ist leer</text><path d="M176.7476,595.1484 L237.686,595.1484 L237.686,603.4453 L227.686,613.4453 L171.7476,613.4453 L171.7476,600.1484 A5,5 0 0 1 176.7476,595.1484" style="stroke:#111827;stroke-width:1.5;" fill="#EEF2FF"></path><rect rx="5" ry="5" width="875.999" x="171.7476" y="595.1484" style="stroke:#111827;stroke-width:2;" fill="none" height="253.3125"></rect><text font-weight="700" lengthAdjust="spacing" x="186.7476" font-size="14" textLength="20.9385" y="609.1436" font-family="'Arial'" fill="#000000">alt</text><text font-weight="700" lengthAdjust="spacing" x="252.686" font-size="14" textLength="59.0967" y="610.1436" font-family="'Arial'" fill="#000000">[gültig]</text><path d="M641.1929,621.7422 L702.1313,621.7422 L702.1313,630.0391 L692.1313,640.0391 L636.1929,640.0391 L636.1929,626.7422 A5,5 0 0 1 641.1929,621.7422" style="stroke:#111827;stroke-width:1.5;" fill="#EEF2FF"></path><rect rx="5" ry="5" width="401.5537" x="636.1929" y="621.7422" style="stroke:#111827;stroke-width:2;" fill="none" height="61.7266"></rect><text font-weight="700" lengthAdjust="spacing" x="651.1929" font-size="14" textLength="20.9385" y="635.7373" font-family="'Arial'" fill="#000000">alt</text><text font-weight="700" lengthAdjust="spacing" x="717.1313" font-size="14" textLength="315.6152" y="636.7373" font-family="'Arial'" fill="#000000">[e-Med groupIdentifer nicht vorhanden]</text><g data-entity-2="part2" data-entity-1="part2" id="msg3" class="message" data-source-line="87"><line y1="662.4688" x1="690.855" y2="662.4688" style="stroke:#111827;stroke-width:1;" x2="732.855"></line><line y1="662.4688" x1="732.855" y2="675.4688" style="stroke:#111827;stroke-width:1;" x2="732.855"></line><line y1="675.4688" x1="691.855" y2="675.4688" style="stroke:#111827;stroke-width:1;" x2="732.855"></line><polygon style="stroke:#111827;stroke-width:1;" fill="#111827" points="701.855,671.4688,691.855,675.4688,701.855,679.4688,697.855,675.4688"></polygon><text font-weight="700" lengthAdjust="spacing" x="697.855" font-size="13" textLength="9.0454" y="657.4028" font-family="'Arial'" fill="#000000">3</text><text lengthAdjust="spacing" x="710.9004" font-size="13" textLength="191.1343" y="657.4028" font-family="'Arial'" fill="#000000">ergänzt e-Med groupIdentfier</text></g><g data-entity-2="part2" data-entity-1="part2" id="msg4" class="message" data-source-line="90"><line y1="711.6016" x1="690.855" y2="711.6016" style="stroke:#111827;stroke-width:1;" x2="732.855"></line><line y1="711.6016" x1="732.855" y2="724.6016" style="stroke:#111827;stroke-width:1;" x2="732.855"></line><line y1="724.6016" x1="691.855" y2="724.6016" style="stroke:#111827;stroke-width:1;" x2="732.855"></line><polygon style="stroke:#111827;stroke-width:1;" fill="#111827" points="701.855,720.6016,691.855,724.6016,701.855,728.6016,697.855,724.6016"></polygon><text font-weight="700" lengthAdjust="spacing" x="697.855" font-size="13" textLength="9.0454" y="706.5356" font-family="'Arial'" fill="#000000">4</text><text lengthAdjust="spacing" x="710.9004" font-size="13" textLength="188.9888" y="706.5356" font-family="'Arial'" fill="#000000">GeplanteAbgabe 1 speichern</text></g><path filter="url(#f1xtqplbw0xuvf)" d="M562,742.6016 L562,758.6016 A5,5 0 0 0 567,763.6016 L800,763.6016 A5,5 0 0 0 805,758.6016 L805,747.6016 L795,737.6016 L567,737.6016 A5,5 0 0 0 562,742.6016" style="stroke:#8B95A5;stroke-width:1;" fill="url(#g1xtqplbw0xuvf0)"></path><path d="M795,737.6016 L795,745.1016 A2.5,2.5 0 0 0 797.5,747.6016 L805,747.6016 L795,737.6016" style="stroke:#8B95A5;stroke-width:1;" fill="url(#g1xtqplbw0xuvf0)"></path><text lengthAdjust="spacing" x="568" font-size="14" textLength="222.0928" y="755.5967" font-family="'Arial'" fill="#111827">Geplante Abgabe 1 gespeichert</text><g data-entity-2="part1" data-entity-1="part2" id="msg5" class="message" data-source-line="96"><line y1="793.0313" x1="213.0293" y2="789.0313" style="stroke:#111827;stroke-width:1;" x2="223.0293"></line><line y1="793.0313" x1="213.0293" y2="797.0313" style="stroke:#111827;stroke-width:1;" x2="223.0293"></line><line y1="793.0313" x1="212.0293" y2="793.0313" style="stroke:#111827;stroke-width:1;stroke-dasharray:2,2;" x2="679.855"></line><text font-weight="700" lengthAdjust="spacing" x="229.0293" font-size="13" textLength="9.0454" y="787.9653" font-family="'Arial'" fill="#000000">5</text><text lengthAdjust="spacing" x="242.0747" font-size="13" textLength="330.186" y="787.9653" font-family="'Arial'" fill="#000000">OK (MedicationRequest inkl. e-Med groupIdentfier)</text></g><line y1="802.0313" x1="171.7476" y2="802.0313" style="stroke:#111827;stroke-width:1;stroke-dasharray:2,2;" x2="1047.7466"></line><text font-weight="700" lengthAdjust="spacing" x="176.7476" font-size="14" textLength="79.0303" y="815.0264" font-family="'Arial'" fill="#000000">[ungültig]</text><g data-entity-2="part1" data-entity-1="part2" id="msg6" class="message" data-source-line="98"><line y1="840.4609" x1="213.0293" y2="836.4609" style="stroke:#111827;stroke-width:1;" x2="223.0293"></line><line y1="840.4609" x1="213.0293" y2="844.4609" style="stroke:#111827;stroke-width:1;" x2="223.0293"></line><line y1="840.4609" x1="212.0293" y2="840.4609" style="stroke:#111827;stroke-width:1;stroke-dasharray:2,2;" x2="684.855"></line><text font-weight="700" lengthAdjust="spacing" x="229.0293" font-size="13" textLength="9.0454" y="835.395" font-family="'Arial'" fill="#000000">6</text><text lengthAdjust="spacing" x="242.0747" font-size="13" textLength="40.6694" y="835.395" font-family="'Arial'" fill="#000000">Fehler</text></g><g data-entity-2="part1" data-entity-1="part1" id="msg7" class="message" data-source-line="102"><line y1="906.8594" x1="212.0293" y2="906.8594" style="stroke:#111827;stroke-width:1;" x2="254.0293"></line><line y1="906.8594" x1="254.0293" y2="919.8594" style="stroke:#111827;stroke-width:1;" x2="254.0293"></line><line y1="919.8594" x1="213.0293" y2="919.8594" style="stroke:#111827;stroke-width:1;" x2="254.0293"></line><polygon style="stroke:#111827;stroke-width:1;" fill="#111827" points="223.0293,915.8594,213.0293,919.8594,223.0293,923.8594,219.0293,919.8594"></polygon><text font-weight="700" lengthAdjust="spacing" x="219.0293" font-size="13" textLength="9.0454" y="886.6606" font-family="'Arial'" fill="#000000">7</text><text lengthAdjust="spacing" x="232.0747" font-size="13" textLength="190.3218" y="871.5278" font-family="'Arial'" fill="#000000">Geplante Abgabe 2 erstellen,</text><text lengthAdjust="spacing" x="232.0747" font-size="13" textLength="195.6475" y="886.6606" font-family="'Arial'" fill="#000000">inkl. e-Med groupIdentfier aus</text><text lengthAdjust="spacing" x="232.0747" font-size="13" textLength="130.73" y="901.7935" font-family="'Arial'" fill="#000000">Geplanter Abgabe 1</text></g><g data-entity-2="part2" data-entity-1="part1" id="msg8" class="message" data-source-line="104"><line y1="964.125" x1="678.855" y2="960.125" style="stroke:#111827;stroke-width:1;" x2="668.855"></line><line y1="964.125" x1="678.855" y2="968.125" style="stroke:#111827;stroke-width:1;" x2="668.855"></line><line y1="964.125" x1="212.0293" y2="964.125" style="stroke:#111827;stroke-width:1;" x2="679.855"></line><text font-weight="700" lengthAdjust="spacing" x="219.0293" font-size="13" textLength="9.0454" y="951.4927" font-family="'Arial'" fill="#000000">8</text><text lengthAdjust="spacing" x="232.0747" font-size="13" textLength="162.8809" y="943.9263" font-family="'Arial'" fill="#000000">POST MedicationRequest</text><text lengthAdjust="spacing" x="232.0747" font-size="13" textLength="131.3965" y="959.0591" font-family="'Arial'" fill="#000000">(GeplanteAbgabe 2)</text></g><path filter="url(#f1xtqplbw0xuvf)" d="M5,982.125 L5,1014.125 A5,5 0 0 0 10,1019.125 L402,1019.125 A5,5 0 0 0 407,1014.125 L407,987.125 L397,977.125 L10,977.125 A5,5 0 0 0 5,982.125" style="stroke:#8B95A5;stroke-width:1;" fill="url(#g1xtqplbw0xuvf0)"></path><path d="M397,977.125 L397,984.625 A2.5,2.5 0 0 0 399.5,987.125 L407,987.125 L397,977.125" style="stroke:#8B95A5;stroke-width:1;" fill="url(#g1xtqplbw0xuvf0)"></path><text lengthAdjust="spacing" x="11" font-size="14" textLength="326.4434" y="995.1201" font-family="'Arial'" fill="#111827">Geplante Abgabe 2 (inkl. e-Med groupIdentfier</text><text lengthAdjust="spacing" x="11" font-size="14" textLength="381.1719" y="1011.417" font-family="'Arial'" fill="#111827">für "Rezeptklammer") an Fachanwendung übermitteln</text><path d="M176.7476,1034.7188 L237.686,1034.7188 L237.686,1043.0156 L227.686,1053.0156 L171.7476,1053.0156 L171.7476,1039.7188 A5,5 0 0 1 176.7476,1034.7188" style="stroke:#111827;stroke-width:1.5;" fill="#EEF2FF"></path><rect rx="5" ry="5" width="831.4014" x="171.7476" y="1034.7188" style="stroke:#111827;stroke-width:2;" fill="none" height="269.6094"></rect><text font-weight="700" lengthAdjust="spacing" x="186.7476" font-size="14" textLength="20.9385" y="1048.7139" font-family="'Arial'" fill="#000000">alt</text><text font-weight="700" lengthAdjust="spacing" x="252.686" font-size="14" textLength="59.0967" y="1049.7139" font-family="'Arial'" fill="#000000">[gültig]</text><path d="M641.1929,1061.3125 L702.1313,1061.3125 L702.1313,1069.6094 L692.1313,1079.6094 L636.1929,1079.6094 L636.1929,1066.3125 A5,5 0 0 1 641.1929,1061.3125" style="stroke:#111827;stroke-width:1.5;" fill="#EEF2FF"></path><rect rx="5" ry="5" width="356.9561" x="636.1929" y="1061.3125" style="stroke:#111827;stroke-width:2;" fill="none" height="61.7266"></rect><text font-weight="700" lengthAdjust="spacing" x="651.1929" font-size="14" textLength="20.9385" y="1075.3076" font-family="'Arial'" fill="#000000">alt</text><text font-weight="700" lengthAdjust="spacing" x="717.1313" font-size="14" textLength="271.0176" y="1076.3076" font-family="'Arial'" fill="#000000">[e-Med groupIdentifer vorhanden]</text><g data-entity-2="part2" data-entity-1="part2" id="msg9" class="message" data-source-line="113"><line y1="1102.0391" x1="690.855" y2="1102.0391" style="stroke:#111827;stroke-width:1;" x2="732.855"></line><line y1="1102.0391" x1="732.855" y2="1115.0391" style="stroke:#111827;stroke-width:1;" x2="732.855"></line><line y1="1115.0391" x1="691.855" y2="1115.0391" style="stroke:#111827;stroke-width:1;" x2="732.855"></line><polygon style="stroke:#111827;stroke-width:1;" fill="#111827" points="701.855,1111.0391,691.855,1115.0391,701.855,1119.0391,697.855,1115.0391"></polygon><text font-weight="700" lengthAdjust="spacing" x="697.855" font-size="13" textLength="9.0454" y="1096.9731" font-family="'Arial'" fill="#000000">9</text><text lengthAdjust="spacing" x="710.9004" font-size="13" textLength="199.0244" y="1096.9731" font-family="'Arial'" fill="#000000">e-Med groupIdentifer belassen</text></g><g data-entity-2="part2" data-entity-1="part2" id="msg10" class="message" data-source-line="115"><line y1="1151.1719" x1="690.855" y2="1151.1719" style="stroke:#111827;stroke-width:1;" x2="732.855"></line><line y1="1151.1719" x1="732.855" y2="1164.1719" style="stroke:#111827;stroke-width:1;" x2="732.855"></line><line y1="1164.1719" x1="691.855" y2="1164.1719" style="stroke:#111827;stroke-width:1;" x2="732.855"></line><polygon style="stroke:#111827;stroke-width:1;" fill="#111827" points="701.855,1160.1719,691.855,1164.1719,701.855,1168.1719,697.855,1164.1719"></polygon><text font-weight="700" lengthAdjust="spacing" x="697.855" font-size="13" textLength="18.0908" y="1146.106" font-family="'Arial'" fill="#000000">10</text><text lengthAdjust="spacing" x="719.9458" font-size="13" textLength="188.9888" y="1146.106" font-family="'Arial'" fill="#000000">GeplanteAbgabe 2 speichern</text></g><path filter="url(#f1xtqplbw0xuvf)" d="M528,1182.1719 L528,1214.1719 A5,5 0 0 0 533,1219.1719 L835,1219.1719 A5,5 0 0 0 840,1214.1719 L840,1187.1719 L830,1177.1719 L533,1177.1719 A5,5 0 0 0 528,1182.1719" style="stroke:#8B95A5;stroke-width:1;" fill="url(#g1xtqplbw0xuvf0)"></path><path d="M830,1177.1719 L830,1184.6719 A2.5,2.5 0 0 0 832.5,1187.1719 L840,1187.1719 L830,1177.1719" style="stroke:#8B95A5;stroke-width:1;" fill="url(#g1xtqplbw0xuvf0)"></path><text lengthAdjust="spacing" x="534" font-size="14" textLength="291.334" y="1195.167" font-family="'Arial'" fill="#111827">e-Med groupIdentifier bleibt unverändert,</text><text lengthAdjust="spacing" x="534" font-size="14" textLength="222.0928" y="1211.4639" font-family="'Arial'" fill="#111827">Geplante Abgabe 2 gespeichert</text><g data-entity-2="part1" data-entity-1="part2" id="msg11" class="message" data-source-line="122"><line y1="1248.8984" x1="213.0293" y2="1244.8984" style="stroke:#111827;stroke-width:1;" x2="223.0293"></line><line y1="1248.8984" x1="213.0293" y2="1252.8984" style="stroke:#111827;stroke-width:1;" x2="223.0293"></line><line y1="1248.8984" x1="212.0293" y2="1248.8984" style="stroke:#111827;stroke-width:1;stroke-dasharray:2,2;" x2="679.855"></line><text font-weight="700" lengthAdjust="spacing" x="229.0293" font-size="13" textLength="18.0908" y="1243.8325" font-family="'Arial'" fill="#000000">11</text><text lengthAdjust="spacing" x="251.1201" font-size="13" textLength="330.186" y="1243.8325" font-family="'Arial'" fill="#000000">OK (MedicationRequest inkl. e-Med groupIdentfier)</text></g><line y1="1257.8984" x1="171.7476" y2="1257.8984" style="stroke:#111827;stroke-width:1;stroke-dasharray:2,2;" x2="1003.1489"></line><text font-weight="700" lengthAdjust="spacing" x="176.7476" font-size="14" textLength="79.0303" y="1270.8936" font-family="'Arial'" fill="#000000">[ungültig]</text><g data-entity-2="part1" data-entity-1="part2" id="msg12" class="message" data-source-line="124"><line y1="1296.3281" x1="213.0293" y2="1292.3281" style="stroke:#111827;stroke-width:1;" x2="223.0293"></line><line y1="1296.3281" x1="213.0293" y2="1300.3281" style="stroke:#111827;stroke-width:1;" x2="223.0293"></line><line y1="1296.3281" x1="212.0293" y2="1296.3281" style="stroke:#111827;stroke-width:1;stroke-dasharray:2,2;" x2="684.855"></line><text font-weight="700" lengthAdjust="spacing" x="229.0293" font-size="13" textLength="18.0908" y="1291.2622" font-family="'Arial'" fill="#000000">12</text><text lengthAdjust="spacing" x="251.1201" font-size="13" textLength="40.6694" y="1291.2622" font-family="'Arial'" fill="#000000">Fehler</text></g><g data-entity-2="part3" data-entity-1="part1" id="msg13" class="message" data-source-line="128"><line y1="1332.4609" x1="1020.1455" y2="1328.4609" style="stroke:#111827;stroke-width:1;" x2="1010.1455"></line><line y1="1332.4609" x1="1020.1455" y2="1336.4609" style="stroke:#111827;stroke-width:1;" x2="1010.1455"></line><line y1="1332.4609" x1="212.0293" y2="1332.4609" style="stroke:#111827;stroke-width:1;" x2="1021.1455"></line><text font-weight="700" lengthAdjust="spacing" x="219.0293" font-size="13" textLength="18.0908" y="1327.395" font-family="'Arial'" fill="#000000">13</text><text lengthAdjust="spacing" x="241.1201" font-size="13" textLength="169.5713" y="1327.395" font-family="'Arial'" fill="#000000">Trigger e-Rezept erstellen</text></g><path filter="url(#f1xtqplbw0xuvf)" d="M11,1350.4609 L11,1398.4609 A5,5 0 0 0 16,1403.4609 L394,1403.4609 A5,5 0 0 0 399,1398.4609 L399,1355.4609 L389,1345.4609 L16,1345.4609 A5,5 0 0 0 11,1350.4609" style="stroke:#8B95A5;stroke-width:1;" fill="url(#g1xtqplbw0xuvf0)"></path><path d="M389,1345.4609 L389,1352.9609 A2.5,2.5 0 0 0 391.5,1355.4609 L399,1355.4609 L389,1345.4609" style="stroke:#8B95A5;stroke-width:1;" fill="url(#g1xtqplbw0xuvf0)"></path><text lengthAdjust="spacing" x="17" font-size="14" textLength="363.1387" y="1363.4561" font-family="'Arial'" fill="#111827">Erstellung eines e-Rezepts, welches die Information</text><text lengthAdjust="spacing" x="17" font-size="14" textLength="297.4727" y="1379.7529" font-family="'Arial'" fill="#111827">der beiden geplanten Abgaben beinhaltet.</text><text lengthAdjust="spacing" x="17" font-size="14" textLength="4.4502" y="1396.0498" font-family="'Arial'" fill="#111827">&nbsp;</text><path d="M176.7476,1419.3516 L237.686,1419.3516 L237.686,1427.6484 L227.686,1437.6484 L171.7476,1437.6484 L171.7476,1424.3516 A5,5 0 0 1 176.7476,1419.3516" style="stroke:#111827;stroke-width:1.5;" fill="#EEF2FF"></path><rect rx="5" ry="5" width="1030.1836" x="171.7476" y="1419.3516" style="stroke:#111827;stroke-width:2;" fill="none" height="138.2891"></rect><text font-weight="700" lengthAdjust="spacing" x="186.7476" font-size="14" textLength="20.9385" y="1433.3467" font-family="'Arial'" fill="#000000">alt</text><text font-weight="700" lengthAdjust="spacing" x="252.686" font-size="14" textLength="59.0967" y="1434.3467" font-family="'Arial'" fill="#000000">[gültig]</text><g data-entity-2="part3" data-entity-1="part3" id="msg14" class="message" data-source-line="137"><line y1="1460.0781" x1="1032.1455" y2="1460.0781" style="stroke:#111827;stroke-width:1;" x2="1074.1455"></line><line y1="1460.0781" x1="1074.1455" y2="1473.0781" style="stroke:#111827;stroke-width:1;" x2="1074.1455"></line><line y1="1473.0781" x1="1033.1455" y2="1473.0781" style="stroke:#111827;stroke-width:1;" x2="1074.1455"></line><polygon style="stroke:#111827;stroke-width:1;" fill="#111827" points="1043.1455,1469.0781,1033.1455,1473.0781,1043.1455,1477.0781,1039.1455,1473.0781"></polygon><text font-weight="700" lengthAdjust="spacing" x="1039.1455" font-size="13" textLength="18.0908" y="1455.0122" font-family="'Arial'" fill="#000000">14</text><text lengthAdjust="spacing" x="1061.2363" font-size="13" textLength="118.6948" y="1455.0122" font-family="'Arial'" fill="#000000">e-Rezept erstellen</text></g><g data-entity-2="part1" data-entity-1="part3" id="msg15" class="message" data-source-line="138"><line y1="1502.2109" x1="213.0293" y2="1498.2109" style="stroke:#111827;stroke-width:1;" x2="223.0293"></line><line y1="1502.2109" x1="213.0293" y2="1506.2109" style="stroke:#111827;stroke-width:1;" x2="223.0293"></line><line y1="1502.2109" x1="212.0293" y2="1502.2109" style="stroke:#111827;stroke-width:1;stroke-dasharray:2,2;" x2="1021.1455"></line><text font-weight="700" lengthAdjust="spacing" x="229.0293" font-size="13" textLength="18.0908" y="1497.145" font-family="'Arial'" fill="#000000">15</text><text lengthAdjust="spacing" x="251.1201" font-size="13" textLength="18.7573" y="1497.145" font-family="'Arial'" fill="#000000">OK</text></g><line y1="1511.2109" x1="171.7476" y2="1511.2109" style="stroke:#111827;stroke-width:1;stroke-dasharray:2,2;" x2="1201.9312"></line><text font-weight="700" lengthAdjust="spacing" x="176.7476" font-size="14" textLength="79.0303" y="1524.2061" font-family="'Arial'" fill="#000000">[ungültig]</text><g data-entity-2="part1" data-entity-1="part3" id="msg16" class="message" data-source-line="141"><line y1="1549.6406" x1="213.0293" y2="1545.6406" style="stroke:#111827;stroke-width:1;" x2="223.0293"></line><line y1="1549.6406" x1="213.0293" y2="1553.6406" style="stroke:#111827;stroke-width:1;" x2="223.0293"></line><line y1="1549.6406" x1="212.0293" y2="1549.6406" style="stroke:#111827;stroke-width:1;stroke-dasharray:2,2;" x2="1026.1455"></line><text font-weight="700" lengthAdjust="spacing" x="229.0293" font-size="13" textLength="18.0908" y="1544.5747" font-family="'Arial'" fill="#000000">16</text><text lengthAdjust="spacing" x="251.1201" font-size="13" textLength="40.6694" y="1544.5747" font-family="'Arial'" fill="#000000">Fehler</text></g>  <!-- ?plantuml-src rLRTJkGs5BxtKnmDDo0HnAHB-P506hQmNQtQHK1LgSiAESb9nXgFCtKSXbBrRNWCxkR5Ukna4ayIkhHtDH8Yv_zyv_CnHXY9y04NaYk3C8ao7Y7mie082uDJL0ag-0aJCUD6vAgmXYYKqQldZ3IeoKfAL8mLCw4MNFCvHBbEKB_FPQvXQzyTNylZMQRpKYMrHNfWVpoBOigJV2bK1YcN1NgQsaqhr33sWoQOybAQoroPd_aSOJJHWilHiCMDU48OlnjMRfRjsQYS0FgJ0Pnt6y1zF4ZtWwrad1pZzzR21-0eEZxW1utqTYhYcSAYW379hhs6ZkZxYYU9RTn6yQePZyT7uI79RXfeZ2wH_UKN-ECV2zHIg9dNmiN5aC4lD5Nx1zO0-zZZxoMgkEhqYciZOh4WRcoqTE1Enw0tLdSsZVe0zzJhuMmerh24rc6YTRxi0kE4czWwqL36Hb7b-ev47wZonKQFJUHArPivfg7hplDiquURapdF7xqEDkH3kB8eVuJHdQBWFqnW3322hUEKxer5XSU6J4bnFmPUmCYPZ1XTLBftZvwlEnZGtOLB7a-vMf9DIILKXsA-VtTqU6XPjsYH1YI7-yk9YrrxJuR3Ot2DJxWmBbOSHU5Xs8rrNrjKmQeFBnWlJQxAUOIQiTFJxfe17kaofILpUagciH4Fd6wWwvmnZIda3rWZiTkKVG9Vlj1wGcqTAD3UrCpbLiNgfqJmZ72V1nfv4fWyM6fXC7WgCotI5AvhwQzE-bib_VgLCNVrsspCOevwkdgM1kn-v3DJLbkmsuAO0vkKXHIOeYRmYu16BT7L5fmJdIGwE6m6Xq5d5Ijuo3NXWrIH0hA78fxILrJ3Kl4WEAiAE-bjyh6teNjTrBQgoQLjbOIJG6sO_m1ShRS-ps1R93jUpKq5zGHEuEhppQsRPUo0kBRO5-PERQyJhclRQQTQExDNYsmQOeJg9fzNBmJGN1XgK-soYhFshYu-KkacfMP050Oa4itQkZdDBbkzI2CoUwleg-if20nG8fuQEmHAI4BcY5zppMyQTRPwLa_zA3O_UL5Y-is6dRl0GB50oejQLJujA6kSO63I6QxTJ9MmxjJB6PmrJFdy2RPxGm9w7EJUO0yqStegY88jQ4DXBt4ggKxI9jYRhWNXcvGDMyhktgdN2xB_fTofjRTk2T9a-0-S30Su-IrAXdGbNgsIfQiN3QDgzSqaBH_KentuHnB_UvQ-WPz3RX5ANXJEg-Bd6yWPleMS_MnsO96anMM8GcHCbuNUFRCxmEJm_yRai-QXEu5RBRBCOh5-75_VlnULnawVTYiMZK-n2qkKr7u1YK3ugD9Sprrpm18tDc6NSjRRtwHGKo89cZtMagWjlgwoIwlccGxyJWOwy4qt1i0681soh33jGBgkYWh-6m00? --></g></svg>