<?xml version="1.0" encoding="us-ascii" standalone="no"?><svg xmlns="http://www.w3.org/2000/svg" xmlns:xlink="http://www.w3.org/1999/xlink" contentStyleType="text/css" height="599px" preserveAspectRatio="none" style="width:781px;height:599px;background:#F5F5F5;" version="1.1" viewBox="0 0 781 599" width="781px" zoomAndPan="magnify"><defs><linearGradient id="grqswti5j3wkp0" x1="50%" x2="50%" y1="0%" y2="100%"><stop offset="0%" stop-color="#E0E5F0"/><stop offset="100%" stop-color="#D1D9E6"/></linearGradient></defs><g><rect fill="#F5F5F5" height="599" style="stroke:none;stroke-width:1.0;" width="781" x="0" y="0"/><text fill="#000000" font-family="Arial" font-size="14" font-weight="bold" lengthAdjust="spacing" textLength="507" x="135.5" y="33.1318">Pr&#252;fung des Planzustands und Erzeugung des Medikationsplan-Bundles</text><ellipse cx="354.125" cy="57.0986" fill="#111827" rx="10" ry="10" style="stroke:#222222;stroke-width:1.0;"/><polygon fill="#EEF2FF" points="303.125,87.0986,405.125,87.0986,417.125,103.1973,405.125,119.2959,303.125,119.2959,291.125,103.1973,303.125,87.0986" style="stroke:#111827;stroke-width:1.0;"/><text fill="#000000" font-family="Arial" font-size="14" lengthAdjust="spacing" textLength="102" x="303.125" y="100.2305">Medikationsplan</text><text fill="#000000" font-family="Arial" font-size="14" lengthAdjust="spacing" textLength="76" x="303.125" y="116.3291">vorhanden?</text><text fill="#000000" font-family="Arial" font-size="14" lengthAdjust="spacing" textLength="28" x="263.125" y="100.2305">Nein</text><text fill="#000000" font-family="Arial" font-size="14" lengthAdjust="spacing" textLength="14" x="417.125" y="100.2305">Ja</text><path d="M196,129.2959 L196,154.4438 L176,158.4438 L196,162.4438 L196,187.5918 A0,0 0 0 0 196,187.5918 L371,187.5918 A0,0 0 0 0 371,187.5918 L371,139.2959 L361,129.2959 L196,129.2959 A0,0 0 0 0 196,129.2959 " fill="url(#grqswti5j3wkp0)" style="stroke:#8B95A5;stroke-width:1.0;"/><path d="M361,129.2959 L361,139.2959 L371,139.2959 L361,129.2959 " fill="url(#grqswti5j3wkp0)" style="stroke:#8B95A5;stroke-width:1.0;"/><text fill="#111827" font-family="Arial" font-size="14" lengthAdjust="spacing" textLength="154" x="202" y="147.4277">Initialen Medikationsplan</text><text fill="#111827" font-family="Arial" font-size="14" lengthAdjust="spacing" textLength="54" x="202" y="163.5264">erstellen</text><text fill="#111827" font-family="Arial" font-size="14" lengthAdjust="spacing" textLength="153" x="202" y="179.625">(Sub_UC_eMed_01_03)</text><rect fill="#FFFFFF" height="52.1973" rx="5" ry="5" style="stroke:#555555;stroke-width:1.0;" width="165" x="11" y="132.3452"/><text fill="#000000" font-family="Arial" font-size="14" lengthAdjust="spacing" textLength="145" x="21" y="155.4771">[1] List.emptyReason =</text><text fill="#000000" font-family="Arial" font-size="14" lengthAdjust="spacing" textLength="64" x="21" y="171.5757">notstarted</text><polygon fill="#EEF2FF" points="574.75,129.2959,654.75,129.2959,666.75,145.3945,654.75,161.4932,574.75,161.4932,562.75,145.3945,574.75,129.2959" style="stroke:#111827;stroke-width:1.0;"/><text fill="#000000" font-family="Arial" font-size="14" lengthAdjust="spacing" textLength="80" x="574.75" y="142.4277">Planeintr&#228;ge</text><text fill="#000000" font-family="Arial" font-size="14" lengthAdjust="spacing" textLength="76" x="574.75" y="158.5264">vorhanden?</text><text fill="#000000" font-family="Arial" font-size="14" lengthAdjust="spacing" textLength="14" x="548.75" y="142.4277">Ja</text><text fill="#000000" font-family="Arial" font-size="14" lengthAdjust="spacing" textLength="28" x="666.75" y="142.4277">Nein</text><rect fill="#FFFFFF" height="68.2959" rx="5" ry="5" style="stroke:#555555;stroke-width:1.0;" width="233" x="401" y="171.4932"/><text fill="#000000" font-family="Arial" font-size="14" lengthAdjust="spacing" textLength="213" x="411" y="194.625">[2] Transformationen durchf&#252;hren</text><text fill="#000000" font-family="Arial" font-size="14" lengthAdjust="spacing" textLength="193" x="411" y="210.7236">+ Eintr&#228;ge mit Flag "Removed"</text><text fill="#000000" font-family="Arial" font-size="14" lengthAdjust="spacing" textLength="61" x="411" y="226.8223">entfernen</text><rect fill="#FFFFFF" height="52.1973" rx="5" ry="5" style="stroke:#555555;stroke-width:1.0;" width="145" x="445" y="318.0356"/><text fill="#000000" font-family="Arial" font-size="14" lengthAdjust="spacing" textLength="125" x="455" y="341.1675">List.emptyReason =</text><text fill="#000000" font-family="Arial" font-size="14" lengthAdjust="spacing" textLength="54" x="455" y="357.2661">nilknown</text><polygon fill="#EEF2FF" points="460,259.7891,575,259.7891,587,275.8877,575,291.9863,460,291.9863,448,275.8877,460,259.7891" style="stroke:#111827;stroke-width:1.0;"/><text fill="#000000" font-family="Arial" font-size="14" lengthAdjust="spacing" textLength="28" x="521.5" y="305.1182">Nein</text><text fill="#000000" font-family="Arial" font-size="14" lengthAdjust="spacing" textLength="115" x="460" y="272.9209">noch Planeintr&#228;ge</text><text fill="#000000" font-family="Arial" font-size="14" lengthAdjust="spacing" textLength="76" x="460" y="289.0195">vorhanden?</text><text fill="#000000" font-family="Arial" font-size="14" lengthAdjust="spacing" textLength="14" x="587" y="272.9209">Ja</text><polygon fill="#EEF2FF" points="517.5,390.2329,529.5,402.2329,517.5,414.2329,505.5,402.2329,517.5,390.2329" style="stroke:#111827;stroke-width:1.0;"/><rect fill="#FFFFFF" height="52.1973" rx="5" ry="5" style="stroke:#555555;stroke-width:1.0;" width="116" x="654" y="171.4932"/><text fill="#000000" font-family="Arial" font-size="14" lengthAdjust="spacing" textLength="54" x="664" y="194.625">[3] keine</text><text fill="#000000" font-family="Arial" font-size="14" lengthAdjust="spacing" textLength="96" x="664" y="210.7236">Transformation</text><polygon fill="#EEF2FF" points="614.75,420.2329,626.75,432.2329,614.75,444.2329,602.75,432.2329,614.75,420.2329" style="stroke:#111827;stroke-width:1.0;"/><polygon fill="#EEF2FF" points="354.125,450.2329,366.125,462.2329,354.125,474.2329,342.125,462.2329,354.125,450.2329" style="stroke:#111827;stroke-width:1.0;"/><rect fill="#FFFFFF" height="52.1973" rx="5" ry="5" style="stroke:#555555;stroke-width:1.0;" width="191" x="258.625" y="494.2329"/><text fill="#000000" font-family="Arial" font-size="14" lengthAdjust="spacing" textLength="171" x="268.625" y="517.3647">[4] Medikationsplan-Bundle</text><text fill="#000000" font-family="Arial" font-size="14" lengthAdjust="spacing" textLength="54" x="268.625" y="533.4634">erstellen</text><ellipse cx="354.125" cy="577.4302" fill="none" rx="11" ry="11" style="stroke:#222222;stroke-width:1.0;"/><ellipse cx="354.125" cy="577.4302" fill="#222222" rx="6" ry="6" style="stroke:#222222;stroke-width:1.0;"/><line style="stroke:#111827;stroke-width:1.0;" x1="517.5" x2="517.5" y1="291.9863" y2="318.0356"/><polygon fill="#111827" points="513.5,308.0356,517.5,318.0356,521.5,308.0356,517.5,312.0356" style="stroke:#111827;stroke-width:1.0;"/><line style="stroke:#111827;stroke-width:1.0;" x1="587" x2="600" y1="275.8877" y2="275.8877"/><polygon fill="#111827" points="596,332.085,600,342.085,604,332.085,600,336.085" style="stroke:#111827;stroke-width:1.0;"/><line style="stroke:#111827;stroke-width:1.0;" x1="600" x2="600" y1="275.8877" y2="402.2329"/><line style="stroke:#111827;stroke-width:1.0;" x1="600" x2="529.5" y1="402.2329" y2="402.2329"/><polygon fill="#111827" points="539.5,398.2329,529.5,402.2329,539.5,406.2329,535.5,402.2329" style="stroke:#111827;stroke-width:1.0;"/><line style="stroke:#111827;stroke-width:1.0;" x1="517.5" x2="517.5" y1="370.2329" y2="390.2329"/><polygon fill="#111827" points="513.5,380.2329,517.5,390.2329,521.5,380.2329,517.5,384.2329" style="stroke:#111827;stroke-width:1.0;"/><line style="stroke:#111827;stroke-width:1.0;" x1="517.5" x2="517.5" y1="239.7891" y2="259.7891"/><polygon fill="#111827" points="513.5,249.7891,517.5,259.7891,521.5,249.7891,517.5,253.7891" style="stroke:#111827;stroke-width:1.0;"/><line style="stroke:#111827;stroke-width:1.0;" x1="562.75" x2="517.5" y1="145.3945" y2="145.3945"/><line style="stroke:#111827;stroke-width:1.0;" x1="517.5" x2="517.5" y1="145.3945" y2="171.4932"/><polygon fill="#111827" points="513.5,161.4932,517.5,171.4932,521.5,161.4932,517.5,165.4932" style="stroke:#111827;stroke-width:1.0;"/><line style="stroke:#111827;stroke-width:1.0;" x1="666.75" x2="712" y1="145.3945" y2="145.3945"/><line style="stroke:#111827;stroke-width:1.0;" x1="712" x2="712" y1="145.3945" y2="171.4932"/><polygon fill="#111827" points="708,161.4932,712,171.4932,716,161.4932,712,165.4932" style="stroke:#111827;stroke-width:1.0;"/><line style="stroke:#111827;stroke-width:1.0;" x1="517.5" x2="517.5" y1="414.2329" y2="432.2329"/><line style="stroke:#111827;stroke-width:1.0;" x1="517.5" x2="602.75" y1="432.2329" y2="432.2329"/><polygon fill="#111827" points="592.75,428.2329,602.75,432.2329,592.75,436.2329,596.75,432.2329" style="stroke:#111827;stroke-width:1.0;"/><line style="stroke:#111827;stroke-width:1.0;" x1="712" x2="712" y1="223.6904" y2="432.2329"/><line style="stroke:#111827;stroke-width:1.0;" x1="712" x2="626.75" y1="432.2329" y2="432.2329"/><polygon fill="#111827" points="636.75,428.2329,626.75,432.2329,636.75,436.2329,632.75,432.2329" style="stroke:#111827;stroke-width:1.0;"/><line style="stroke:#111827;stroke-width:1.0;" x1="291.125" x2="93.5" y1="103.1973" y2="103.1973"/><line style="stroke:#111827;stroke-width:1.0;" x1="93.5" x2="93.5" y1="103.1973" y2="132.3452"/><polygon fill="#111827" points="89.5,122.3452,93.5,132.3452,97.5,122.3452,93.5,126.3452" style="stroke:#111827;stroke-width:1.0;"/><line style="stroke:#111827;stroke-width:1.0;" x1="417.125" x2="614.75" y1="103.1973" y2="103.1973"/><line style="stroke:#111827;stroke-width:1.0;" x1="614.75" x2="614.75" y1="103.1973" y2="129.2959"/><polygon fill="#111827" points="610.75,119.2959,614.75,129.2959,618.75,119.2959,614.75,123.2959" style="stroke:#111827;stroke-width:1.0;"/><line style="stroke:#111827;stroke-width:1.0;" x1="93.5" x2="93.5" y1="184.5425" y2="462.2329"/><line style="stroke:#111827;stroke-width:1.0;" x1="93.5" x2="342.125" y1="462.2329" y2="462.2329"/><polygon fill="#111827" points="332.125,458.2329,342.125,462.2329,332.125,466.2329,336.125,462.2329" style="stroke:#111827;stroke-width:1.0;"/><line style="stroke:#111827;stroke-width:1.0;" x1="614.75" x2="614.75" y1="444.2329" y2="462.2329"/><line style="stroke:#111827;stroke-width:1.0;" x1="614.75" x2="366.125" y1="462.2329" y2="462.2329"/><polygon fill="#111827" points="376.125,458.2329,366.125,462.2329,376.125,466.2329,372.125,462.2329" style="stroke:#111827;stroke-width:1.0;"/><line style="stroke:#111827;stroke-width:1.0;" x1="354.125" x2="354.125" y1="67.0986" y2="87.0986"/><polygon fill="#111827" points="350.125,77.0986,354.125,87.0986,358.125,77.0986,354.125,81.0986" style="stroke:#111827;stroke-width:1.0;"/><line style="stroke:#111827;stroke-width:1.0;" x1="354.125" x2="354.125" y1="474.2329" y2="494.2329"/><polygon fill="#111827" points="350.125,484.2329,354.125,494.2329,358.125,484.2329,354.125,488.2329" style="stroke:#111827;stroke-width:1.0;"/><line style="stroke:#111827;stroke-width:1.0;" x1="354.125" x2="354.125" y1="546.4302" y2="566.4302"/><polygon fill="#111827" points="350.125,556.4302,354.125,566.4302,358.125,556.4302,354.125,560.4302" style="stroke:#111827;stroke-width:1.0;"/><!--SRC=[ZLJDRjim3BxxAOZqac3eOAVDrXyCGzEbs8QjA9hsb0Q14j6nO5iA9BbPE-njzXYzzSL6gNQW9Yum-M2B_FZn8qNP2biWNEddfxIII-1euAfWyh4obabke98SHleHgsNZ_ebSvCmA9SsAaFj3WXHeeiZaGgwOPYNCbUQeprMXDEp5VeLUjiYNMb5OZKW7xWaG9cDShGKbJ5bXCF3KOLgYXYGavPYogh0NIjfBLY9qphHWHQSTCHQF2CbXk_CjsLyVLgWB8VC0C1gr0Mubzn-u8t-eVbqnpbrb_VYrVHZsRE1Ns5AfBCBl262utJsCSP36-tiyuSVumI52fgFvyO0DDjQRJ2noYSP0GhRhe9inxHjjZYLeHP8aH_sFP1jldSkVK25RM74lx4ExojIlRNLrdUtgTW_ZnTQS7i0NmKeb-MvBCEtxP0qWpBcffdQsfHbRfdUg7stuDwOphTMwrHYMujha2AD8fD3TkZztybxfZEuQoiyzi1bAw5wYaBs8g4ucoHH-26FVOxco3zV8Z9BmwKxIE7XAvASEvwT3YsLcQGFmJGfBqqzKMycy5xMnM93NxxhZQZwxFPyXGMTnCeiFUcH7klQED8gG3XgwtvdNu_IxtmFfi_hvxnBRrDTOfxu_XHlDf4cLBhqAylDABxBq-IdJICM_Wr731QMmS56m9NIkiLJto3jt561Jf06Lfo-SJe5KYmp-NyPB1PkUUcMjFHL5BjMwoKGj4Adxt8a_cHnC8QSzvNrTdW-j0-lNoUHm-iO_awfhZkBKZOXQHVy0]--></g></svg>