<svg xmlns="http://www.w3.org/2000/svg" contentStyleType="text/css" viewBox="0 0 1167 1301" zoomAndPan="magnify" data-diagram-type="SEQUENCE" preserveAspectRatio="none" width="1167px" xmlns:xlink="http://www.w3.org/1999/xlink" style="width:1167px;height:1301px;background:#F5F5F5;" version="1.1" height="1301px">  <!-- ?plantuml 1.2026.7beta1? --><defs><linearGradient y1="0%" x1="50%" y2="100%" x2="50%" id="g1xf6jjxnhrl700"><stop offset="0%" stop-color="#E0E5F0"></stop><stop offset="100%" stop-color="#D1D9E6"></stop></linearGradient><filter width="300%" x="-1" y="-1" id="f1xf6jjxnhrl70" height="300%"><feGaussianBlur result="blurOut" stdDeviation="2"></feGaussianBlur><feColorMatrix result="blurOut2" in="blurOut" values="0 0 0 0 0 0 0 0 0 0 0 0 0 0 0 0 0 0 .4 0" type="matrix"></feColorMatrix><feOffset result="blurOut3" dx="4" dy="4" in="blurOut2"></feOffset><feBlend mode="normal" in="SourceGraphic" in2="blurOut3"></feBlend></filter></defs><g><a name="l13">​</a><rect width="1167" x="0" y="0" style="stroke:none;stroke-width:1;" fill="#F5F5F5" height="1301"></rect><g class="title" data-source-line="1"><text font-weight="700" lengthAdjust="spacing" x="310.6504" font-size="14" textLength="539.0137" y="27.9951" font-family="'Arial'" fill="#000000">Geplante Abgabe für bestehende Medikationsplaneinträge erstellen</text><text font-weight="700" lengthAdjust="spacing" x="242.0278" font-size="14" textLength="676.2588" y="44.292" font-family="'Arial'" fill="#000000">Variante C: Nachträgliche Verknüpfung des e-Rezepts mit dem e-Med GroupIdentifier</text></g><rect rx="5" ry="5" width="74.0586" x="140" y="59.5938" style="stroke:#181818;stroke-width:0.5;" fill="#9FBAC4" height="1235.0938"></rect><text font-weight="700" lengthAdjust="spacing" x="143" font-size="14" textLength="4.874" y="72.5889" font-family="'Arial'" fill="#000000">&nbsp;</text><text font-weight="700" lengthAdjust="spacing" x="152.748" font-size="14" textLength="48.5625" y="88.8857" font-family="'Arial'" fill="#000000">GDA 1</text><rect rx="5" ry="5" width="256.9268" x="472.9731" y="59.5938" style="stroke:#181818;stroke-width:0.5;" fill="#C48778" height="1235.0938"></rect><text font-weight="700" lengthAdjust="spacing" x="475.9731" font-size="14" textLength="4.874" y="72.5889" font-family="'Arial'" fill="#000000">&nbsp;</text><text font-weight="700" lengthAdjust="spacing" x="510.0913" font-size="14" textLength="182.6904" y="88.8857" font-family="'Arial'" fill="#000000">e-Med Fachanwendung</text><rect rx="5" ry="5" width="105.1826" x="910.3657" y="59.5938" style="stroke:#181818;stroke-width:0.5;" fill="#CBB272" height="1235.0938"></rect><text font-weight="700" lengthAdjust="spacing" x="913.3657" font-size="14" textLength="4.874" y="72.5889" font-family="'Arial'" fill="#000000">&nbsp;</text><text font-weight="700" lengthAdjust="spacing" x="932.8618" font-size="14" textLength="69.9385" y="88.8857" font-family="'Arial'" fill="#000000">e-Rezept</text><g><title>GDA 1</title><rect width="10" x="172.0293" y="182.4844" style="stroke:#181818;stroke-width:1;" fill="#FFFFFF" height="1023.9063"></rect></g><g><title>e-Med FA</title><rect width="10" x="596.4365" y="723.3594" style="stroke:#181818;stroke-width:1;" fill="#FFFFFF" height="288.9063"></rect></g><g><title>e-Rezept</title><rect width="10" x="957.957" y="510.1797" style="stroke:#181818;stroke-width:1;" fill="#FFFFFF" height="158.75"></rect></g><g><title>e-Rezept</title><rect width="10" x="957.957" y="1055.3984" style="stroke:#181818;stroke-width:1;" fill="#FFFFFF" height="141.9922"></rect></g><rect rx="5" ry="5" width="1012.1289" x="9" y="469.4531" style="stroke:#111827;stroke-width:2;" fill="none" height="557.8125"></rect><rect rx="5" ry="5" width="869.3813" x="141.7476" y="580.7734" style="stroke:#111827;stroke-width:2;" fill="none" height="96.1563"></rect><rect rx="5" ry="5" width="735.9888" x="141.7476" y="793.9531" style="stroke:#111827;stroke-width:2;" fill="none" height="226.3125"></rect><rect rx="5" ry="5" width="315.9619" x="551.7744" y="820.5469" style="stroke:#111827;stroke-width:2;" fill="none" height="76.8594"></rect><g data-qualified-name="GDA_1" data-entity-uid="part1" id="part1-lifeline" class="participant-lifeline" data-source-line="43"><g><title>GDA 1</title><rect width="8" x="173.0293" y="172.4844" fill="#000000" fill-opacity="0.00000" height="1042.9063"></rect><line y1="172.4844" x1="176.7476" y2="1215.3906" style="stroke:#181818;stroke-width:0.5;stroke-dasharray:5,5;" x2="176.7476"></line></g></g><g data-qualified-name="eMed_FA" data-entity-uid="part2" id="part2-lifeline" class="participant-lifeline" data-source-line="47"><g><title>e-Med FA</title><rect width="8" x="597.4365" y="172.4844" fill="#000000" fill-opacity="0.00000" height="1042.9063"></rect><line y1="172.4844" x1="600.7744" y2="1215.3906" style="stroke:#181818;stroke-width:0.5;stroke-dasharray:5,5;" x2="600.7744"></line></g></g><g data-qualified-name="e_Rezept" data-entity-uid="part3" id="part3-lifeline" class="participant-lifeline" data-source-line="51"><g><title>e-Rezept</title><rect width="8" x="958.957" y="172.4844" fill="#000000" fill-opacity="0.00000" height="1042.9063"></rect><line y1="172.4844" x1="962.7852" y2="1215.3906" style="stroke:#181818;stroke-width:0.5;stroke-dasharray:5,5;" x2="962.7852"></line></g></g><g data-qualified-name="GDA_1" data-entity-uid="part1" id="part1-head" class="participant participant-head" data-source-line="43"><text lengthAdjust="spacing" x="151.7476" font-size="14" textLength="44.5635" y="169.1826" font-family="'Arial'" fill="#000000">GDA 1</text><ellipse cx="177.0293" cy="104.6875" rx="8" ry="8" style="stroke:#181818;stroke-width:0.5;" fill="#E2E2F0"></ellipse><path d="M177.0293,112.6875 L177.0293,139.6875 M164.0293,120.6875 L190.0293,120.6875 M177.0293,139.6875 L164.0293,154.6875 M177.0293,139.6875 L190.0293,154.6875" style="stroke:#181818;stroke-width:0.5;" fill="none"></path></g><g data-qualified-name="GDA_1" data-entity-uid="part1" id="part1-tail" class="participant participant-tail" data-source-line="43"><text lengthAdjust="spacing" x="151.7476" font-size="14" textLength="44.5635" y="1227.3857" font-family="'Arial'" fill="#000000">GDA 1</text><ellipse cx="177.0293" cy="1239.1875" rx="8" ry="8" style="stroke:#181818;stroke-width:0.5;" fill="#E2E2F0"></ellipse><path d="M177.0293,1247.1875 L177.0293,1274.1875 M164.0293,1255.1875 L190.0293,1255.1875 M177.0293,1274.1875 L164.0293,1289.1875 M177.0293,1274.1875 L190.0293,1289.1875" style="stroke:#181818;stroke-width:0.5;" fill="none"></path></g><g data-qualified-name="eMed_FA" data-entity-uid="part2" id="part2-head" class="participant participant-head" data-source-line="47"><rect rx="5" ry="5" width="79.3242" x="561.7744" y="141.1875" style="stroke:#555555;stroke-width:0.5;" fill="#FFFFFF" height="30.2969"></rect><text lengthAdjust="spacing" x="568.7744" font-size="14" textLength="65.3242" y="161.1826" font-family="'Arial'" fill="#000000">e-Med FA</text></g><g data-qualified-name="eMed_FA" data-entity-uid="part2" id="part2-tail" class="participant participant-tail" data-source-line="47"><rect rx="5" ry="5" width="79.3242" x="561.7744" y="1214.3906" style="stroke:#555555;stroke-width:0.5;" fill="#FFFFFF" height="30.2969"></rect><text lengthAdjust="spacing" x="568.7744" font-size="14" textLength="65.3242" y="1234.3857" font-family="'Arial'" fill="#000000">e-Med FA</text></g><g data-qualified-name="e_Rezept" data-entity-uid="part3" id="part3-head" class="participant participant-head" data-source-line="51"><rect rx="5" ry="5" width="76.3438" x="924.7852" y="141.1875" style="stroke:#555555;stroke-width:0.5;" fill="#FFFFFF" height="30.2969"></rect><text lengthAdjust="spacing" x="931.7852" font-size="14" textLength="62.3438" y="161.1826" font-family="'Arial'" fill="#000000">e-Rezept</text></g><g data-qualified-name="e_Rezept" data-entity-uid="part3" id="part3-tail" class="participant participant-tail" data-source-line="51"><rect rx="5" ry="5" width="76.3438" x="924.7852" y="1214.3906" style="stroke:#555555;stroke-width:0.5;" fill="#FFFFFF" height="30.2969"></rect><text lengthAdjust="spacing" x="931.7852" font-size="14" textLength="62.3438" y="1234.3857" font-family="'Arial'" fill="#000000">e-Rezept</text></g><g><title>GDA 1</title><rect width="10" x="172.0293" y="182.4844" style="stroke:#181818;stroke-width:1;" fill="#FFFFFF" height="1023.9063"></rect></g><g><title>e-Med FA</title><rect width="10" x="596.4365" y="723.3594" style="stroke:#181818;stroke-width:1;" fill="#FFFFFF" height="288.9063"></rect></g><g><title>e-Rezept</title><rect width="10" x="957.957" y="510.1797" style="stroke:#181818;stroke-width:1;" fill="#FFFFFF" height="158.75"></rect></g><g><title>e-Rezept</title><rect width="10" x="957.957" y="1055.3984" style="stroke:#181818;stroke-width:1;" fill="#FFFFFF" height="141.9922"></rect></g><rect rx="5" ry="5" width="1161.3145" x="0" y="203.6328" style="stroke:#EEEEEE;stroke-width:1;" fill="#EEEEEE" height="3"></rect><line y1="203.6328" x1="0" y2="203.6328" style="stroke:#000000;stroke-width:1;" x2="1161.3145"></line><line y1="206.6328" x1="0" y2="206.6328" style="stroke:#000000;stroke-width:1;" x2="1161.3145"></line><rect rx="5" ry="5" width="216.2891" x="472.5127" y="192.4844" style="stroke:#000000;stroke-width:2;" fill="#EEEEEE" height="24.2969"></rect><text font-weight="700" lengthAdjust="spacing" x="478.5127" font-size="14" textLength="197.415" y="209.4795" font-family="'Arial'" fill="#000000">Medikationsplan abrufen</text><rect rx="5" ry="5" width="495.3511" x="148.7476" y="226.7813" style="stroke:#000000;stroke-width:1.5;" fill="none" height="42.5938"></rect><path d="M153.7476,226.7813 L215.7476,226.7813 L215.7476,234.7813 L205.7476,244.7813 L148.7476,244.7813 L148.7476,231.7813 A5,5 0 0 1 153.7476,226.7813" style="stroke:#000000;stroke-width:2;" fill="#EEEEEE"></path><text font-weight="700" lengthAdjust="spacing" x="161.7476" font-size="14" textLength="22.4902" y="241.7764" font-family="'Arial'" fill="#000000">ref</text><a xlink:type="simple" xlink:show="new" xlink:title="interactions.html#sequenzdiagramm-plan-read" href="interactions.html#sequenzdiagramm-plan-read" xlink:actuate="onRequest" title="interactions.html#sequenzdiagramm-plan-read" xlink:href="interactions.html#sequenzdiagramm-plan-read" target="_top"><text lengthAdjust="spacing" x="361.1018" font-size="14" textLength="70.6426" y="261.7764" font-family="'Arial'" fill="#0000EE">Plan-Read</text></a><path filter="url(#f1xf6jjxnhrl70)" d="M47,284.375 L47,316.375 A5,5 0 0 0 52,321.375 L297,321.375 A5,5 0 0 0 302,316.375 L302,289.375 L292,279.375 L52,279.375 A5,5 0 0 0 47,284.375" style="stroke:#8B95A5;stroke-width:1;" fill="url(#g1xf6jjxnhrl700)"></path><path d="M292,279.375 L292,286.875 A2.5,2.5 0 0 0 294.5,289.375 L302,289.375 L292,279.375" style="stroke:#8B95A5;stroke-width:1;" fill="url(#g1xf6jjxnhrl700)"></path><text lengthAdjust="spacing" x="53" font-size="14" textLength="195.8018" y="297.3701" font-family="'Arial'" fill="#111827">GDA erhält Medikationsplan</text><text lengthAdjust="spacing" x="53" font-size="14" textLength="234.377" y="313.667" font-family="'Arial'" fill="#111827">(Auslieferungs-Collection-Bundle)</text><rect rx="5" ry="5" width="1161.3145" x="0" y="351.1172" style="stroke:#EEEEEE;stroke-width:1;" fill="#EEEEEE" height="3"></rect><line y1="351.1172" x1="0" y2="351.1172" style="stroke:#000000;stroke-width:1;" x2="1161.3145"></line><line y1="354.1172" x1="0" y2="354.1172" style="stroke:#000000;stroke-width:1;" x2="1161.3145"></line><rect rx="5" ry="5" width="379.3398" x="390.9873" y="339.9688" style="stroke:#000000;stroke-width:2;" fill="#EEEEEE" height="24.2969"></rect><text font-weight="700" lengthAdjust="spacing" x="396.9873" font-size="14" textLength="146.0908" y="356.9639" font-family="'Arial'" font-style="italic" fill="#000000">Geplante Abgaben</text><text font-weight="700" lengthAdjust="spacing" x="547.9521" font-size="14" textLength="209.501" y="356.9639" font-family="'Arial'" fill="#000000">vorbereiten und schreiben</text><path filter="url(#f1xf6jjxnhrl70)" d="M17,384.2656 L17,449.2656 A5,5 0 0 0 22,454.2656 L329,454.2656 A5,5 0 0 0 334,449.2656 L334,389.2656 L324,379.2656 L22,379.2656 A5,5 0 0 0 17,384.2656" style="stroke:#8B95A5;stroke-width:1;" fill="url(#g1xf6jjxnhrl700)"></path><path d="M324,379.2656 L324,386.7656 A2.5,2.5 0 0 0 326.5,389.2656 L334,389.2656 L324,379.2656" style="stroke:#8B95A5;stroke-width:1;" fill="url(#g1xf6jjxnhrl700)"></path><text lengthAdjust="spacing" x="23" font-size="14" textLength="57.8799" y="397.2607" font-family="'Arial'" fill="#111827">Erstellte</text><text lengthAdjust="spacing" x="85.3301" font-size="14" textLength="130.5459" y="397.2607" font-family="'Arial'" font-style="italic" fill="#111827">Geplante Abgaben</text><text lengthAdjust="spacing" x="220.3262" font-size="14" textLength="94.2471" y="397.2607" font-family="'Arial'" fill="#111827">referenzieren</text><text lengthAdjust="spacing" x="23" font-size="14" textLength="260.668" y="413.5576" font-family="'Arial'" fill="#111827">zugehörige Medikationsplaneinträge;</text><text lengthAdjust="spacing" x="23" font-size="14" textLength="256.2725" y="429.8545" font-family="'Arial'" fill="#111827">groupIdentifier für "Rezeptklammer"</text><text lengthAdjust="spacing" x="23" font-size="14" textLength="70.9775" y="446.1514" font-family="'Arial'" fill="#111827">bleibt leer</text><path d="M14,469.4531 L80.373,469.4531 L80.373,477.75 L70.373,487.75 L9,487.75 L9,474.4531 A5,5 0 0 1 14,469.4531" style="stroke:#111827;stroke-width:1.5;" fill="#EEF2FF"></path><rect rx="5" ry="5" width="1012.1289" x="9" y="469.4531" style="stroke:#111827;stroke-width:2;" fill="none" height="557.8125"></rect><text font-weight="700" lengthAdjust="spacing" x="24" font-size="14" textLength="26.373" y="483.4482" font-family="'Arial'" fill="#000000">par</text><text font-weight="700" lengthAdjust="spacing" x="95.373" font-size="14" textLength="168.1504" y="484.4482" font-family="'Arial'" fill="#000000">[Erstellung e-Rezept]</text><g data-entity-2="part3" data-entity-1="part1" id="msg1" class="message" data-source-line="79"><line y1="510.1797" x1="955.957" y2="506.1797" style="stroke:#111827;stroke-width:1;" x2="945.957"></line><line y1="510.1797" x1="955.957" y2="514.1797" style="stroke:#111827;stroke-width:1;" x2="945.957"></line><line y1="510.1797" x1="182.0293" y2="510.1797" style="stroke:#111827;stroke-width:1;" x2="956.957"></line><text font-weight="700" lengthAdjust="spacing" x="189.0293" font-size="13" textLength="9.0454" y="505.1138" font-family="'Arial'" fill="#000000">1</text><text lengthAdjust="spacing" x="202.0747" font-size="13" textLength="169.5713" y="505.1138" font-family="'Arial'" fill="#000000">Trigger e-Rezept erstellen</text></g><path filter="url(#f1xf6jjxnhrl70)" d="M60,528.1797 L60,560.1797 A5,5 0 0 0 65,565.1797 L284,565.1797 A5,5 0 0 0 289,560.1797 L289,533.1797 L279,523.1797 L65,523.1797 A5,5 0 0 0 60,528.1797" style="stroke:#8B95A5;stroke-width:1;" fill="url(#g1xf6jjxnhrl700)"></path><path d="M279,523.1797 L279,530.6797 A2.5,2.5 0 0 0 281.5,533.1797 L289,533.1797 L279,523.1797" style="stroke:#8B95A5;stroke-width:1;" fill="url(#g1xf6jjxnhrl700)"></path><text lengthAdjust="spacing" x="66" font-size="14" textLength="208.0859" y="541.1748" font-family="'Arial'" fill="#111827">Erstellung e-Rezept auslösen,</text><text lengthAdjust="spacing" x="66" font-size="14" textLength="191.1055" y="557.4717" font-family="'Arial'" fill="#111827">ohne e-Med groupIdentifier</text><path d="M146.7476,580.7734 L207.686,580.7734 L207.686,589.0703 L197.686,599.0703 L141.7476,599.0703 L141.7476,585.7734 A5,5 0 0 1 146.7476,580.7734" style="stroke:#111827;stroke-width:1.5;" fill="#EEF2FF"></path><rect rx="5" ry="5" width="869.3813" x="141.7476" y="580.7734" style="stroke:#111827;stroke-width:2;" fill="none" height="96.1563"></rect><text font-weight="700" lengthAdjust="spacing" x="156.7476" font-size="14" textLength="20.9385" y="594.7686" font-family="'Arial'" fill="#000000">alt</text><text font-weight="700" lengthAdjust="spacing" x="222.686" font-size="14" textLength="236.0859" y="595.7686" font-family="'Arial'" fill="#000000">[e-Rezept erfolgreich erstellt]</text><g data-entity-2="part1" data-entity-1="part3" id="msg2" class="message" data-source-line="87"><line y1="621.5" x1="183.0293" y2="617.5" style="stroke:#111827;stroke-width:1;" x2="193.0293"></line><line y1="621.5" x1="183.0293" y2="625.5" style="stroke:#111827;stroke-width:1;" x2="193.0293"></line><line y1="621.5" x1="182.0293" y2="621.5" style="stroke:#111827;stroke-width:1;stroke-dasharray:2,2;" x2="956.957"></line><text font-weight="700" lengthAdjust="spacing" x="199.0293" font-size="13" textLength="9.0454" y="616.4341" font-family="'Arial'" fill="#000000">2</text><text lengthAdjust="spacing" x="212.0747" font-size="13" textLength="18.7573" y="616.4341" font-family="'Arial'" fill="#000000">OK</text></g><line y1="630.5" x1="141.7476" y2="630.5" style="stroke:#111827;stroke-width:1;stroke-dasharray:2,2;" x2="1011.1289"></line><text font-weight="700" lengthAdjust="spacing" x="146.7476" font-size="14" textLength="252.4375" y="643.4951" font-family="'Arial'" fill="#000000">[Fehler bei Erstellung e-Rezept]</text><g data-entity-2="part1" data-entity-1="part3" id="msg3" class="message" data-source-line="90"><line y1="668.9297" x1="183.0293" y2="664.9297" style="stroke:#111827;stroke-width:1;" x2="193.0293"></line><line y1="668.9297" x1="183.0293" y2="672.9297" style="stroke:#111827;stroke-width:1;" x2="193.0293"></line><line y1="668.9297" x1="182.0293" y2="668.9297" style="stroke:#111827;stroke-width:1;stroke-dasharray:2,2;" x2="961.957"></line><text font-weight="700" lengthAdjust="spacing" x="199.0293" font-size="13" textLength="9.0454" y="663.8638" font-family="'Arial'" fill="#000000">3</text><text lengthAdjust="spacing" x="212.0747" font-size="13" textLength="40.6694" y="663.8638" font-family="'Arial'" fill="#000000">Fehler</text></g><line y1="684.9297" x1="9" y2="684.9297" style="stroke:#111827;stroke-width:1;stroke-dasharray:2,2;" x2="1021.1289"></line><text font-weight="700" lengthAdjust="spacing" x="14" font-size="14" textLength="192.6436" y="697.9248" font-family="'Arial'" fill="#000000">[gleichzeitige Erstellung</text><text font-weight="700" lengthAdjust="spacing" x="211.5176" font-size="14" textLength="136.124" y="697.9248" font-family="'Arial'" font-style="italic" fill="#000000">Geplante Abgabe</text><text font-weight="700" lengthAdjust="spacing" x="347.6416" font-size="14" textLength="6.3984" y="697.9248" font-family="'Arial'" fill="#000000">]</text><g data-entity-2="part2" data-entity-1="part1" id="msg4" class="message" data-source-line="96"><line y1="723.3594" x1="594.4365" y2="719.3594" style="stroke:#111827;stroke-width:1;" x2="584.4365"></line><line y1="723.3594" x1="594.4365" y2="727.3594" style="stroke:#111827;stroke-width:1;" x2="584.4365"></line><line y1="723.3594" x1="182.0293" y2="723.3594" style="stroke:#111827;stroke-width:1;" x2="595.4365"></line><text font-weight="700" lengthAdjust="spacing" x="189.0293" font-size="13" textLength="9.0454" y="718.2935" font-family="'Arial'" fill="#000000">4</text><text lengthAdjust="spacing" x="202.0747" font-size="13" textLength="247.749" y="718.2935" font-family="'Arial'" fill="#000000">POST Transaction Bundle GeplAbgabe</text></g><path filter="url(#f1xf6jjxnhrl70)" d="M19,741.3594 L19,773.3594 A5,5 0 0 0 24,778.3594 L325,778.3594 A5,5 0 0 0 330,773.3594 L330,746.3594 L320,736.3594 L24,736.3594 A5,5 0 0 0 19,741.3594" style="stroke:#8B95A5;stroke-width:1;" fill="url(#g1xf6jjxnhrl700)"></path><path d="M320,736.3594 L320,743.8594 A2.5,2.5 0 0 0 322.5,746.3594 L330,746.3594 L320,736.3594" style="stroke:#8B95A5;stroke-width:1;" fill="url(#g1xf6jjxnhrl700)"></path><text lengthAdjust="spacing" x="25" font-size="14" textLength="239.9209" y="754.3545" font-family="'Arial'" fill="#111827">Transaction Bundle mit Geplanten</text><text lengthAdjust="spacing" x="25" font-size="14" textLength="290.2266" y="770.6514" font-family="'Arial'" fill="#111827">Abgaben an Fachanwendung übermitteln</text><path d="M146.7476,793.9531 L207.686,793.9531 L207.686,802.25 L197.686,812.25 L141.7476,812.25 L141.7476,798.9531 A5,5 0 0 1 146.7476,793.9531" style="stroke:#111827;stroke-width:1.5;" fill="#EEF2FF"></path><rect rx="5" ry="5" width="735.9888" x="141.7476" y="793.9531" style="stroke:#111827;stroke-width:2;" fill="none" height="226.3125"></rect><text font-weight="700" lengthAdjust="spacing" x="156.7476" font-size="14" textLength="20.9385" y="807.9482" font-family="'Arial'" fill="#000000">alt</text><text font-weight="700" lengthAdjust="spacing" x="222.686" font-size="14" textLength="312.2383" y="808.9482" font-family="'Arial'" fill="#000000">[Geplante Abgaben erfolgreich erstellt]</text><path d="M556.7744,820.5469 L617.7129,820.5469 L617.7129,828.8438 L607.7129,838.8438 L551.7744,838.8438 L551.7744,825.5469 A5,5 0 0 1 556.7744,820.5469" style="stroke:#111827;stroke-width:1.5;" fill="#EEF2FF"></path><rect rx="5" ry="5" width="315.9619" x="551.7744" y="820.5469" style="stroke:#111827;stroke-width:2;" fill="none" height="76.8594"></rect><text font-weight="700" lengthAdjust="spacing" x="566.7744" font-size="14" textLength="20.9385" y="834.542" font-family="'Arial'" fill="#000000">alt</text><text font-weight="700" lengthAdjust="spacing" x="632.7129" font-size="14" textLength="221.9971" y="835.542" font-family="'Arial'" fill="#000000">[e-Med groupIdentifier leer]</text><g data-entity-2="part2" data-entity-1="part2" id="msg5" class="message" data-source-line="107"><line y1="876.4063" x1="606.4365" y2="876.4063" style="stroke:#111827;stroke-width:1;" x2="648.4365"></line><line y1="876.4063" x1="648.4365" y2="889.4063" style="stroke:#111827;stroke-width:1;" x2="648.4365"></line><line y1="889.4063" x1="607.4365" y2="889.4063" style="stroke:#111827;stroke-width:1;" x2="648.4365"></line><polygon style="stroke:#111827;stroke-width:1;stroke-linejoin:miter;stroke-miterlimit:10;" fill="#111827" points="617.4365,885.4063,607.4365,889.4063,617.4365,893.4063,613.4365,889.4063"></polygon><text font-weight="700" lengthAdjust="spacing" x="613.4365" font-size="13" textLength="9.0454" y="863.7739" font-family="'Arial'" fill="#000000">5</text><text lengthAdjust="spacing" x="626.4819" font-size="13" textLength="205.918" y="856.2075" font-family="'Arial'" fill="#000000">e-Med groupIdentifier erzeugen</text><text lengthAdjust="spacing" x="626.4819" font-size="13" textLength="219.2544" y="871.3403" font-family="'Arial'" fill="#000000">+ geplanten Abgaben hinzufügen</text></g><path filter="url(#f1xf6jjxnhrl70)" d="M463,914.4063 L463,930.4063 A5,5 0 0 0 468,935.4063 L730,935.4063 A5,5 0 0 0 735,930.4063 L735,919.4063 L725,909.4063 L468,909.4063 A5,5 0 0 0 463,914.4063" style="stroke:#8B95A5;stroke-width:1;" fill="url(#g1xf6jjxnhrl700)"></path><path d="M725,909.4063 L725,916.9063 A2.5,2.5 0 0 0 727.5,919.4063 L735,919.4063 L725,909.4063" style="stroke:#8B95A5;stroke-width:1;" fill="url(#g1xf6jjxnhrl700)"></path><text lengthAdjust="spacing" x="469" font-size="14" textLength="251.6309" y="927.4014" font-family="'Arial'" fill="#111827">Geplante Abgabe 1 + 2 gespeichert</text><g data-entity-2="part1" data-entity-1="part2" id="msg6" class="message" data-source-line="114"><line y1="964.8359" x1="183.0293" y2="960.8359" style="stroke:#111827;stroke-width:1;" x2="193.0293"></line><line y1="964.8359" x1="183.0293" y2="968.8359" style="stroke:#111827;stroke-width:1;" x2="193.0293"></line><line y1="964.8359" x1="182.0293" y2="964.8359" style="stroke:#111827;stroke-width:1;stroke-dasharray:2,2;" x2="595.4365"></line><text font-weight="700" lengthAdjust="spacing" x="199.0293" font-size="13" textLength="9.0454" y="959.77" font-family="'Arial'" fill="#000000">6</text><text lengthAdjust="spacing" x="212.0747" font-size="13" textLength="284.813" y="959.77" font-family="'Arial'" fill="#000000">OK (Ressourcen inkl. e-Med groupIdentifier)</text></g><line y1="973.8359" x1="141.7476" y2="973.8359" style="stroke:#111827;stroke-width:1;stroke-dasharray:2,2;" x2="877.7363"></line><text font-weight="700" lengthAdjust="spacing" x="146.7476" font-size="14" textLength="328.5898" y="986.8311" font-family="'Arial'" fill="#000000">[Fehler bei Erstellung Geplante Abgaben]</text><g data-entity-2="part1" data-entity-1="part2" id="msg7" class="message" data-source-line="117"><line y1="1012.2656" x1="183.0293" y2="1008.2656" style="stroke:#111827;stroke-width:1;" x2="193.0293"></line><line y1="1012.2656" x1="183.0293" y2="1016.2656" style="stroke:#111827;stroke-width:1;" x2="193.0293"></line><line y1="1012.2656" x1="182.0293" y2="1012.2656" style="stroke:#111827;stroke-width:1;stroke-dasharray:2,2;" x2="600.4365"></line><text font-weight="700" lengthAdjust="spacing" x="199.0293" font-size="13" textLength="9.0454" y="1007.1997" font-family="'Arial'" fill="#000000">7</text><text lengthAdjust="spacing" x="212.0747" font-size="13" textLength="40.6694" y="1007.1997" font-family="'Arial'" fill="#000000">Fehler</text></g><g data-entity-2="part3" data-entity-1="part1" id="msg8" class="message" data-source-line="124"><line y1="1055.3984" x1="955.957" y2="1051.3984" style="stroke:#111827;stroke-width:1;" x2="945.957"></line><line y1="1055.3984" x1="955.957" y2="1059.3984" style="stroke:#111827;stroke-width:1;" x2="945.957"></line><line y1="1055.3984" x1="182.0293" y2="1055.3984" style="stroke:#111827;stroke-width:1;" x2="956.957"></line><text font-weight="700" lengthAdjust="spacing" x="189.0293" font-size="13" textLength="9.0454" y="1050.3325" font-family="'Arial'" fill="#000000">8</text><text lengthAdjust="spacing" x="202.0747" font-size="13" textLength="306.6616" y="1050.3325" font-family="'Arial'" fill="#000000">e-Rezept mit e-Med groupIdentifier verknüpfen</text></g><g data-entity-2="part3" data-entity-1="part3" id="msg9" class="message" data-source-line="126"><line y1="1099.6641" x1="967.957" y2="1099.6641" style="stroke:#111827;stroke-width:1;" x2="1009.957"></line><line y1="1099.6641" x1="1009.957" y2="1112.6641" style="stroke:#111827;stroke-width:1;" x2="1009.957"></line><line y1="1112.6641" x1="968.957" y2="1112.6641" style="stroke:#111827;stroke-width:1;" x2="1009.957"></line><polygon style="stroke:#111827;stroke-width:1;stroke-linejoin:miter;stroke-miterlimit:10;" fill="#111827" points="978.957,1108.6641,968.957,1112.6641,978.957,1116.6641,974.957,1112.6641"></polygon><text font-weight="700" lengthAdjust="spacing" x="974.957" font-size="13" textLength="9.0454" y="1087.0317" font-family="'Arial'" fill="#000000">9</text><text lengthAdjust="spacing" x="988.0024" font-size="13" textLength="140.8926" y="1079.4653" font-family="'Arial'" fill="#000000">e-Med groupIdentifier</text><text lengthAdjust="spacing" x="988.0024" font-size="13" textLength="60.8613" y="1094.5981" font-family="'Arial'" fill="#000000">ergänzen</text></g><path filter="url(#f1xf6jjxnhrl70)" d="M838,1130.6641 L838,1162.6641 A5,5 0 0 0 843,1167.6641 L1077,1167.6641 A5,5 0 0 0 1082,1162.6641 L1082,1135.6641 L1072,1125.6641 L843,1125.6641 A5,5 0 0 0 838,1130.6641" style="stroke:#8B95A5;stroke-width:1;" fill="url(#g1xf6jjxnhrl700)"></path><path d="M1072,1125.6641 L1072,1133.1641 A2.5,2.5 0 0 0 1074.5,1135.6641 L1082,1135.6641 L1072,1125.6641" style="stroke:#8B95A5;stroke-width:1;" fill="url(#g1xf6jjxnhrl700)"></path><text lengthAdjust="spacing" x="844" font-size="14" textLength="185.0283" y="1143.6592" font-family="'Arial'" fill="#111827">Bestehendes e-Rezept mit</text><text lengthAdjust="spacing" x="844" font-size="14" textLength="223.9932" y="1159.9561" font-family="'Arial'" fill="#111827">e-Med groupIdentifier verknüpft</text><g data-entity-2="part1" data-entity-1="part3" id="msg10" class="message" data-source-line="131"><line y1="1197.3906" x1="183.0293" y2="1193.3906" style="stroke:#111827;stroke-width:1;" x2="193.0293"></line><line y1="1197.3906" x1="183.0293" y2="1201.3906" style="stroke:#111827;stroke-width:1;" x2="193.0293"></line><line y1="1197.3906" x1="182.0293" y2="1197.3906" style="stroke:#111827;stroke-width:1;stroke-dasharray:2,2;" x2="961.957"></line><text font-weight="700" lengthAdjust="spacing" x="199.0293" font-size="13" textLength="18.0908" y="1192.3247" font-family="'Arial'" fill="#000000">10</text><text lengthAdjust="spacing" x="221.1201" font-size="13" textLength="18.7573" y="1192.3247" font-family="'Arial'" fill="#000000">OK</text></g>  <!-- ?plantuml-src XLRTRjis5BxNKnmuDorQTx5NBpzh0ZXPqWt3sY39UjCK0IKTIOHfogEe9FEmjyapz2ftVh4TalgXP1cJ0KCYpzztpdSEgRaM21zn9PZK2FCmPI52idbH46AXCKCP8_o1CLympNDP647aKglDSug0YcI4G7adlp35hOtpO_Z4einA21vb25zGBUJcPPMKCeKO2y3nDQvnfGjOSaqhIreX7_1HvUNgjnYbvWb75GJ5WiiLKsm9OQvYLEUvo1NixTl7tsNH8YLb6LSIoSpyF8aYOt7-o2c0X8a2lPrAJKbKCF6DnfYmKkZBNEfFR8amcXD2CHgMkE5hXCdxuSrks9wCp2bX_mG0Ptq0k8-pP7-y5q_Y8_p9IFW9E0oFPcpMhDvcF5f8B0gOqDgr1-YGlgzO71lWneeNpMGoEPmUqDfDangjIWp-zGFyzUyLAi7bmeDmSJ4ay2SHnRnWbM0_z_XNYJ9oIA-OqZpYA-9A1zBCFZs1hRBQfokqdU2jxReudOqwBLEZC5SgV-mdnYvsSskNXZms6yxNZxHasTp1s5XsMrirnsHgqNcQhVjfjp9d-PE7eBC-bDSWp9zWT2V9-2zpc02COEyeeRunMM6H9b7Qk9y0As1aHKO1zJxrtPEdQn_NgvVKuqm-aepfQlUGpVFtXmS7XdMhDjE0f71_ERUsA-tviFbwCbXRKHXE3wPzM_ULX3FcFZnZhDIvB9UX6Hyd9_tH1InKPO8IJav8DDByWL47MkI1mWJo1wmIyRQ9-XY-VgM9Xyh8avrtcLwAFKVgTSnPIcbVZetriK8MmvLvkwQtRz-28B0jtfeDJ6vHPPjdeRU22rxDoq9mJ51HKeinbL2WTJe-8ve8V6rn6fCMt0T-sXlTyiCF_1GUSaNuaMi2IdfGH1bzXHNiVaGNReZJuYvxoaH4OBdvXs1TffXjlYkUxZuQVWxIxZ1tXyh8rMiXA6MeHa4eA2uD0gbSBRI02WvLM8PTTPc302gMZazF6oOSmos5afABXZtDkUJ8xQfSozDQFmKmv0qO5MFplK3vbWJoZ4QR8syF6MssePC_AgmNI9ABb98VPNLGnZ-qD1uRA3QAO_Zykp60D3xX4ZE1vX3cWudOQQBIim8n3c6dM8F0-aY5YMjDF36LzDniyy3GW7Ix-NVzSGnNdszkgGPC5gv3m97LNYkSkbDjet6QWuM08Klccb179ArGHK-WhkbEeiqBKP_a2OiSg4oVtyCLiYvS8GSAxkXQ3SDgI8ozV0mheLeZDGvTbTv0McDfmiYuN9VK8cc5prR9lBGPQhC6MpUs2Ro1APajLWO8AbqRQS1xeNOO1w-kwNJ9InLH57IEYtV3yR_-7shs4xlJvIw6LkWQXfg_eMPlUikGOZZL3_M5S-S0Q7kdQth0sXtTezBDirnROruvxhrUF6ikoqKdmA0zC7S6gNsQxfuCW_ty7m00? --></g></svg>