<?xml version="1.0" encoding="us-ascii" standalone="no"?>
<svg xmlns="http://www.w3.org/2000/svg" contentStyleType="text/css" viewBox="0 0 562 771" zoomAndPan="magnify" preserveAspectRatio="none" width="562px" xmlns:xlink="http://www.w3.org/1999/xlink" style="width:562px;height:771px;background:#F5F5F5;" version="1.1" height="771px"><defs><linearGradient y1="0%" x1="50%" y2="100%" x2="50%" id="g1rahnvs7klw030"><stop offset="0%" stop-color="#E0E5F0"></stop><stop offset="100%" stop-color="#D1D9E6"></stop></linearGradient></defs><g><a name="l8">​</a><rect width="562" x="0" y="0" style="stroke:none;stroke-width:1.0;" fill="#F5F5F5" height="771"></rect><text font-weight="bold" lengthAdjust="spacing" x="159.5" font-size="14" textLength="235" y="28.1318" font-family="Arial" fill="#000000">Durchgeführte Abgabe schreiben</text><rect width="10" x="140" y="128.1973" style="stroke:#181818;stroke-width:1.0;" fill="#0F9ED5" fill-opacity="0.56471" height="553.9214"></rect><rect width="10" x="451" y="519.7261" style="stroke:#181818;stroke-width:1.0;" fill="#E97232" fill-opacity="0.74118" height="146.3926"></rect><rect rx="5" ry="5" width="499" x="25" y="135.1973" style="stroke:#111827;stroke-width:2.0;" fill="none" height="248.7852"></rect><rect rx="5" ry="5" width="443" x="102" y="534.7261" style="stroke:#111827;stroke-width:2.0;" fill="#0F9ED5" fill-opacity="0.14510" height="139.3926"></rect><path d="M102,630.521 L545,630.521 L545,669.1187 A5,5 0 0 1 540,674.1187 L107,674.1187 A5,5 0 0 1 102,669.1187 L102,630.521 " style="stroke:none;stroke-width:1.0;" fill="#E97132" fill-opacity="0.20784"></path><line y1="118.1973" x1="145" y2="691.1187" style="stroke:#181818;stroke-width:0.5;stroke-dasharray:5.0,5.0;" x2="145"></line><line y1="118.1973" x1="456" y2="691.1187" style="stroke:#181818;stroke-width:0.5;stroke-dasharray:5.0,5.0;" x2="456"></line><text lengthAdjust="spacing" x="112" font-size="14" textLength="60" y="115.2305" font-family="Arial" fill="#000000">Apotheke</text><ellipse cx="145" cy="50.5986" rx="8" ry="8" style="stroke:#181818;stroke-width:0.5;" fill="#0F9ED5" fill-opacity="0.56471"></ellipse><path d="M145,58.5986 L145,85.5986 M132,66.5986 L158,66.5986 M145,85.5986 L132,100.5986 M145,85.5986 L158,100.5986 " style="stroke:#181818;stroke-width:0.5;" fill="none"></path><text lengthAdjust="spacing" x="112" font-size="14" textLength="60" y="703.2505" font-family="Arial" fill="#000000">Apotheke</text><ellipse cx="145" cy="714.7173" rx="8" ry="8" style="stroke:#181818;stroke-width:0.5;" fill="#0F9ED5" fill-opacity="0.56471"></ellipse><path d="M145,722.7173 L145,749.7173 M132,730.7173 L158,730.7173 M145,749.7173 L132,764.7173 M145,749.7173 L158,764.7173 " style="stroke:#181818;stroke-width:0.5;" fill="none"></path><rect rx="5" ry="5" width="76" x="418" y="87.0986" style="stroke:#555555;stroke-width:0.5;" fill="#E97232" fill-opacity="0.74118" height="30.0986"></rect><text lengthAdjust="spacing" x="425" font-size="14" textLength="62" y="107.2305" font-family="Arial" fill="#000000">e-Med FA</text><rect rx="5" ry="5" width="76" x="418" y="690.1187" style="stroke:#555555;stroke-width:0.5;" fill="#E97232" fill-opacity="0.74118" height="30.0986"></rect><text lengthAdjust="spacing" x="425" font-size="14" textLength="62" y="710.2505" font-family="Arial" fill="#000000">e-Med FA</text><rect width="10" x="140" y="128.1973" style="stroke:#181818;stroke-width:1.0;" fill="#0F9ED5" fill-opacity="0.56471" height="553.9214"></rect><rect width="10" x="451" y="519.7261" style="stroke:#181818;stroke-width:1.0;" fill="#E97232" fill-opacity="0.74118" height="146.3926"></rect><path d="M30,135.1973 L86,135.1973 L86,142.146 L76,152.146 L25,152.146 L25,140.1973 A5,5 0 0 1 30,135.1973 " style="stroke:#111827;stroke-width:1.5;" fill="#EEF2FF"></path><rect rx="5" ry="5" width="499" x="25" y="135.1973" style="stroke:#111827;stroke-width:2.0;" fill="none" height="248.7852"></rect><text font-weight="bold" lengthAdjust="spacing" x="40" font-size="13" textLength="16" y="148.3911" font-family="Arial" fill="#000000">alt</text><text font-weight="bold" lengthAdjust="spacing" x="101" font-size="11" textLength="179" y="147.5151" font-family="Arial" fill="#000000">[Zugriff mit Kontakt (z.B. e-card)]</text><rect rx="5" ry="5" width="408" x="109" y="152.146" style="stroke:#000000;stroke-width:1.5;" fill="none" height="38.7476"></rect><path d="M114,152.146 L171,152.146 L171,158.146 L161,168.146 L109,168.146 L109,157.146 A5,5 0 0 1 114,152.146 " style="stroke:#000000;stroke-width:2.0;" fill="#EEEEEE"></path><text font-weight="bold" lengthAdjust="spacing" x="122" font-size="13" textLength="17" y="166.3398" font-family="Arial" fill="#000000">ref</text><a xlink:type="simple" xlink:show="new" xlink:title="Sub_UC_eMed_07_01.html#sub_uc_emed_07_01_a-zugriff-mittels-e-card" href="Sub_UC_eMed_07_01.html#sub_uc_emed_07_01_a-zugriff-mittels-e-card" xlink:actuate="onRequest" title="Sub_UC_eMed_07_01.html#sub_uc_emed_07_01_a-zugriff-mittels-e-card" xlink:href="Sub_UC_eMed_07_01.html#sub_uc_emed_07_01_a-zugriff-mittels-e-card" target="_top"><text lengthAdjust="spacing" x="184" font-size="12" textLength="258" y="183.4019" font-family="Arial" fill="#0000EE">Geplante Abgaben lesen - Zugriff mittels e-card</text></a><path d="M35,205.8936 L35,249.8936 A5,5 0 0 0 40,254.8936 L250,254.8936 A5,5 0 0 0 255,249.8936 L255,210.8936 L245,200.8936 L40,200.8936 A5,5 0 0 0 35,205.8936 " style="stroke:#8B95A5;stroke-width:1.0;" fill="url(#g1rahnvs7klw030)"></path><path d="M245,200.8936 L245,208.3936 A2.5,2.5 0 0 0 247.5,210.8936 L255,210.8936 L245,200.8936 " style="stroke:#8B95A5;stroke-width:1.0;" fill="url(#g1rahnvs7klw030)"></path><text lengthAdjust="spacing" x="41" font-size="13" textLength="142" y="218.0874" font-family="Arial" fill="#111827">Alle offenen e-Rezepte +</text><text lengthAdjust="spacing" x="41" font-size="13" textLength="195" y="233.0361" font-family="Arial" fill="#111827">alle offenen Geplanten Abgaben +</text><text lengthAdjust="spacing" x="41" font-size="13" textLength="140" y="247.9849" font-family="Arial" fill="#111827">Medikationsplan abrufen</text><line y1="261.7397" x1="25" y2="261.7397" style="stroke:#111827;stroke-width:1.0;stroke-dasharray:2.0,2.0;" x2="524"></line><text font-weight="bold" lengthAdjust="spacing" x="30" font-size="11" textLength="181" y="272.0576" font-family="Arial" fill="#000000">[Zugriff ohne Kontakt (e-Rezept)]</text><rect rx="5" ry="5" width="408" x="109" y="275.3887" style="stroke:#000000;stroke-width:1.5;" fill="none" height="38.7476"></rect><path d="M114,275.3887 L171,275.3887 L171,281.3887 L161,291.3887 L109,291.3887 L109,280.3887 A5,5 0 0 1 114,275.3887 " style="stroke:#000000;stroke-width:2.0;" fill="#EEEEEE"></path><text font-weight="bold" lengthAdjust="spacing" x="122" font-size="13" textLength="17" y="289.5825" font-family="Arial" fill="#000000">ref</text><a xlink:type="simple" xlink:show="new" xlink:title="Sub_UC_eMed_07_01.html#sub_uc_emed_07_01_b-zugriff-mittels-e-rezept" href="Sub_UC_eMed_07_01.html#sub_uc_emed_07_01_b-zugriff-mittels-e-rezept" xlink:actuate="onRequest" title="Sub_UC_eMed_07_01.html#sub_uc_emed_07_01_b-zugriff-mittels-e-rezept" xlink:href="Sub_UC_eMed_07_01.html#sub_uc_emed_07_01_b-zugriff-mittels-e-rezept" target="_top"><text lengthAdjust="spacing" x="177" font-size="12" textLength="272" y="306.6445" font-family="Arial" fill="#0000EE">Geplante Abgaben lesen - Zugriff mittels e-Rezept</text></a><path d="M36,329.1362 L36,373.1362 A5,5 0 0 0 41,378.1362 L248,378.1362 A5,5 0 0 0 253,373.1362 L253,334.1362 L243,324.1362 L41,324.1362 A5,5 0 0 0 36,329.1362 " style="stroke:#8B95A5;stroke-width:1.0;" fill="url(#g1rahnvs7klw030)"></path><path d="M243,324.1362 L243,331.6362 A2.5,2.5 0 0 0 245.5,334.1362 L253,334.1362 L243,324.1362 " style="stroke:#8B95A5;stroke-width:1.0;" fill="url(#g1rahnvs7klw030)"></path><text lengthAdjust="spacing" x="42" font-size="13" textLength="196" y="341.3301" font-family="Arial" fill="#111827">Zugehörige Geplante Abgaben mit</text><text lengthAdjust="spacing" x="42" font-size="13" textLength="123" y="356.2788" font-family="Arial" fill="#111827">e-Med Groupidentifier</text><text lengthAdjust="spacing" x="42" font-size="13" textLength="42" y="371.2275" font-family="Arial" fill="#111827">abrufen</text><rect rx="5" ry="5" width="555" x="0" y="411.4568" style="stroke:#EEEEEE;stroke-width:1.0;" fill="#EEEEEE" height="3"></rect><line y1="411.4568" x1="0" y2="411.4568" style="stroke:#000000;stroke-width:1.0;" x2="555"></line><line y1="414.4568" x1="0" y2="414.4568" style="stroke:#000000;stroke-width:1.0;" x2="555"></line><rect rx="5" ry="5" width="344" x="105.5" y="400.9824" style="stroke:#000000;stroke-width:2.0;" fill="#EEEEEE" height="22.9487"></rect><text font-weight="bold" lengthAdjust="spacing" x="111.5" font-size="13" textLength="322" y="417.1763" font-family="Arial" fill="#000000">Durchgeführte Abgaben vorbereiten und schreiben</text><path d="M5,443.9312 L5,487.9312 A5,5 0 0 0 10,492.9312 L281,492.9312 A5,5 0 0 0 286,487.9312 L286,448.9312 L276,438.9312 L10,438.9312 A5,5 0 0 0 5,443.9312 " style="stroke:#8B95A5;stroke-width:1.0;" fill="url(#g1rahnvs7klw030)"></path><path d="M276,438.9312 L276,446.4312 A2.5,2.5 0 0 0 278.5,448.9312 L286,448.9312 L276,438.9312 " style="stroke:#8B95A5;stroke-width:1.0;" fill="url(#g1rahnvs7klw030)"></path><text lengthAdjust="spacing" x="11" font-size="13" textLength="188" y="456.125" font-family="Arial" fill="#111827">Durchgeführte Abgaben erstellen</text><text lengthAdjust="spacing" x="11" font-size="13" textLength="256" y="471.0737" font-family="Arial" fill="#111827">(referenzieren zugehörige Geplante Abgaben</text><text lengthAdjust="spacing" x="11" font-size="13" textLength="169" y="486.0225" font-family="Arial" fill="#111827">und Medikationsplaneinträge)</text><polygon style="stroke:#111827;stroke-width:1.0;" fill="#111827" points="439,515.7261,449,519.7261,439,523.7261,443,519.7261"></polygon><line y1="519.7261" x1="150" y2="519.7261" style="stroke:#111827;stroke-width:1.0;" x2="445"></line><text font-weight="bold" lengthAdjust="spacing" x="157" font-size="13" textLength="7" y="514.9712" font-family="Arial" fill="#000000">1</text><text lengthAdjust="spacing" x="168" font-size="13" textLength="271" y="514.9712" font-family="Arial" fill="#000000">POST Transaction Bundle MedicationDispense</text><path d="M107,534.7261 L163,534.7261 L163,541.6748 L153,551.6748 L102,551.6748 L102,539.7261 A5,5 0 0 1 107,534.7261 " style="stroke:#111827;stroke-width:1.5;" fill="#EEF2FF"></path><rect rx="5" ry="5" width="443" x="102" y="534.7261" style="stroke:#111827;stroke-width:2.0;" fill="none" height="139.3926"></rect><text font-weight="bold" lengthAdjust="spacing" x="117" font-size="13" textLength="16" y="547.9199" font-family="Arial" fill="#000000">alt</text><text font-weight="bold" lengthAdjust="spacing" x="178" font-size="11" textLength="183" y="547.0439" font-family="Arial" fill="#000000">[Durchgeführte Abgaben erstellt]</text><path d="M376,561.6748 L376,590.6748 A5,5 0 0 0 381,595.6748 L530,595.6748 A5,5 0 0 0 535,590.6748 L535,566.6748 L525,556.6748 L381,556.6748 A5,5 0 0 0 376,561.6748 " style="stroke:#8B95A5;stroke-width:1.0;" fill="url(#g1rahnvs7klw030)"></path><path d="M525,556.6748 L525,564.1748 A2.5,2.5 0 0 0 527.5,566.6748 L535,566.6748 L525,556.6748 " style="stroke:#8B95A5;stroke-width:1.0;" fill="url(#g1rahnvs7klw030)"></path><text lengthAdjust="spacing" x="382" font-size="13" textLength="138" y="573.8687" font-family="Arial" font-style="italic" fill="#111827">Durchgeführte Abgaben</text><text lengthAdjust="spacing" x="382" font-size="13" textLength="67" y="588.8174" font-family="Arial" fill="#111827">gespeichert</text><polygon style="stroke:#111827;stroke-width:1.0;" fill="#111827" points="161,618.521,151,622.521,161,626.521,157,622.521"></polygon><line y1="622.521" x1="155" y2="622.521" style="stroke:#111827;stroke-width:1.0;stroke-dasharray:2.0,2.0;" x2="450"></line><text font-weight="bold" lengthAdjust="spacing" x="167" font-size="13" textLength="7" y="617.7661" font-family="Arial" fill="#000000">2</text><text lengthAdjust="spacing" x="178" font-size="13" textLength="19" y="617.7661" font-family="Arial" fill="#000000">OK</text><line y1="631.521" x1="102" y2="631.521" style="stroke:#111827;stroke-width:1.0;stroke-dasharray:2.0,2.0;" x2="545"></line><text font-weight="bold" lengthAdjust="spacing" x="107" font-size="11" textLength="43" y="641.8389" font-family="Arial" fill="#000000">[Fehler]</text><polygon style="stroke:#111827;stroke-width:1.0;" fill="#111827" points="161,662.1187,151,666.1187,161,670.1187,157,666.1187"></polygon><line y1="666.1187" x1="155" y2="666.1187" style="stroke:#111827;stroke-width:1.0;stroke-dasharray:2.0,2.0;" x2="455"></line><text font-weight="bold" lengthAdjust="spacing" x="167" font-size="13" textLength="7" y="661.3638" font-family="Arial" fill="#000000">3</text><text lengthAdjust="spacing" x="178" font-size="13" textLength="36" y="661.3638" font-family="Arial" fill="#000000">Fehler</text>  <!-- SRC=[hLNTZjf65BxtKvp2HHAbR6qJO5bbLu85jbMQW5XoaoYonlOn7c76xdYysn3bRVeClUhTlbZFsDZOm4QgL2CXV7w_xpjd1iLLX339f1UkCNZw9vGAOUIkcOkGUg54xg8mZ1VfXek4IRO5vgbOtgklbCOUCOstQ1W7hnjB7-Lj7CKIscR-rBtCswnbd0b_7n7qzASMaORCZn-vM4F0eXHhddsQ52Z1gXVrCM1Pf6QnK1_O5g4rafn5hJhcMiWzto5ORyxdFuVxrwy9oeYBJIrWEeLp4H-5d__04mBZ-Cy5yttDpJQRzd5TjLx-r4KLCGtbcm4mFjOFJUm5PgVjM_uG-pgYNkdI7VPOhxAkGkvj1AOfM6HRrlGqwRt4fglKjB0iwz8UaEt-Q3BVwmXJ_2D3uHKe5qmgxl642NMEM2FWLFKJTpcnXgEc9C18olZn66zkR5BEJUSwLewYLvTCToHpqe1VLIvS9wF0m0w2PkQXlQtr-ebMJM_6xVpt-TAvcumS2-XfMxs-UMbVccS2x3nWsE-RWyb9m6Aq-ctwOQKh3FjZ-yr9m6WnX_nfcxFXTD8R7WTCtqydpcn40JWSs5tRzOy3dENqqtInWhRdTmTTcmsFQSpVGQE7tJikiLpEbtd0T3YmkdQNTZk_H40J72Kni9GERHAh43VOEa0taiEy0T-Zhv7gMEpG2yn6hIOBumKqCfmbxZ1H-vJYfNN4Yw1aAXRPraMPm-8FZ0vRYUmW8paZ1P-ojUH105kku1tj2zieUBcx65y0TZmc_LSqVua1n0zOqVkvmdu5dp_VPwxpyTR9JUR0CQsBK6sZTahcp7DmMveTrjaLpJhKJ66KTeeMS8T9HFpAQrf0X2bzT-hWTFmUqfSlX2c_GUgWzD97T8N7GO22iajz45wJYzLTPJzHDNmD54C4-8Of7ejK-u6vCgC4yg3myuO6WS0ALHpIHbIQbVt-Hy7SCuB9OWF-WsG5h6T5emGCd_wMV8sdLQcAffzlPtuBS1-5uW6d4bhLCme9druDu_hw_7-mW8TOqceYr_hJPNFuKmQulZQCKupFr46P4iD8vnalIN6gANPSVyFkHvmCtVHeriY5aaz_hV6LKJ4noYFJkId7TmMB-VqALfA9L9-iMC2Ogj5gwNfUNc_2qmG5_PrKHw-SVVDevwUlkd1-p54PZU7j2vBjBRyvd_ds5tv3_ZKI6Ew5A5LzIFht7bI7sEs9NW41COeThrzqCmmZkakUoIcyUXjyFAPivElmBm00] --></g></svg>