<?xml version="1.0" encoding="us-ascii" standalone="no"?>
<svg xmlns="http://www.w3.org/2000/svg" contentStyleType="text/css" viewBox="0 0 697 1226" zoomAndPan="magnify" preserveAspectRatio="none" width="697px" xmlns:xlink="http://www.w3.org/1999/xlink" style="width:697px;height:1226px;background:#F5F5F5;" version="1.1" height="1226px"><defs><linearGradient y1="0%" x1="50%" y2="100%" x2="50%" id="giex3u3pzqasf0"><stop offset="0%" stop-color="#E0E5F0"></stop><stop offset="100%" stop-color="#D1D9E6"></stop></linearGradient></defs><g><a name="l8">​</a><rect width="697" x="0" y="0" style="stroke:none;stroke-width:1.0;" fill="#F5F5F5" height="1226"></rect><text font-weight="bold" lengthAdjust="spacing" x="104.75" font-size="14" textLength="480" y="28.1318" font-family="Arial" fill="#000000">Geplante Abgabe für bestehende Medikationsplaneinträge erstellen</text><text font-weight="bold" lengthAdjust="spacing" x="130.75" font-size="14" textLength="428" y="44.2305" font-family="Arial" fill="#000000">Variante A: Vorab-Ermittlung des GroupIdentifiers (Fehlerfall)</text><rect width="10" x="169" y="144.2959" style="stroke:#181818;stroke-width:1.0;" fill="#156082" fill-opacity="0.50196" height="962.8052"></rect><rect width="10" x="375" y="344.7871" style="stroke:#181818;stroke-width:1.0;" fill="#E97232" fill-opacity="0.74118" height="120.7949"></rect><rect width="10" x="375" y="829.2646" style="stroke:#181818;stroke-width:1.0;" fill="#E97232" fill-opacity="0.74118" height="234.2388"></rect><rect width="10" x="590" y="583.3257" style="stroke:#181818;stroke-width:1.0;" fill="#CD3732" fill-opacity="0.66275" height="131.4438"></rect><rect rx="5" ry="5" width="670.5" x="10" y="545.4282" style="stroke:#111827;stroke-width:2.0;" fill="none" height="583.6729"></rect><rect rx="5" ry="5" width="640.5" x="20" y="633.2744" style="stroke:#111827;stroke-width:2.0;" fill="#0F9ED5" fill-opacity="0.14510" height="153.3926"></rect><path d="M20,679.1719 L660.5,679.1719 L660.5,781.667 A5,5 0 0 1 655.5,786.667 L25,786.667 A5,5 0 0 1 20,781.667 L20,679.1719 " style="stroke:none;stroke-width:1.0;" fill="#E97132" fill-opacity="0.20784"></path><rect rx="5" ry="5" width="540.5" x="130" y="894.1621" style="stroke:#111827;stroke-width:2.0;" fill="#0F9ED5" fill-opacity="0.14510" height="227.939"></rect><path d="M130,975.0083 L670.5,975.0083 L670.5,1117.1011 A5,5 0 0 1 665.5,1122.1011 L135,1122.1011 A5,5 0 0 1 130,1117.1011 L130,975.0083 " style="stroke:none;stroke-width:1.0;" fill="#E97132" fill-opacity="0.20784"></path><rect rx="5" ry="5" width="520.5" x="140" y="1025.606" style="stroke:#111827;stroke-width:2.0;" fill="#0F9ED5" fill-opacity="0.14510" height="89.4951"></rect><path d="M140,1071.5034 L660.5,1071.5034 L660.5,1110.1011 A5,5 0 0 1 655.5,1115.1011 L145,1115.1011 A5,5 0 0 1 140,1110.1011 L140,1071.5034 " style="stroke:none;stroke-width:1.0;" fill="#E97132" fill-opacity="0.20784"></path><line y1="134.2959" x1="174" y2="1146.1011" style="stroke:#181818;stroke-width:0.5;stroke-dasharray:5.0,5.0;" x2="174"></line><line y1="134.2959" x1="380" y2="1146.1011" style="stroke:#181818;stroke-width:0.5;stroke-dasharray:5.0,5.0;" x2="380"></line><line y1="134.2959" x1="594.5" y2="1146.1011" style="stroke:#181818;stroke-width:0.5;stroke-dasharray:5.0,5.0;" x2="594.5"></line><text lengthAdjust="spacing" x="150" font-size="14" textLength="42" y="131.3291" font-family="Arial" fill="#000000">GDA 1</text><ellipse cx="174" cy="66.6973" rx="8" ry="8" style="stroke:#181818;stroke-width:0.5;" fill="#156082" fill-opacity="0.50196"></ellipse><path d="M174,74.6973 L174,101.6973 M161,82.6973 L187,82.6973 M174,101.6973 L161,116.6973 M174,101.6973 L187,116.6973 " style="stroke:#181818;stroke-width:0.5;" fill="none"></path><text lengthAdjust="spacing" x="150" font-size="14" textLength="42" y="1158.2329" font-family="Arial" fill="#000000">GDA 1</text><ellipse cx="174" cy="1169.6997" rx="8" ry="8" style="stroke:#181818;stroke-width:0.5;" fill="#156082" fill-opacity="0.50196"></ellipse><path d="M174,1177.6997 L174,1204.6997 M161,1185.6997 L187,1185.6997 M174,1204.6997 L161,1219.6997 M174,1204.6997 L187,1219.6997 " style="stroke:#181818;stroke-width:0.5;" fill="none"></path><rect rx="5" ry="5" width="76" x="342" y="103.1973" style="stroke:#555555;stroke-width:0.5;" fill="#E97232" fill-opacity="0.74118" height="30.0986"></rect><text lengthAdjust="spacing" x="349" font-size="14" textLength="62" y="123.3291" font-family="Arial" fill="#000000">e-Med FA</text><rect rx="5" ry="5" width="76" x="342" y="1145.1011" style="stroke:#555555;stroke-width:0.5;" fill="#E97232" fill-opacity="0.74118" height="30.0986"></rect><text lengthAdjust="spacing" x="349" font-size="14" textLength="62" y="1165.2329" font-family="Arial" fill="#000000">e-Med FA</text><rect rx="5" ry="5" width="71" x="559.5" y="103.1973" style="stroke:#555555;stroke-width:0.5;" fill="#CD3732" fill-opacity="0.66275" height="30.0986"></rect><text lengthAdjust="spacing" x="566.5" font-size="14" textLength="57" y="123.3291" font-family="Arial" fill="#000000">e-Rezept</text><rect rx="5" ry="5" width="71" x="559.5" y="1145.1011" style="stroke:#555555;stroke-width:0.5;" fill="#CD3732" fill-opacity="0.66275" height="30.0986"></rect><text lengthAdjust="spacing" x="566.5" font-size="14" textLength="57" y="1165.2329" font-family="Arial" fill="#000000">e-Rezept</text><rect width="10" x="169" y="144.2959" style="stroke:#181818;stroke-width:1.0;" fill="#156082" fill-opacity="0.50196" height="962.8052"></rect><rect width="10" x="375" y="344.7871" style="stroke:#181818;stroke-width:1.0;" fill="#E97232" fill-opacity="0.74118" height="120.7949"></rect><rect width="10" x="375" y="829.2646" style="stroke:#181818;stroke-width:1.0;" fill="#E97232" fill-opacity="0.74118" height="234.2388"></rect><rect width="10" x="590" y="583.3257" style="stroke:#181818;stroke-width:1.0;" fill="#CD3732" fill-opacity="0.66275" height="131.4438"></rect><rect rx="5" ry="5" width="690.5" x="0" y="164.7703" style="stroke:#EEEEEE;stroke-width:1.0;" fill="#EEEEEE" height="3"></rect><line y1="164.7703" x1="0" y2="164.7703" style="stroke:#000000;stroke-width:1.0;" x2="690.5"></line><line y1="167.7703" x1="0" y2="167.7703" style="stroke:#000000;stroke-width:1.0;" x2="690.5"></line><rect rx="5" ry="5" width="175" x="257.75" y="154.2959" style="stroke:#000000;stroke-width:2.0;" fill="#EEEEEE" height="22.9487"></rect><text font-weight="bold" lengthAdjust="spacing" x="263.75" font-size="13" textLength="157" y="170.4897" font-family="Arial" fill="#000000">Medikationsplan abrufen</text><rect rx="5" ry="5" width="294" x="147" y="187.2446" style="stroke:#000000;stroke-width:1.5;" fill="none" height="38.7476"></rect><path d="M152,187.2446 L209,187.2446 L209,193.2446 L199,203.2446 L147,203.2446 L147,192.2446 A5,5 0 0 1 152,187.2446 " style="stroke:#000000;stroke-width:2.0;" fill="#EEEEEE"></path><text font-weight="bold" lengthAdjust="spacing" x="160" font-size="13" textLength="17" y="201.4385" font-family="Arial" fill="#000000">ref</text><a xlink:type="simple" xlink:show="new" xlink:title="interactions.html#sequenzdiagramm-plan-read" href="interactions.html#sequenzdiagramm-plan-read" xlink:actuate="onRequest" title="interactions.html#sequenzdiagramm-plan-read" xlink:href="interactions.html#sequenzdiagramm-plan-read" target="_top"><text lengthAdjust="spacing" x="264.5" font-size="12" textLength="59" y="218.5005" font-family="Arial" fill="#0000EE">Plan-Read</text></a><path d="M68,240.9922 L68,269.9922 A5,5 0 0 0 73,274.9922 L275,274.9922 A5,5 0 0 0 280,269.9922 L280,245.9922 L270,235.9922 L73,235.9922 A5,5 0 0 0 68,240.9922 " style="stroke:#8B95A5;stroke-width:1.0;" fill="url(#giex3u3pzqasf0)"></path><path d="M270,235.9922 L270,243.4922 A2.5,2.5 0 0 0 272.5,245.9922 L280,245.9922 L270,235.9922 " style="stroke:#8B95A5;stroke-width:1.0;" fill="url(#giex3u3pzqasf0)"></path><text lengthAdjust="spacing" x="74" font-size="13" textLength="162" y="253.186" font-family="Arial" fill="#111827">GDA erhält Medikationsplan</text><text lengthAdjust="spacing" x="74" font-size="13" textLength="191" y="268.1348" font-family="Arial" fill="#111827">(Auslieferungs-Collection-Bundle)</text><rect rx="5" ry="5" width="690.5" x="0" y="301.364" style="stroke:#EEEEEE;stroke-width:1.0;" fill="#EEEEEE" height="3"></rect><line y1="301.364" x1="0" y2="301.364" style="stroke:#000000;stroke-width:1.0;" x2="690.5"></line><line y1="304.364" x1="0" y2="304.364" style="stroke:#000000;stroke-width:1.0;" x2="690.5"></line><rect rx="5" ry="5" width="304" x="193.25" y="290.8896" style="stroke:#000000;stroke-width:2.0;" fill="#EEEEEE" height="22.9487"></rect><text font-weight="bold" lengthAdjust="spacing" x="199.25" font-size="13" textLength="115" y="307.0835" font-family="Arial" font-style="italic" fill="#000000">Geplante Abgaben</text><text font-weight="bold" lengthAdjust="spacing" x="318.25" font-size="13" textLength="167" y="307.0835" font-family="Arial" fill="#000000">vorbereiten und schreiben</text><polygon style="stroke:#111827;stroke-width:1.0;" fill="#111827" points="363,340.7871,373,344.7871,363,348.7871,367,344.7871"></polygon><line y1="344.7871" x1="179" y2="344.7871" style="stroke:#111827;stroke-width:1.0;" x2="369"></line><text font-weight="bold" lengthAdjust="spacing" x="186" font-size="13" textLength="7" y="340.0322" font-family="Arial" fill="#000000">1</text><text lengthAdjust="spacing" x="197" font-size="13" textLength="166" y="340.0322" font-family="Arial" fill="#000000">POST $groupidentifier-create​</text><path d="M40,362.7871 L40,391.7871 A5,5 0 0 0 45,396.7871 L302,396.7871 A5,5 0 0 0 307,391.7871 L307,367.7871 L297,357.7871 L45,357.7871 A5,5 0 0 0 40,362.7871 " style="stroke:#8B95A5;stroke-width:1.0;" fill="url(#giex3u3pzqasf0)"></path><path d="M297,357.7871 L297,365.2871 A2.5,2.5 0 0 0 299.5,367.7871 L307,367.7871 L297,357.7871 " style="stroke:#8B95A5;stroke-width:1.0;" fill="url(#giex3u3pzqasf0)"></path><text lengthAdjust="spacing" x="46" font-size="13" textLength="246" y="374.981" font-family="Arial" fill="#111827">e-Med GroupIdentifier für "Rezeptklammer"</text><text lengthAdjust="spacing" x="46" font-size="13" textLength="53" y="389.9297" font-family="Arial" fill="#111827">anfordern</text><line y1="423.6333" x1="385" y2="423.6333" style="stroke:#111827;stroke-width:1.0;" x2="427"></line><line y1="423.6333" x1="427" y2="436.6333" style="stroke:#111827;stroke-width:1.0;" x2="427"></line><line y1="436.6333" x1="386" y2="436.6333" style="stroke:#111827;stroke-width:1.0;" x2="427"></line><polygon style="stroke:#111827;stroke-width:1.0;" fill="#111827" points="396,432.6333,386,436.6333,396,440.6333,392,436.6333"></polygon><text font-weight="bold" lengthAdjust="spacing" x="392" font-size="13" textLength="7" y="418.8784" font-family="Arial" fill="#000000">2</text><text lengthAdjust="spacing" x="403" font-size="13" textLength="180" y="418.8784" font-family="Arial" fill="#000000">e-Med GroupIdentifier erzeugen</text><polygon style="stroke:#111827;stroke-width:1.0;" fill="#111827" points="190,461.582,180,465.582,190,469.582,186,465.582"></polygon><line y1="465.582" x1="184" y2="465.582" style="stroke:#111827;stroke-width:1.0;stroke-dasharray:2.0,2.0;" x2="379"></line><text font-weight="bold" lengthAdjust="spacing" x="196" font-size="13" textLength="7" y="460.8271" font-family="Arial" fill="#000000">3</text><text lengthAdjust="spacing" x="207" font-size="13" textLength="123" y="460.8271" font-family="Arial" fill="#000000">e-Med GroupIdentifier</text><path d="M42,483.582 L42,527.582 A5,5 0 0 0 47,532.582 L301,532.582 A5,5 0 0 0 306,527.582 L306,488.582 L296,478.582 L47,478.582 A5,5 0 0 0 42,483.582 " style="stroke:#8B95A5;stroke-width:1.0;" fill="url(#giex3u3pzqasf0)"></path><path d="M296,478.582 L296,486.082 A2.5,2.5 0 0 0 298.5,488.582 L306,488.582 L296,478.582 " style="stroke:#8B95A5;stroke-width:1.0;" fill="url(#giex3u3pzqasf0)"></path><text lengthAdjust="spacing" x="48" font-size="13" textLength="48" y="495.7759" font-family="Arial" fill="#111827">Erstellte</text><text lengthAdjust="spacing" x="100" font-size="13" textLength="109" y="495.7759" font-family="Arial" font-style="italic" fill="#111827">Geplante Abgaben</text><text lengthAdjust="spacing" x="213" font-size="13" textLength="74" y="495.7759" font-family="Arial" fill="#111827">referenzieren</text><text lengthAdjust="spacing" x="48" font-size="13" textLength="232" y="510.7246" font-family="Arial" fill="#111827">zugehörige Medikationsplaneinträge und</text><text lengthAdjust="spacing" x="48" font-size="13" textLength="180" y="525.6733" font-family="Arial" fill="#111827">enthalten e-Med GroupIdentifier</text><path d="M15,545.4282 L76,545.4282 L76,552.377 L66,562.377 L10,562.377 L10,550.4282 A5,5 0 0 1 15,545.4282 " style="stroke:#111827;stroke-width:1.5;" fill="#EEF2FF"></path><rect rx="5" ry="5" width="670.5" x="10" y="545.4282" style="stroke:#111827;stroke-width:2.0;" fill="none" height="583.6729"></rect><text font-weight="bold" lengthAdjust="spacing" x="25" font-size="13" textLength="21" y="558.6221" font-family="Arial" fill="#000000">par</text><text font-weight="bold" lengthAdjust="spacing" x="91" font-size="11" textLength="116" y="557.7461" font-family="Arial" fill="#000000">[Erstellung e-Rezept]</text><polygon style="stroke:#111827;stroke-width:1.0;" fill="#111827" points="578,579.3257,588,583.3257,578,587.3257,582,583.3257"></polygon><line y1="583.3257" x1="179" y2="583.3257" style="stroke:#111827;stroke-width:1.0;" x2="584"></line><text font-weight="bold" lengthAdjust="spacing" x="186" font-size="13" textLength="7" y="578.5708" font-family="Arial" fill="#000000">4</text><text lengthAdjust="spacing" x="197" font-size="13" textLength="148" y="578.5708" font-family="Arial" fill="#000000">Trigger e-Rezept erstellen</text><path d="M78,601.3257 L78,615.3257 A5,5 0 0 0 83,620.3257 L264,620.3257 A5,5 0 0 0 269,615.3257 L269,606.3257 L259,596.3257 L83,596.3257 A5,5 0 0 0 78,601.3257 " style="stroke:#8B95A5;stroke-width:1.0;" fill="url(#giex3u3pzqasf0)"></path><path d="M259,596.3257 L259,603.8257 A2.5,2.5 0 0 0 261.5,606.3257 L269,606.3257 L259,596.3257 " style="stroke:#8B95A5;stroke-width:1.0;" fill="url(#giex3u3pzqasf0)"></path><text lengthAdjust="spacing" x="84" font-size="13" textLength="170" y="613.5195" font-family="Arial" fill="#111827">Erstellung e-Rezept auslösen</text><path d="M25,633.2744 L81,633.2744 L81,640.2231 L71,650.2231 L20,650.2231 L20,638.2744 A5,5 0 0 1 25,633.2744 " style="stroke:#111827;stroke-width:1.5;" fill="#EEF2FF"></path><rect rx="5" ry="5" width="640.5" x="20" y="633.2744" style="stroke:#111827;stroke-width:2.0;" fill="none" height="153.3926"></rect><text font-weight="bold" lengthAdjust="spacing" x="35" font-size="13" textLength="16" y="646.4683" font-family="Arial" fill="#000000">alt</text><text font-weight="bold" lengthAdjust="spacing" x="96" font-size="11" textLength="100" y="645.5923" font-family="Arial" fill="#000000">[e-Rezept erstellt]</text><polygon style="stroke:#111827;stroke-width:1.0;" fill="#111827" points="190,667.1719,180,671.1719,190,675.1719,186,671.1719"></polygon><line y1="671.1719" x1="184" y2="671.1719" style="stroke:#111827;stroke-width:1.0;stroke-dasharray:2.0,2.0;" x2="589"></line><text font-weight="bold" lengthAdjust="spacing" x="196" font-size="13" textLength="7" y="666.417" font-family="Arial" fill="#000000">5</text><text lengthAdjust="spacing" x="207" font-size="13" textLength="19" y="666.417" font-family="Arial" fill="#000000">OK</text><line y1="680.1719" x1="20" y2="680.1719" style="stroke:#111827;stroke-width:1.0;stroke-dasharray:2.0,2.0;" x2="660.5"></line><text font-weight="bold" lengthAdjust="spacing" x="25" font-size="11" textLength="95" y="690.4897" font-family="Arial" fill="#000000">[e-Rezept Fehler]</text><polygon style="stroke:#111827;stroke-width:1.0;" fill="#111827" points="190,710.7695,180,714.7695,190,718.7695,186,714.7695"></polygon><line y1="714.7695" x1="184" y2="714.7695" style="stroke:#111827;stroke-width:1.0;stroke-dasharray:2.0,2.0;" x2="594"></line><text font-weight="bold" lengthAdjust="spacing" x="196" font-size="13" textLength="7" y="710.0146" font-family="Arial" fill="#000000">6</text><text lengthAdjust="spacing" x="207" font-size="13" textLength="36" y="710.0146" font-family="Arial" fill="#000000">Fehler</text><polygon style="stroke:#111827;stroke-width:1.0;" fill="#111827" points="368,739.7183,378,743.7183,368,747.7183,372,743.7183"></polygon><line y1="743.7183" x1="179" y2="743.7183" style="stroke:#111827;stroke-width:1.0;" x2="374"></line><text font-weight="bold" lengthAdjust="spacing" x="186" font-size="13" textLength="7" y="738.9634" font-family="Arial" fill="#000000">7</text><text lengthAdjust="spacing" x="197" font-size="13" textLength="159" y="738.9634" font-family="Arial" fill="#000000">POST $prescription-discard​</text><path d="M30,761.7183 L30,775.7183 A5,5 0 0 0 35,780.7183 L313,780.7183 A5,5 0 0 0 318,775.7183 L318,766.7183 L308,756.7183 L35,756.7183 A5,5 0 0 0 30,761.7183 " style="stroke:#8B95A5;stroke-width:1.0;" fill="url(#giex3u3pzqasf0)"></path><path d="M308,756.7183 L308,764.2183 A2.5,2.5 0 0 0 310.5,766.7183 L318,766.7183 L308,756.7183 " style="stroke:#8B95A5;stroke-width:1.0;" fill="url(#giex3u3pzqasf0)"></path><text lengthAdjust="spacing" x="36" font-size="13" textLength="103" y="773.9121" font-family="Arial" fill="#111827">Siehe Use Case "</text><text lengthAdjust="spacing" x="139" font-size="13" textLength="102" y="773.9121" font-family="Arial" font-style="italic" fill="#111827">Geplante Abgabe</text><text lengthAdjust="spacing" x="245" font-size="13" textLength="58" y="773.9121" font-family="Arial" fill="#111827">verwerfen"</text><line y1="794.667" x1="10" y2="794.667" style="stroke:#111827;stroke-width:1.0;stroke-dasharray:2.0,2.0;" x2="680.5"></line><text font-weight="bold" lengthAdjust="spacing" x="15" font-size="11" textLength="133" y="804.9849" font-family="Arial" fill="#000000">[gleichzeitige Erstellung</text><text font-weight="bold" lengthAdjust="spacing" x="151" font-size="11" textLength="95" y="804.9849" font-family="Arial" font-style="italic" fill="#000000">Geplante Abgabe</text><text font-weight="bold" lengthAdjust="spacing" x="246" font-size="11" textLength="4" y="804.9849" font-family="Arial" fill="#000000">]</text><polygon style="stroke:#111827;stroke-width:1.0;" fill="#111827" points="363,825.2646,373,829.2646,363,833.2646,367,829.2646"></polygon><line y1="829.2646" x1="179" y2="829.2646" style="stroke:#111827;stroke-width:1.0;" x2="369"></line><text font-weight="bold" lengthAdjust="spacing" x="186" font-size="13" textLength="7" y="824.5098" font-family="Arial" fill="#000000">8</text><text lengthAdjust="spacing" x="197" font-size="13" textLength="144" y="824.5098" font-family="Arial" fill="#000000">POST $prescription-write</text><path d="M46,847.2646 L46,876.2646 A5,5 0 0 0 51,881.2646 L297,881.2646 A5,5 0 0 0 302,876.2646 L302,852.2646 L292,842.2646 L51,842.2646 A5,5 0 0 0 46,847.2646 " style="stroke:#8B95A5;stroke-width:1.0;" fill="url(#giex3u3pzqasf0)"></path><path d="M292,842.2646 L292,849.7646 A2.5,2.5 0 0 0 294.5,852.2646 L302,852.2646 L292,842.2646 " style="stroke:#8B95A5;stroke-width:1.0;" fill="url(#giex3u3pzqasf0)"></path><text lengthAdjust="spacing" x="52" font-size="13" textLength="196" y="859.4585" font-family="Arial" fill="#111827">Transaction Bundle mit Geplanten</text><text lengthAdjust="spacing" x="52" font-size="13" textLength="235" y="874.4072" font-family="Arial" fill="#111827">Abgaben an Fachanwendung übermitteln</text><path d="M135,894.1621 L191,894.1621 L191,901.1108 L181,911.1108 L130,911.1108 L130,899.1621 A5,5 0 0 1 135,894.1621 " style="stroke:#111827;stroke-width:1.5;" fill="#EEF2FF"></path><rect rx="5" ry="5" width="540.5" x="130" y="894.1621" style="stroke:#111827;stroke-width:2.0;" fill="none" height="227.939"></rect><text font-weight="bold" lengthAdjust="spacing" x="145" font-size="13" textLength="16" y="907.356" font-family="Arial" fill="#000000">alt</text><text font-weight="bold" lengthAdjust="spacing" x="206" font-size="11" textLength="4" y="906.48" font-family="Arial" fill="#000000">[</text><text font-weight="bold" lengthAdjust="spacing" x="210" font-size="11" textLength="95" y="906.48" font-family="Arial" font-style="italic" fill="#000000">Geplante Abgabe</text><text font-weight="bold" lengthAdjust="spacing" x="308" font-size="11" textLength="44" y="906.48" font-family="Arial" fill="#000000">erstellt]</text><polygon style="stroke:#111827;stroke-width:1.0;" fill="#111827" points="190,928.0596,180,932.0596,190,936.0596,186,932.0596"></polygon><line y1="932.0596" x1="184" y2="932.0596" style="stroke:#111827;stroke-width:1.0;stroke-dasharray:2.0,2.0;" x2="374"></line><text font-weight="bold" lengthAdjust="spacing" x="196" font-size="13" textLength="7" y="927.3047" font-family="Arial" fill="#000000">9</text><text lengthAdjust="spacing" x="207" font-size="13" textLength="19" y="927.3047" font-family="Arial" fill="#000000">OK</text><path d="M267,950.0596 L267,964.0596 A5,5 0 0 0 272,969.0596 L488,969.0596 A5,5 0 0 0 493,964.0596 L493,955.0596 L483,945.0596 L272,945.0596 A5,5 0 0 0 267,950.0596 " style="stroke:#8B95A5;stroke-width:1.0;" fill="url(#giex3u3pzqasf0)"></path><path d="M483,945.0596 L483,952.5596 A2.5,2.5 0 0 0 485.5,955.0596 L493,955.0596 L483,945.0596 " style="stroke:#8B95A5;stroke-width:1.0;" fill="url(#giex3u3pzqasf0)"></path><text lengthAdjust="spacing" x="273" font-size="13" textLength="205" y="962.2534" font-family="Arial" fill="#111827">Geplante Abgabe 1 + 2 gespeichert</text><line y1="976.0083" x1="130" y2="976.0083" style="stroke:#111827;stroke-width:1.0;stroke-dasharray:2.0,2.0;" x2="670.5"></line><text font-weight="bold" lengthAdjust="spacing" x="135" font-size="11" textLength="4" y="986.3262" font-family="Arial" fill="#000000">[</text><text font-weight="bold" lengthAdjust="spacing" x="139" font-size="11" textLength="95" y="986.3262" font-family="Arial" font-style="italic" fill="#000000">Geplante Abgabe</text><text font-weight="bold" lengthAdjust="spacing" x="237" font-size="11" textLength="39" y="986.3262" font-family="Arial" fill="#000000">Fehler]</text><polygon style="stroke:#111827;stroke-width:1.0;" fill="#111827" points="190,1006.606,180,1010.606,190,1014.606,186,1010.606"></polygon><line y1="1010.606" x1="184" y2="1010.606" style="stroke:#111827;stroke-width:1.0;stroke-dasharray:2.0,2.0;" x2="374"></line><text font-weight="bold" lengthAdjust="spacing" x="196" font-size="13" textLength="14" y="1005.8511" font-family="Arial" fill="#000000">10</text><text lengthAdjust="spacing" x="214" font-size="13" textLength="36" y="1005.8511" font-family="Arial" fill="#000000">Fehler</text><path d="M145,1025.606 L201,1025.606 L201,1032.5547 L191,1042.5547 L140,1042.5547 L140,1030.606 A5,5 0 0 1 145,1025.606 " style="stroke:#111827;stroke-width:1.5;" fill="#EEF2FF"></path><rect rx="5" ry="5" width="520.5" x="140" y="1025.606" style="stroke:#111827;stroke-width:2.0;" fill="none" height="89.4951"></rect><text font-weight="bold" lengthAdjust="spacing" x="155" font-size="13" textLength="16" y="1038.7998" font-family="Arial" fill="#000000">alt</text><text font-weight="bold" lengthAdjust="spacing" x="216" font-size="11" textLength="210" y="1037.9238" font-family="Arial" fill="#000000">[Geplante Abgabe erneut übermitteln]</text><polygon style="stroke:#111827;stroke-width:1.0;" fill="#111827" points="368,1059.5034,378,1063.5034,368,1067.5034,372,1063.5034"></polygon><line y1="1063.5034" x1="179" y2="1063.5034" style="stroke:#111827;stroke-width:1.0;" x2="374"></line><text font-weight="bold" lengthAdjust="spacing" x="186" font-size="13" textLength="14" y="1058.7485" font-family="Arial" fill="#000000">11</text><text lengthAdjust="spacing" x="204" font-size="13" textLength="144" y="1058.7485" font-family="Arial" fill="#000000">POST $prescription-write</text><line y1="1072.5034" x1="140" y2="1072.5034" style="stroke:#111827;stroke-width:1.0;stroke-dasharray:2.0,2.0;" x2="660.5"></line><text font-weight="bold" lengthAdjust="spacing" x="145" font-size="11" textLength="129" y="1082.8213" font-family="Arial" fill="#000000">[Fehler nicht behebbar]</text><polygon style="stroke:#111827;stroke-width:1.0;" fill="#111827" points="583,1103.1011,593,1107.1011,583,1111.1011,587,1107.1011"></polygon><line y1="1107.1011" x1="174" y2="1107.1011" style="stroke:#111827;stroke-width:1.0;" x2="589"></line><text font-weight="bold" lengthAdjust="spacing" x="181" font-size="13" textLength="14" y="1102.3462" font-family="Arial" fill="#000000">12</text><text lengthAdjust="spacing" x="199" font-size="13" textLength="269" y="1102.3462" font-family="Arial" fill="#000000">e-Rezept von e-Med GroupIdentifier entkoppeln</text>  <!-- SRC=[ZLVDRjj64BxpAQPIWIPerOfKP5j6742E9JT84mcoaaFJm5YI8t4XQiaiLrQZea3lVOqyGqwvwKtw99rTKXJ_b9Q63N9dTkQRRtvshRWA4Mun3fbG24DtoLo4nVwB11SJXG4A7-4L-dp558z4eXMH2oNtdvO8A4ad357y9juooLCRb_0saipjZEIQAnLkn19yJE1MHfluXOz2yGMdZV1eZ468Si72yB5bVPUik8YPP6jWdehadVf8oDWMasYDbdMKkf7qKJwFmaX2kskUefHvgoLv4dwciUZhdu964Z0_sd92HPuJB4YoRLAW1BjerCS5suHg70drcgqHMaEADMmLCHTKxlWEmNxIlFyKxfy_nYX3BbO5XT6eIU4DPKI_O0t_TVJxbFc-3itfbjUlYwJrpLFaL4IKk3yiWEigVTZ5_gBRQVksFy0phL6qTE4E-goVhyu3xgq49WdOj3OhqDcbxmCsRQL0XMtR5yuvhTrL4lDd4M627pOel1Jbb4d5FHvJlJK5LbQe5OHvoahrpDJ4XwoM10Mw0OPIHjjgK6Qnp8jPQlAO2r9VFLeoJLEACRUSYchvmeLZeYliFBftDAdVK3dgyda- -MKokx-z6TxRG4_RxfzrBvoBReE2OnG6PsVTyvkQmdGuVp5wFTSM1cVNpfEQmd0w0VEqk-F1wAO_g2gCNerkxiT3Ki31kTDpNB-gS3yR_JgQpg7j-RtpdiC6rJ0cBw7am-bNJSncavbH60tExPxJemQmpAI1b0AMG8lUm6uLcR7YOxO1QH1gd5eLE_G1us6h74DP_tw6EunLjY7zQ5LY8XGR5OdDsaLfMLTNrMaBp9MR1GgukZA0-GEZPaqn5u5AN43qW5auF-HWB-7TEnhOAFLUilbZeDPXE-sddS_PajfhtT6UEXAP3rFzDgEtz-yjomo6erLB4uGos7yALGsdzMYuIKAE2vGqyvCELMI8ncVdcWeqnCSMdIPcrfWud_9dbOD7FFs9FuE7I18Lo1N5JFiWyGBwSZC6qi0xpmxnNS9qSZU7RtKNn3m_NZeU1QFmdx_-XdeKQUug1r9wwhNI9Ar28WLbos9YONf85B3dIJXGNAw0mseHOxD7b3lSB54Sjz0U0_743il7glDwTAFqKAR5KmnBdIFAFjT_mTeHXc3_MVBbLuvwoWHHe08MwhmqepjIH5q06Gvz_XzgtzA3AKzWrXsNC2VNIyr7fdQyLv3-CU13DrNw1w3A03Jv1aRLkV-S6AD7fEGWLCSXKeMWB3qpSjU514rU6f4sHgTLQShaHj8RpaaJgHYCl9ZPJDMidwhtM6BYIHwR_l9vuZ7fKxKVC3MHGaSifniTlD5m6VrfrGiaxK2KMxgOeMYbq0zacLVBCl4kG-HUiACsrMLJuBlPPZdpNmbbAxdnz1zDrXJVN3AHf5CEqea3T0FDRxSwxraN08shCVC29hOKaKQz_q8pHzzNCIpLXo6pL24dE2lNIxsVgLmgQJaqS7fkLU_WDdmF3YmnYJNFA5Kv5KrbTm9PiGZhk3Af4PVYh0AY6OWRLINgVvTecjSKHHLurWU20bNqVqU0hijaPhnXubMzvdCaxxk7I9mQkKAjeZW-WY_OJorQ1wApSjU__m80] --></g></svg>