<?xml version="1.0" encoding="us-ascii" standalone="no"?>
<svg xmlns="http://www.w3.org/2000/svg" contentStyleType="text/css" viewBox="0 0 395 371" zoomAndPan="magnify" preserveAspectRatio="none" width="395px" xmlns:xlink="http://www.w3.org/1999/xlink" style="width:395px;height:371px;background:#F5F5F5;" version="1.1" height="371px"><defs></defs><g><a name="l5">​</a><rect width="395" x="0" y="0" style="stroke:none;stroke-width:1.0;" fill="#F5F5F5" height="371"></rect><text font-weight="bold" lengthAdjust="spacing" x="45" font-size="14" textLength="300" y="28.1318" font-family="Arial" fill="#000000">Vergangene Versionen einer Liste abrufen</text><rect width="10" x="24" y="128.1973" style="stroke:#181818;stroke-width:1.0;" fill="#0078D4" fill-opacity="0.37647" height="154.1182"></rect><rect width="10" x="263" y="128.1973" style="stroke:#181818;stroke-width:1.0;" fill="#E97132" fill-opacity="0.50196" height="154.1182"></rect><line y1="118.1973" x1="29" y2="291.3154" style="stroke:#181818;stroke-width:0.5;stroke-dasharray:5.0,5.0;" x2="29"></line><line y1="118.1973" x1="268" y2="291.3154" style="stroke:#181818;stroke-width:0.5;stroke-dasharray:5.0,5.0;" x2="268"></line><text lengthAdjust="spacing" x="5" font-size="14" textLength="42" y="115.2305" font-family="Arial" fill="#000000">GDA 1</text><ellipse cx="29" cy="50.5986" rx="8" ry="8" style="stroke:#181818;stroke-width:0.5;" fill="#0078D4" fill-opacity="0.37647"></ellipse><path d="M29,58.5986 L29,85.5986 M16,66.5986 L42,66.5986 M29,85.5986 L16,100.5986 M29,85.5986 L42,100.5986 " style="stroke:#181818;stroke-width:0.5;" fill="none"></path><text lengthAdjust="spacing" x="5" font-size="14" textLength="42" y="303.4473" font-family="Arial" fill="#000000">GDA 1</text><ellipse cx="29" cy="314.9141" rx="8" ry="8" style="stroke:#181818;stroke-width:0.5;" fill="#0078D4" fill-opacity="0.37647"></ellipse><path d="M29,322.9141 L29,349.9141 M16,330.9141 L42,330.9141 M29,349.9141 L16,364.9141 M29,349.9141 L42,364.9141 " style="stroke:#181818;stroke-width:0.5;" fill="none"></path><rect rx="5" ry="5" width="196" x="170" y="87.0986" style="stroke:#555555;stroke-width:0.5;" fill="#E97132" fill-opacity="0.50196" height="30.0986"></rect><text lengthAdjust="spacing" x="177" font-size="14" textLength="182" y="107.2305" font-family="Arial" fill="#000000">e-Diagnose Fachanwendung</text><rect rx="5" ry="5" width="196" x="170" y="290.3154" style="stroke:#555555;stroke-width:0.5;" fill="#E97132" fill-opacity="0.50196" height="30.0986"></rect><text lengthAdjust="spacing" x="177" font-size="14" textLength="182" y="310.4473" font-family="Arial" fill="#000000">e-Diagnose Fachanwendung</text><rect width="10" x="24" y="128.1973" style="stroke:#181818;stroke-width:1.0;" fill="#0078D4" fill-opacity="0.37647" height="154.1182"></rect><rect width="10" x="263" y="128.1973" style="stroke:#181818;stroke-width:1.0;" fill="#E97132" fill-opacity="0.50196" height="154.1182"></rect><rect rx="5" ry="5" width="387" x="2" y="128.1973" style="stroke:#000000;stroke-width:1.5;" fill="none" height="42.1973"></rect><path d="M7,128.1973 L67,128.1973 L67,136.1973 L57,146.1973 L2,146.1973 L2,133.1973 A5,5 0 0 1 7,128.1973 " style="stroke:#000000;stroke-width:2.0;" fill="#EEEEEE"></path><text font-weight="bold" lengthAdjust="spacing" x="15" font-size="14" textLength="20" y="143.3291" font-family="Arial" fill="#000000">ref</text><a xlink:type="simple" xlink:show="new" xlink:title="uc_ediag_01_lesen.html#aktuelle-summary-liste-abrufen" href="uc_ediag_01_lesen.html#aktuelle-summary-liste-abrufen" xlink:actuate="onRequest" title="uc_ediag_01_lesen.html#aktuelle-summary-liste-abrufen" xlink:href="uc_ediag_01_lesen.html#aktuelle-summary-liste-abrufen" target="_top"><text lengthAdjust="spacing" x="95" font-size="14" textLength="201" y="163.3291" font-family="Arial" fill="#0000EE">Aktuelle Summary-Liste abrufen</text></a><line y1="198.3682" x1="34" y2="198.3682" style="stroke:#111827;stroke-width:1.0;" x2="76"></line><line y1="198.3682" x1="76" y2="211.3682" style="stroke:#111827;stroke-width:1.0;" x2="76"></line><line y1="211.3682" x1="35" y2="211.3682" style="stroke:#111827;stroke-width:1.0;" x2="76"></line><polygon style="stroke:#111827;stroke-width:1.0;" fill="#111827" points="45,207.3682,35,211.3682,45,215.3682,41,211.3682"></polygon><text font-weight="bold" lengthAdjust="spacing" x="41" font-size="13" textLength="7" y="192.6008" font-family="Arial" fill="#000000">1</text><text lengthAdjust="spacing" x="52" font-size="13" textLength="70" y="193.6133" font-family="Arial" fill="#000000">Ermittelt die</text><text lengthAdjust="spacing" x="126" font-size="13" textLength="16" y="192.4644" font-family="monospace" fill="#000000">id</text><text lengthAdjust="spacing" x="146" font-size="13" textLength="110" y="193.6133" font-family="Arial" fill="#000000">der Summary-Liste</text><polygon style="stroke:#111827;stroke-width:1.0;" fill="#111827" points="251,238.3418,261,242.3418,251,246.3418,255,242.3418"></polygon><line y1="242.3418" x1="34" y2="242.3418" style="stroke:#111827;stroke-width:1.0;" x2="257"></line><text font-weight="bold" lengthAdjust="spacing" x="41" font-size="13" textLength="7" y="236.5745" font-family="Arial" fill="#000000">2</text><text lengthAdjust="spacing" x="52" font-size="13" textLength="184" y="236.438" font-family="monospace" fill="#000000">GET&nbsp;/List/[id]/_history</text><polygon style="stroke:#111827;stroke-width:1.0;" fill="#111827" points="45,269.3154,35,273.3154,45,277.3154,41,273.3154"></polygon><line y1="273.3154" x1="39" y2="273.3154" style="stroke:#111827;stroke-width:1.0;stroke-dasharray:2.0,2.0;" x2="262"></line><text font-weight="bold" lengthAdjust="spacing" x="51" font-size="13" textLength="7" y="267.5481" font-family="Arial" fill="#000000">3</text><text lengthAdjust="spacing" x="62" font-size="13" textLength="48" y="268.5605" font-family="Arial" fill="#000000">Bundle (</text><text lengthAdjust="spacing" x="110" font-size="13" textLength="96" y="267.4116" font-family="monospace" fill="#000000">type=history</text><text lengthAdjust="spacing" x="206" font-size="13" textLength="4" y="268.5605" font-family="Arial" fill="#000000">)</text>  <!-- SRC=[hLHHZvf047xdLqovbpOfFK1HlAHDKC5UUZcDP_lGoyMiCkX6MEoodBqs_UzTaDC5x5kNbzsPR-UR-MOPGKMCy0tvXh0DidARqPGX0wGCETpHJ22G5SyZP9gMxIZR4quIMAKyH3vAuvJ3bLakrKlMkmrFSnPMYCWfFWMHRKcO7YZRG4JY31LFTOqNz9OQDCI8vB48KYRkIOAWUvoIMB-CUA2_4ApkPUU_qlxyiaSUKxPJ0Bv_2V2LXUK6M-aFqvyp4eP5PRPPjmzLpPnogPAoL4hzMmCODjL34vt8DAv2AnnWhq2eaTpLm27EoRhOqlMEOPQ19MrpHKrJdbzpAw8eKbYMvTfzQNjezEMFzb_qKJkFFt9awsEfCy85NTCzOUAIEdL0wr6LgmvgjxVbVdqQDOVICm2Fy_JGLAOqriKjJPSOJuuZLqUQ9ZBpVQt6K-IZgzLqZEooEkNccTukElD6lkb2uz7qRZfVJiRUqWAvP1vzTzpjcHS0TWbm-xtkq6q1PjxYrhzVb146Zkcq0Dvi2b1H3FkZJWimllKcoy2J07_GjpgssmJuoxd_tPyj9A3VTPsUZD10JBz0nU6OVYy8RASPOZwVpaj04BWZq-p8luYiXTJig039G9Sxi7HL66r_RZRWc99DaMU1HQCuiJH32CXwIzW1MPYpZLwlIPBa8cLvia9UyD5d8l_N8wNAStATI1fXE4QGFcELxlipxWOU7_Fr4iFYR5hB63Da7xOYYQ_8JkGOnsXaUP8G_cB4nM0sgi4CNkM6XyfTczjFJvfspDFuT2Iz0PydL0YC1OHKZbATXhekHoIlHr3klMPv8y4JVm7N1U3waOPFrykjtARyHTSrxLICSUOQoaSjStkhwqBEXuydz3ljBm00] --></g></svg>